<?xml version="1.0" encoding="utf-8" standalone="no"?>
<!DOCTYPE svg PUBLIC "-//W3C//DTD SVG 1.1//EN"
  "http://www.w3.org/Graphics/SVG/1.1/DTD/svg11.dtd">
<svg xmlns:xlink="http://www.w3.org/1999/xlink" width="417.589245pt" height="417.080312pt" viewBox="0 0 417.589245 417.080312" xmlns="http://www.w3.org/2000/svg" version="1.1">
 <metadata>
  <rdf:RDF xmlns:dc="http://purl.org/dc/elements/1.1/" xmlns:cc="http://creativecommons.org/ns#" xmlns:rdf="http://www.w3.org/1999/02/22-rdf-syntax-ns#">
   <cc:Work>
    <dc:type rdf:resource="http://purl.org/dc/dcmitype/StillImage"/>
    <dc:date>2026-02-09T14:38:21.008153</dc:date>
    <dc:format>image/svg+xml</dc:format>
    <dc:creator>
     <cc:Agent>
      <dc:title>Matplotlib v3.10.6, https://matplotlib.org/</dc:title>
     </cc:Agent>
    </dc:creator>
   </cc:Work>
  </rdf:RDF>
 </metadata>
 <defs>
  <style type="text/css">*{stroke-linejoin: round; stroke-linecap: butt}</style>
 </defs>
 <g id="figure_1">
  <g id="patch_1">
   <path d="M 0 417.080312 
L 417.589245 417.080312 
L 417.589245 0 
L 0 0 
z
" style="fill: #ffffff"/>
  </g>
  <g id="axes_1">
   <g id="patch_2">
    <path d="M 48.519375 372.217187 
L 410.389245 372.217187 
L 410.389245 30.877187 
L 48.519375 30.877187 
z
" style="fill: #fafafa"/>
   </g>
   <g id="matplotlib.axis_1">
    <g id="xtick_1">
     <g id="line2d_1">
      <path d="M 64.968005 372.217187 
L 64.968005 30.877187 
" clip-path="url(#p09b45d3ded)" style="fill: none; stroke-dasharray: 0.8,1.32; stroke-dashoffset: 0; stroke: #b0b0b0; stroke-opacity: 0.3; stroke-width: 0.8"/>
     </g>
     <g id="line2d_2">
      <defs>
       <path id="mb4e107ad01" d="M 0 0 
L 0 5 
" style="stroke: #000000; stroke-width: 1.2"/>
      </defs>
      <g>
       <use xlink:href="#mb4e107ad01" x="64.968005" y="372.217187" style="stroke: #000000; stroke-width: 1.2"/>
      </g>
     </g>
     <g id="text_1">
      <!-- 0 -->
      <g transform="translate(61.150505 389.835312) scale(0.12 -0.12)">
       <defs>
        <path id="DejaVuSans-30" d="M 2034 4250 
Q 1547 4250 1301 3770 
Q 1056 3291 1056 2328 
Q 1056 1369 1301 889 
Q 1547 409 2034 409 
Q 2525 409 2770 889 
Q 3016 1369 3016 2328 
Q 3016 3291 2770 3770 
Q 2525 4250 2034 4250 
z
M 2034 4750 
Q 2819 4750 3233 4129 
Q 3647 3509 3647 2328 
Q 3647 1150 3233 529 
Q 2819 -91 2034 -91 
Q 1250 -91 836 529 
Q 422 1150 422 2328 
Q 422 3509 836 4129 
Q 1250 4750 2034 4750 
z
" transform="scale(0.015625)"/>
       </defs>
       <use xlink:href="#DejaVuSans-30"/>
      </g>
     </g>
    </g>
    <g id="xtick_2">
     <g id="line2d_3">
      <path d="M 114.437571 372.217187 
L 114.437571 30.877187 
" clip-path="url(#p09b45d3ded)" style="fill: none; stroke-dasharray: 0.8,1.32; stroke-dashoffset: 0; stroke: #b0b0b0; stroke-opacity: 0.3; stroke-width: 0.8"/>
     </g>
     <g id="line2d_4">
      <g>
       <use xlink:href="#mb4e107ad01" x="114.437571" y="372.217187" style="stroke: #000000; stroke-width: 1.2"/>
      </g>
     </g>
     <g id="text_2">
      <!-- 5 -->
      <g transform="translate(110.620071 389.835312) scale(0.12 -0.12)">
       <defs>
        <path id="DejaVuSans-35" d="M 691 4666 
L 3169 4666 
L 3169 4134 
L 1269 4134 
L 1269 2991 
Q 1406 3038 1543 3061 
Q 1681 3084 1819 3084 
Q 2600 3084 3056 2656 
Q 3513 2228 3513 1497 
Q 3513 744 3044 326 
Q 2575 -91 1722 -91 
Q 1428 -91 1123 -41 
Q 819 9 494 109 
L 494 744 
Q 775 591 1075 516 
Q 1375 441 1709 441 
Q 2250 441 2565 725 
Q 2881 1009 2881 1497 
Q 2881 1984 2565 2268 
Q 2250 2553 1709 2553 
Q 1456 2553 1204 2497 
Q 953 2441 691 2322 
L 691 4666 
z
" transform="scale(0.015625)"/>
       </defs>
       <use xlink:href="#DejaVuSans-35"/>
      </g>
     </g>
    </g>
    <g id="xtick_3">
     <g id="line2d_5">
      <path d="M 163.907136 372.217187 
L 163.907136 30.877187 
" clip-path="url(#p09b45d3ded)" style="fill: none; stroke-dasharray: 0.8,1.32; stroke-dashoffset: 0; stroke: #b0b0b0; stroke-opacity: 0.3; stroke-width: 0.8"/>
     </g>
     <g id="line2d_6">
      <g>
       <use xlink:href="#mb4e107ad01" x="163.907136" y="372.217187" style="stroke: #000000; stroke-width: 1.2"/>
      </g>
     </g>
     <g id="text_3">
      <!-- 10 -->
      <g transform="translate(156.272136 389.835312) scale(0.12 -0.12)">
       <defs>
        <path id="DejaVuSans-31" d="M 794 531 
L 1825 531 
L 1825 4091 
L 703 3866 
L 703 4441 
L 1819 4666 
L 2450 4666 
L 2450 531 
L 3481 531 
L 3481 0 
L 794 0 
L 794 531 
z
" transform="scale(0.015625)"/>
       </defs>
       <use xlink:href="#DejaVuSans-31"/>
       <use xlink:href="#DejaVuSans-30" transform="translate(63.623047 0)"/>
      </g>
     </g>
    </g>
    <g id="xtick_4">
     <g id="line2d_7">
      <path d="M 213.376701 372.217187 
L 213.376701 30.877187 
" clip-path="url(#p09b45d3ded)" style="fill: none; stroke-dasharray: 0.8,1.32; stroke-dashoffset: 0; stroke: #b0b0b0; stroke-opacity: 0.3; stroke-width: 0.8"/>
     </g>
     <g id="line2d_8">
      <g>
       <use xlink:href="#mb4e107ad01" x="213.376701" y="372.217187" style="stroke: #000000; stroke-width: 1.2"/>
      </g>
     </g>
     <g id="text_4">
      <!-- 15 -->
      <g transform="translate(205.741701 389.835312) scale(0.12 -0.12)">
       <use xlink:href="#DejaVuSans-31"/>
       <use xlink:href="#DejaVuSans-35" transform="translate(63.623047 0)"/>
      </g>
     </g>
    </g>
    <g id="xtick_5">
     <g id="line2d_9">
      <path d="M 262.846266 372.217187 
L 262.846266 30.877187 
" clip-path="url(#p09b45d3ded)" style="fill: none; stroke-dasharray: 0.8,1.32; stroke-dashoffset: 0; stroke: #b0b0b0; stroke-opacity: 0.3; stroke-width: 0.8"/>
     </g>
     <g id="line2d_10">
      <g>
       <use xlink:href="#mb4e107ad01" x="262.846266" y="372.217187" style="stroke: #000000; stroke-width: 1.2"/>
      </g>
     </g>
     <g id="text_5">
      <!-- 20 -->
      <g transform="translate(255.211266 389.835312) scale(0.12 -0.12)">
       <defs>
        <path id="DejaVuSans-32" d="M 1228 531 
L 3431 531 
L 3431 0 
L 469 0 
L 469 531 
Q 828 903 1448 1529 
Q 2069 2156 2228 2338 
Q 2531 2678 2651 2914 
Q 2772 3150 2772 3378 
Q 2772 3750 2511 3984 
Q 2250 4219 1831 4219 
Q 1534 4219 1204 4116 
Q 875 4013 500 3803 
L 500 4441 
Q 881 4594 1212 4672 
Q 1544 4750 1819 4750 
Q 2544 4750 2975 4387 
Q 3406 4025 3406 3419 
Q 3406 3131 3298 2873 
Q 3191 2616 2906 2266 
Q 2828 2175 2409 1742 
Q 1991 1309 1228 531 
z
" transform="scale(0.015625)"/>
       </defs>
       <use xlink:href="#DejaVuSans-32"/>
       <use xlink:href="#DejaVuSans-30" transform="translate(63.623047 0)"/>
      </g>
     </g>
    </g>
    <g id="xtick_6">
     <g id="line2d_11">
      <path d="M 312.315832 372.217187 
L 312.315832 30.877187 
" clip-path="url(#p09b45d3ded)" style="fill: none; stroke-dasharray: 0.8,1.32; stroke-dashoffset: 0; stroke: #b0b0b0; stroke-opacity: 0.3; stroke-width: 0.8"/>
     </g>
     <g id="line2d_12">
      <g>
       <use xlink:href="#mb4e107ad01" x="312.315832" y="372.217187" style="stroke: #000000; stroke-width: 1.2"/>
      </g>
     </g>
     <g id="text_6">
      <!-- 25 -->
      <g transform="translate(304.680832 389.835312) scale(0.12 -0.12)">
       <use xlink:href="#DejaVuSans-32"/>
       <use xlink:href="#DejaVuSans-35" transform="translate(63.623047 0)"/>
      </g>
     </g>
    </g>
    <g id="xtick_7">
     <g id="line2d_13">
      <path d="M 361.785397 372.217187 
L 361.785397 30.877187 
" clip-path="url(#p09b45d3ded)" style="fill: none; stroke-dasharray: 0.8,1.32; stroke-dashoffset: 0; stroke: #b0b0b0; stroke-opacity: 0.3; stroke-width: 0.8"/>
     </g>
     <g id="line2d_14">
      <g>
       <use xlink:href="#mb4e107ad01" x="361.785397" y="372.217187" style="stroke: #000000; stroke-width: 1.2"/>
      </g>
     </g>
     <g id="text_7">
      <!-- 30 -->
      <g transform="translate(354.150397 389.835312) scale(0.12 -0.12)">
       <defs>
        <path id="DejaVuSans-33" d="M 2597 2516 
Q 3050 2419 3304 2112 
Q 3559 1806 3559 1356 
Q 3559 666 3084 287 
Q 2609 -91 1734 -91 
Q 1441 -91 1130 -33 
Q 819 25 488 141 
L 488 750 
Q 750 597 1062 519 
Q 1375 441 1716 441 
Q 2309 441 2620 675 
Q 2931 909 2931 1356 
Q 2931 1769 2642 2001 
Q 2353 2234 1838 2234 
L 1294 2234 
L 1294 2753 
L 1863 2753 
Q 2328 2753 2575 2939 
Q 2822 3125 2822 3475 
Q 2822 3834 2567 4026 
Q 2313 4219 1838 4219 
Q 1578 4219 1281 4162 
Q 984 4106 628 3988 
L 628 4550 
Q 988 4650 1302 4700 
Q 1616 4750 1894 4750 
Q 2613 4750 3031 4423 
Q 3450 4097 3450 3541 
Q 3450 3153 3228 2886 
Q 3006 2619 2597 2516 
z
" transform="scale(0.015625)"/>
       </defs>
       <use xlink:href="#DejaVuSans-33"/>
       <use xlink:href="#DejaVuSans-30" transform="translate(63.623047 0)"/>
      </g>
     </g>
    </g>
    <g id="xtick_8">
     <g id="line2d_15">
      <defs>
       <path id="m26d609ec25" d="M 0 0 
L 0 3 
" style="stroke: #000000; stroke-width: 0.8"/>
      </defs>
      <g>
       <use xlink:href="#m26d609ec25" x="55.074092" y="372.217187" style="stroke: #000000; stroke-width: 0.8"/>
      </g>
     </g>
    </g>
    <g id="xtick_9">
     <g id="line2d_16">
      <g>
       <use xlink:href="#m26d609ec25" x="74.861918" y="372.217187" style="stroke: #000000; stroke-width: 0.8"/>
      </g>
     </g>
    </g>
    <g id="xtick_10">
     <g id="line2d_17">
      <g>
       <use xlink:href="#m26d609ec25" x="84.755832" y="372.217187" style="stroke: #000000; stroke-width: 0.8"/>
      </g>
     </g>
    </g>
    <g id="xtick_11">
     <g id="line2d_18">
      <g>
       <use xlink:href="#m26d609ec25" x="94.649745" y="372.217187" style="stroke: #000000; stroke-width: 0.8"/>
      </g>
     </g>
    </g>
    <g id="xtick_12">
     <g id="line2d_19">
      <g>
       <use xlink:href="#m26d609ec25" x="104.543658" y="372.217187" style="stroke: #000000; stroke-width: 0.8"/>
      </g>
     </g>
    </g>
    <g id="xtick_13">
     <g id="line2d_20">
      <g>
       <use xlink:href="#m26d609ec25" x="124.331484" y="372.217187" style="stroke: #000000; stroke-width: 0.8"/>
      </g>
     </g>
    </g>
    <g id="xtick_14">
     <g id="line2d_21">
      <g>
       <use xlink:href="#m26d609ec25" x="134.225397" y="372.217187" style="stroke: #000000; stroke-width: 0.8"/>
      </g>
     </g>
    </g>
    <g id="xtick_15">
     <g id="line2d_22">
      <g>
       <use xlink:href="#m26d609ec25" x="144.11931" y="372.217187" style="stroke: #000000; stroke-width: 0.8"/>
      </g>
     </g>
    </g>
    <g id="xtick_16">
     <g id="line2d_23">
      <g>
       <use xlink:href="#m26d609ec25" x="154.013223" y="372.217187" style="stroke: #000000; stroke-width: 0.8"/>
      </g>
     </g>
    </g>
    <g id="xtick_17">
     <g id="line2d_24">
      <g>
       <use xlink:href="#m26d609ec25" x="173.801049" y="372.217187" style="stroke: #000000; stroke-width: 0.8"/>
      </g>
     </g>
    </g>
    <g id="xtick_18">
     <g id="line2d_25">
      <g>
       <use xlink:href="#m26d609ec25" x="183.694962" y="372.217187" style="stroke: #000000; stroke-width: 0.8"/>
      </g>
     </g>
    </g>
    <g id="xtick_19">
     <g id="line2d_26">
      <g>
       <use xlink:href="#m26d609ec25" x="193.588875" y="372.217187" style="stroke: #000000; stroke-width: 0.8"/>
      </g>
     </g>
    </g>
    <g id="xtick_20">
     <g id="line2d_27">
      <g>
       <use xlink:href="#m26d609ec25" x="203.482788" y="372.217187" style="stroke: #000000; stroke-width: 0.8"/>
      </g>
     </g>
    </g>
    <g id="xtick_21">
     <g id="line2d_28">
      <g>
       <use xlink:href="#m26d609ec25" x="223.270614" y="372.217187" style="stroke: #000000; stroke-width: 0.8"/>
      </g>
     </g>
    </g>
    <g id="xtick_22">
     <g id="line2d_29">
      <g>
       <use xlink:href="#m26d609ec25" x="233.164527" y="372.217187" style="stroke: #000000; stroke-width: 0.8"/>
      </g>
     </g>
    </g>
    <g id="xtick_23">
     <g id="line2d_30">
      <g>
       <use xlink:href="#m26d609ec25" x="243.05844" y="372.217187" style="stroke: #000000; stroke-width: 0.8"/>
      </g>
     </g>
    </g>
    <g id="xtick_24">
     <g id="line2d_31">
      <g>
       <use xlink:href="#m26d609ec25" x="252.952353" y="372.217187" style="stroke: #000000; stroke-width: 0.8"/>
      </g>
     </g>
    </g>
    <g id="xtick_25">
     <g id="line2d_32">
      <g>
       <use xlink:href="#m26d609ec25" x="272.740179" y="372.217187" style="stroke: #000000; stroke-width: 0.8"/>
      </g>
     </g>
    </g>
    <g id="xtick_26">
     <g id="line2d_33">
      <g>
       <use xlink:href="#m26d609ec25" x="282.634092" y="372.217187" style="stroke: #000000; stroke-width: 0.8"/>
      </g>
     </g>
    </g>
    <g id="xtick_27">
     <g id="line2d_34">
      <g>
       <use xlink:href="#m26d609ec25" x="292.528005" y="372.217187" style="stroke: #000000; stroke-width: 0.8"/>
      </g>
     </g>
    </g>
    <g id="xtick_28">
     <g id="line2d_35">
      <g>
       <use xlink:href="#m26d609ec25" x="302.421918" y="372.217187" style="stroke: #000000; stroke-width: 0.8"/>
      </g>
     </g>
    </g>
    <g id="xtick_29">
     <g id="line2d_36">
      <g>
       <use xlink:href="#m26d609ec25" x="322.209745" y="372.217187" style="stroke: #000000; stroke-width: 0.8"/>
      </g>
     </g>
    </g>
    <g id="xtick_30">
     <g id="line2d_37">
      <g>
       <use xlink:href="#m26d609ec25" x="332.103658" y="372.217187" style="stroke: #000000; stroke-width: 0.8"/>
      </g>
     </g>
    </g>
    <g id="xtick_31">
     <g id="line2d_38">
      <g>
       <use xlink:href="#m26d609ec25" x="341.997571" y="372.217187" style="stroke: #000000; stroke-width: 0.8"/>
      </g>
     </g>
    </g>
    <g id="xtick_32">
     <g id="line2d_39">
      <g>
       <use xlink:href="#m26d609ec25" x="351.891484" y="372.217187" style="stroke: #000000; stroke-width: 0.8"/>
      </g>
     </g>
    </g>
    <g id="xtick_33">
     <g id="line2d_40">
      <g>
       <use xlink:href="#m26d609ec25" x="371.67931" y="372.217187" style="stroke: #000000; stroke-width: 0.8"/>
      </g>
     </g>
    </g>
    <g id="xtick_34">
     <g id="line2d_41">
      <g>
       <use xlink:href="#m26d609ec25" x="381.573223" y="372.217187" style="stroke: #000000; stroke-width: 0.8"/>
      </g>
     </g>
    </g>
    <g id="xtick_35">
     <g id="line2d_42">
      <g>
       <use xlink:href="#m26d609ec25" x="391.467136" y="372.217187" style="stroke: #000000; stroke-width: 0.8"/>
      </g>
     </g>
    </g>
    <g id="xtick_36">
     <g id="line2d_43">
      <g>
       <use xlink:href="#m26d609ec25" x="401.361049" y="372.217187" style="stroke: #000000; stroke-width: 0.8"/>
      </g>
     </g>
    </g>
    <g id="text_8">
     <!-- X [mm] -->
     <g transform="translate(203.33556 406.96875) scale(0.14 -0.14)">
      <defs>
       <path id="DejaVuSans-58" d="M 403 4666 
L 1081 4666 
L 2241 2931 
L 3406 4666 
L 4084 4666 
L 2584 2425 
L 4184 0 
L 3506 0 
L 2194 1984 
L 872 0 
L 191 0 
L 1856 2491 
L 403 4666 
z
" transform="scale(0.015625)"/>
       <path id="DejaVuSans-20" transform="scale(0.015625)"/>
       <path id="DejaVuSans-5b" d="M 550 4863 
L 1875 4863 
L 1875 4416 
L 1125 4416 
L 1125 -397 
L 1875 -397 
L 1875 -844 
L 550 -844 
L 550 4863 
z
" transform="scale(0.015625)"/>
       <path id="DejaVuSans-6d" d="M 3328 2828 
Q 3544 3216 3844 3400 
Q 4144 3584 4550 3584 
Q 5097 3584 5394 3201 
Q 5691 2819 5691 2113 
L 5691 0 
L 5113 0 
L 5113 2094 
Q 5113 2597 4934 2840 
Q 4756 3084 4391 3084 
Q 3944 3084 3684 2787 
Q 3425 2491 3425 1978 
L 3425 0 
L 2847 0 
L 2847 2094 
Q 2847 2600 2669 2842 
Q 2491 3084 2119 3084 
Q 1678 3084 1418 2786 
Q 1159 2488 1159 1978 
L 1159 0 
L 581 0 
L 581 3500 
L 1159 3500 
L 1159 2956 
Q 1356 3278 1631 3431 
Q 1906 3584 2284 3584 
Q 2666 3584 2933 3390 
Q 3200 3197 3328 2828 
z
" transform="scale(0.015625)"/>
       <path id="DejaVuSans-5d" d="M 1947 4863 
L 1947 -844 
L 622 -844 
L 622 -397 
L 1369 -397 
L 1369 4416 
L 622 4416 
L 622 4863 
L 1947 4863 
z
" transform="scale(0.015625)"/>
      </defs>
      <use xlink:href="#DejaVuSans-58"/>
      <use xlink:href="#DejaVuSans-20" transform="translate(68.505859 0)"/>
      <use xlink:href="#DejaVuSans-5b" transform="translate(100.292969 0)"/>
      <use xlink:href="#DejaVuSans-6d" transform="translate(139.306641 0)"/>
      <use xlink:href="#DejaVuSans-6d" transform="translate(236.71875 0)"/>
      <use xlink:href="#DejaVuSans-5d" transform="translate(334.130859 0)"/>
     </g>
    </g>
   </g>
   <g id="matplotlib.axis_2">
    <g id="ytick_1">
     <g id="line2d_44">
      <path d="M 48.519375 328.189274 
L 410.389245 328.189274 
" clip-path="url(#p09b45d3ded)" style="fill: none; stroke-dasharray: 0.8,1.32; stroke-dashoffset: 0; stroke: #b0b0b0; stroke-opacity: 0.3; stroke-width: 0.8"/>
     </g>
     <g id="line2d_45">
      <defs>
       <path id="m3c525599ea" d="M 0 0 
L -5 0 
" style="stroke: #000000; stroke-width: 1.2"/>
      </defs>
      <g>
       <use xlink:href="#m3c525599ea" x="48.519375" y="328.189274" style="stroke: #000000; stroke-width: 1.2"/>
      </g>
     </g>
     <g id="text_9">
      <!-- 0 -->
      <g transform="translate(32.384375 332.748337) scale(0.12 -0.12)">
       <use xlink:href="#DejaVuSans-30"/>
      </g>
     </g>
    </g>
    <g id="ytick_2">
     <g id="line2d_46">
      <path d="M 48.519375 278.719709 
L 410.389245 278.719709 
" clip-path="url(#p09b45d3ded)" style="fill: none; stroke-dasharray: 0.8,1.32; stroke-dashoffset: 0; stroke: #b0b0b0; stroke-opacity: 0.3; stroke-width: 0.8"/>
     </g>
     <g id="line2d_47">
      <g>
       <use xlink:href="#m3c525599ea" x="48.519375" y="278.719709" style="stroke: #000000; stroke-width: 1.2"/>
      </g>
     </g>
     <g id="text_10">
      <!-- 5 -->
      <g transform="translate(32.384375 283.278772) scale(0.12 -0.12)">
       <use xlink:href="#DejaVuSans-35"/>
      </g>
     </g>
    </g>
    <g id="ytick_3">
     <g id="line2d_48">
      <path d="M 48.519375 229.250144 
L 410.389245 229.250144 
" clip-path="url(#p09b45d3ded)" style="fill: none; stroke-dasharray: 0.8,1.32; stroke-dashoffset: 0; stroke: #b0b0b0; stroke-opacity: 0.3; stroke-width: 0.8"/>
     </g>
     <g id="line2d_49">
      <g>
       <use xlink:href="#m3c525599ea" x="48.519375" y="229.250144" style="stroke: #000000; stroke-width: 1.2"/>
      </g>
     </g>
     <g id="text_11">
      <!-- 10 -->
      <g transform="translate(24.749375 233.809207) scale(0.12 -0.12)">
       <use xlink:href="#DejaVuSans-31"/>
       <use xlink:href="#DejaVuSans-30" transform="translate(63.623047 0)"/>
      </g>
     </g>
    </g>
    <g id="ytick_4">
     <g id="line2d_50">
      <path d="M 48.519375 179.780579 
L 410.389245 179.780579 
" clip-path="url(#p09b45d3ded)" style="fill: none; stroke-dasharray: 0.8,1.32; stroke-dashoffset: 0; stroke: #b0b0b0; stroke-opacity: 0.3; stroke-width: 0.8"/>
     </g>
     <g id="line2d_51">
      <g>
       <use xlink:href="#m3c525599ea" x="48.519375" y="179.780579" style="stroke: #000000; stroke-width: 1.2"/>
      </g>
     </g>
     <g id="text_12">
      <!-- 15 -->
      <g transform="translate(24.749375 184.339641) scale(0.12 -0.12)">
       <use xlink:href="#DejaVuSans-31"/>
       <use xlink:href="#DejaVuSans-35" transform="translate(63.623047 0)"/>
      </g>
     </g>
    </g>
    <g id="ytick_5">
     <g id="line2d_52">
      <path d="M 48.519375 130.311014 
L 410.389245 130.311014 
" clip-path="url(#p09b45d3ded)" style="fill: none; stroke-dasharray: 0.8,1.32; stroke-dashoffset: 0; stroke: #b0b0b0; stroke-opacity: 0.3; stroke-width: 0.8"/>
     </g>
     <g id="line2d_53">
      <g>
       <use xlink:href="#m3c525599ea" x="48.519375" y="130.311014" style="stroke: #000000; stroke-width: 1.2"/>
      </g>
     </g>
     <g id="text_13">
      <!-- 20 -->
      <g transform="translate(24.749375 134.870076) scale(0.12 -0.12)">
       <use xlink:href="#DejaVuSans-32"/>
       <use xlink:href="#DejaVuSans-30" transform="translate(63.623047 0)"/>
      </g>
     </g>
    </g>
    <g id="ytick_6">
     <g id="line2d_54">
      <path d="M 48.519375 80.841448 
L 410.389245 80.841448 
" clip-path="url(#p09b45d3ded)" style="fill: none; stroke-dasharray: 0.8,1.32; stroke-dashoffset: 0; stroke: #b0b0b0; stroke-opacity: 0.3; stroke-width: 0.8"/>
     </g>
     <g id="line2d_55">
      <g>
       <use xlink:href="#m3c525599ea" x="48.519375" y="80.841448" style="stroke: #000000; stroke-width: 1.2"/>
      </g>
     </g>
     <g id="text_14">
      <!-- 25 -->
      <g transform="translate(24.749375 85.400511) scale(0.12 -0.12)">
       <use xlink:href="#DejaVuSans-32"/>
       <use xlink:href="#DejaVuSans-35" transform="translate(63.623047 0)"/>
      </g>
     </g>
    </g>
    <g id="ytick_7">
     <g id="line2d_56">
      <path d="M 48.519375 31.371883 
L 410.389245 31.371883 
" clip-path="url(#p09b45d3ded)" style="fill: none; stroke-dasharray: 0.8,1.32; stroke-dashoffset: 0; stroke: #b0b0b0; stroke-opacity: 0.3; stroke-width: 0.8"/>
     </g>
     <g id="line2d_57">
      <g>
       <use xlink:href="#m3c525599ea" x="48.519375" y="31.371883" style="stroke: #000000; stroke-width: 1.2"/>
      </g>
     </g>
     <g id="text_15">
      <!-- 30 -->
      <g transform="translate(24.749375 35.930946) scale(0.12 -0.12)">
       <use xlink:href="#DejaVuSans-33"/>
       <use xlink:href="#DejaVuSans-30" transform="translate(63.623047 0)"/>
      </g>
     </g>
    </g>
    <g id="ytick_8">
     <g id="line2d_58">
      <defs>
       <path id="ma3f03af808" d="M 0 0 
L -3 0 
" style="stroke: #000000; stroke-width: 0.8"/>
      </defs>
      <g>
       <use xlink:href="#ma3f03af808" x="48.519375" y="367.764927" style="stroke: #000000; stroke-width: 0.8"/>
      </g>
     </g>
    </g>
    <g id="ytick_9">
     <g id="line2d_59">
      <g>
       <use xlink:href="#ma3f03af808" x="48.519375" y="357.871014" style="stroke: #000000; stroke-width: 0.8"/>
      </g>
     </g>
    </g>
    <g id="ytick_10">
     <g id="line2d_60">
      <g>
       <use xlink:href="#ma3f03af808" x="48.519375" y="347.977101" style="stroke: #000000; stroke-width: 0.8"/>
      </g>
     </g>
    </g>
    <g id="ytick_11">
     <g id="line2d_61">
      <g>
       <use xlink:href="#ma3f03af808" x="48.519375" y="338.083187" style="stroke: #000000; stroke-width: 0.8"/>
      </g>
     </g>
    </g>
    <g id="ytick_12">
     <g id="line2d_62">
      <g>
       <use xlink:href="#ma3f03af808" x="48.519375" y="318.295361" style="stroke: #000000; stroke-width: 0.8"/>
      </g>
     </g>
    </g>
    <g id="ytick_13">
     <g id="line2d_63">
      <g>
       <use xlink:href="#ma3f03af808" x="48.519375" y="308.401448" style="stroke: #000000; stroke-width: 0.8"/>
      </g>
     </g>
    </g>
    <g id="ytick_14">
     <g id="line2d_64">
      <g>
       <use xlink:href="#ma3f03af808" x="48.519375" y="298.507535" style="stroke: #000000; stroke-width: 0.8"/>
      </g>
     </g>
    </g>
    <g id="ytick_15">
     <g id="line2d_65">
      <g>
       <use xlink:href="#ma3f03af808" x="48.519375" y="288.613622" style="stroke: #000000; stroke-width: 0.8"/>
      </g>
     </g>
    </g>
    <g id="ytick_16">
     <g id="line2d_66">
      <g>
       <use xlink:href="#ma3f03af808" x="48.519375" y="268.825796" style="stroke: #000000; stroke-width: 0.8"/>
      </g>
     </g>
    </g>
    <g id="ytick_17">
     <g id="line2d_67">
      <g>
       <use xlink:href="#ma3f03af808" x="48.519375" y="258.931883" style="stroke: #000000; stroke-width: 0.8"/>
      </g>
     </g>
    </g>
    <g id="ytick_18">
     <g id="line2d_68">
      <g>
       <use xlink:href="#ma3f03af808" x="48.519375" y="249.03797" style="stroke: #000000; stroke-width: 0.8"/>
      </g>
     </g>
    </g>
    <g id="ytick_19">
     <g id="line2d_69">
      <g>
       <use xlink:href="#ma3f03af808" x="48.519375" y="239.144057" style="stroke: #000000; stroke-width: 0.8"/>
      </g>
     </g>
    </g>
    <g id="ytick_20">
     <g id="line2d_70">
      <g>
       <use xlink:href="#ma3f03af808" x="48.519375" y="219.356231" style="stroke: #000000; stroke-width: 0.8"/>
      </g>
     </g>
    </g>
    <g id="ytick_21">
     <g id="line2d_71">
      <g>
       <use xlink:href="#ma3f03af808" x="48.519375" y="209.462318" style="stroke: #000000; stroke-width: 0.8"/>
      </g>
     </g>
    </g>
    <g id="ytick_22">
     <g id="line2d_72">
      <g>
       <use xlink:href="#ma3f03af808" x="48.519375" y="199.568405" style="stroke: #000000; stroke-width: 0.8"/>
      </g>
     </g>
    </g>
    <g id="ytick_23">
     <g id="line2d_73">
      <g>
       <use xlink:href="#ma3f03af808" x="48.519375" y="189.674492" style="stroke: #000000; stroke-width: 0.8"/>
      </g>
     </g>
    </g>
    <g id="ytick_24">
     <g id="line2d_74">
      <g>
       <use xlink:href="#ma3f03af808" x="48.519375" y="169.886666" style="stroke: #000000; stroke-width: 0.8"/>
      </g>
     </g>
    </g>
    <g id="ytick_25">
     <g id="line2d_75">
      <g>
       <use xlink:href="#ma3f03af808" x="48.519375" y="159.992753" style="stroke: #000000; stroke-width: 0.8"/>
      </g>
     </g>
    </g>
    <g id="ytick_26">
     <g id="line2d_76">
      <g>
       <use xlink:href="#ma3f03af808" x="48.519375" y="150.09884" style="stroke: #000000; stroke-width: 0.8"/>
      </g>
     </g>
    </g>
    <g id="ytick_27">
     <g id="line2d_77">
      <g>
       <use xlink:href="#ma3f03af808" x="48.519375" y="140.204927" style="stroke: #000000; stroke-width: 0.8"/>
      </g>
     </g>
    </g>
    <g id="ytick_28">
     <g id="line2d_78">
      <g>
       <use xlink:href="#ma3f03af808" x="48.519375" y="120.417101" style="stroke: #000000; stroke-width: 0.8"/>
      </g>
     </g>
    </g>
    <g id="ytick_29">
     <g id="line2d_79">
      <g>
       <use xlink:href="#ma3f03af808" x="48.519375" y="110.523187" style="stroke: #000000; stroke-width: 0.8"/>
      </g>
     </g>
    </g>
    <g id="ytick_30">
     <g id="line2d_80">
      <g>
       <use xlink:href="#ma3f03af808" x="48.519375" y="100.629274" style="stroke: #000000; stroke-width: 0.8"/>
      </g>
     </g>
    </g>
    <g id="ytick_31">
     <g id="line2d_81">
      <g>
       <use xlink:href="#ma3f03af808" x="48.519375" y="90.735361" style="stroke: #000000; stroke-width: 0.8"/>
      </g>
     </g>
    </g>
    <g id="ytick_32">
     <g id="line2d_82">
      <g>
       <use xlink:href="#ma3f03af808" x="48.519375" y="70.947535" style="stroke: #000000; stroke-width: 0.8"/>
      </g>
     </g>
    </g>
    <g id="ytick_33">
     <g id="line2d_83">
      <g>
       <use xlink:href="#ma3f03af808" x="48.519375" y="61.053622" style="stroke: #000000; stroke-width: 0.8"/>
      </g>
     </g>
    </g>
    <g id="ytick_34">
     <g id="line2d_84">
      <g>
       <use xlink:href="#ma3f03af808" x="48.519375" y="51.159709" style="stroke: #000000; stroke-width: 0.8"/>
      </g>
     </g>
    </g>
    <g id="ytick_35">
     <g id="line2d_85">
      <g>
       <use xlink:href="#ma3f03af808" x="48.519375" y="41.265796" style="stroke: #000000; stroke-width: 0.8"/>
      </g>
     </g>
    </g>
    <g id="text_16">
     <!-- Y [mm] -->
     <g transform="translate(17.837812 227.146406) rotate(-90) scale(0.14 -0.14)">
      <defs>
       <path id="DejaVuSans-59" d="M -13 4666 
L 666 4666 
L 1959 2747 
L 3244 4666 
L 3922 4666 
L 2272 2222 
L 2272 0 
L 1638 0 
L 1638 2222 
L -13 4666 
z
" transform="scale(0.015625)"/>
      </defs>
      <use xlink:href="#DejaVuSans-59"/>
      <use xlink:href="#DejaVuSans-20" transform="translate(61.083984 0)"/>
      <use xlink:href="#DejaVuSans-5b" transform="translate(92.871094 0)"/>
      <use xlink:href="#DejaVuSans-6d" transform="translate(131.884766 0)"/>
      <use xlink:href="#DejaVuSans-6d" transform="translate(229.296875 0)"/>
      <use xlink:href="#DejaVuSans-5d" transform="translate(326.708984 0)"/>
     </g>
    </g>
   </g>
   <g id="patch_3">
    <path d="M 64.968005 318.295361 
L 67.505813 318.295038 
L 70.04362 318.294715 
L 72.581428 318.294313 
L 75.119235 318.293271 
L 77.657042 318.29223 
L 80.194849 318.290662 
L 82.732656 318.288822 
L 85.270462 318.286489 
L 87.808268 318.283765 
L 90.346073 318.280328 
L 92.883878 318.276488 
L 95.421681 318.271721 
L 97.959482 318.266113 
L 100.497281 318.259587 
L 103.035076 318.25191 
L 105.572868 318.24283 
L 108.110652 318.232077 
L 110.648427 318.21936 
L 113.186189 318.20413 
L 115.723929 318.185728 
L 118.261637 318.163293 
L 120.799294 318.135712 
L 123.336864 318.10108 
L 125.874282 318.05678 
L 128.411378 317.997045 
L 130.947757 317.912361 
L 133.482529 317.789124 
L 134.430448 316.002582 
L 134.533936 313.466924 
L 134.605262 310.930128 
L 134.658792 308.392887 
L 134.703232 305.85547 
L 134.741328 303.317949 
L 134.774797 300.780362 
L 134.804668 298.242731 
L 134.831746 295.705068 
L 134.856491 293.167381 
L 134.879349 290.629677 
L 134.900586 288.091958 
L 134.920499 285.554229 
L 134.939215 283.016491 
L 134.956936 280.478745 
L 134.973773 277.940993 
L 134.989825 275.403237 
L 135.005182 272.865476 
L 135.019926 270.327711 
L 135.034127 267.789944 
L 135.047849 265.252173 
L 135.061108 262.7144 
L 135.073978 260.176626 
L 135.086505 257.638849 
L 135.098688 255.101071 
L 135.110605 252.563292 
L 135.122239 250.025511 
L 135.133655 247.487729 
L 135.144854 244.949946 
L 135.155866 242.412163 
L 135.166724 239.874379 
L 135.177421 237.336594 
L 135.187998 234.798808 
L 135.198473 232.261022 
L 135.20885 229.723236 
L 135.210453 227.18545 
L 135.20028 224.647663 
L 135.190145 222.109875 
L 135.18003 219.572088 
L 135.169925 217.034301 
L 135.159845 214.496513 
L 135.149829 211.958726 
L 135.139905 209.420938 
L 135.1301 206.883149 
L 135.120462 204.34536 
L 135.111038 201.80757 
L 135.101847 199.269779 
L 135.092955 196.731987 
L 135.084428 194.194194 
L 135.076277 191.6564 
L 135.068644 189.118604 
L 135.061534 186.580807 
L 135.055082 184.043007 
L 135.049352 181.505206 
L 135.044504 178.967404 
L 135.040583 176.429599 
L 135.037904 173.891793 
L 135.036514 171.353986 
L 135.03665 168.816179 
L 135.03863 166.278372 
L 135.042805 163.740568 
L 135.04952 161.20277 
L 135.059267 158.664982 
L 135.072771 156.12721 
L 135.090811 153.589467 
L 135.114262 151.051769 
L 135.144894 148.514148 
L 135.184314 145.976649 
L 135.23531 143.439357 
L 135.29952 140.902365 
L 135.382769 138.365933 
L 135.494304 135.830598 
L 135.648073 133.297501 
L 135.855672 130.768283 
L 136.153896 128.248226 
L 136.586563 125.748026 
L 137.216641 123.290629 
L 138.114273 120.918663 
L 139.327395 118.692384 
L 140.871335 116.681737 
L 142.728655 114.956845 
L 144.839859 113.554155 
L 147.140155 112.488066 
L 149.561325 111.732759 
L 152.048532 111.232311 
L 154.566139 110.915427 
L 157.096273 110.719882 
L 159.631566 110.610094 
L 162.168881 110.562228 
L 164.706631 110.547553 
L 167.244417 110.5529 
L 169.782062 110.579328 
L 172.31923 110.634958 
L 174.855097 110.731823 
L 177.387223 110.899533 
L 179.910075 111.171648 
L 182.409619 111.606435 
L 184.856715 112.273752 
L 187.201568 113.238448 
L 189.378514 114.536996 
L 191.320078 116.166433 
L 192.960955 118.098529 
L 194.272022 120.268176 
L 195.259802 122.60361 
L 195.960065 125.041638 
L 196.443865 127.532313 
L 196.775133 130.048166 
L 197.004739 132.57543 
L 197.172848 135.10762 
L 197.294613 137.642481 
L 197.384876 140.178671 
L 197.453447 142.715547 
L 197.508319 145.252757 
L 197.550696 147.790209 
L 197.583547 150.327802 
L 197.608968 152.865481 
L 197.628408 155.403214 
L 197.64304 157.940979 
L 197.653803 160.478763 
L 197.66134 163.016559 
L 197.66618 165.554362 
L 197.668765 168.092168 
L 197.669454 170.629975 
L 197.66849 173.167782 
L 197.666091 175.705588 
L 197.662551 178.243393 
L 197.657943 180.781196 
L 197.652454 183.318998 
L 197.646198 185.856798 
L 197.639271 188.394596 
L 197.631762 190.932392 
L 197.623778 193.470187 
L 197.615331 196.00798 
L 197.606545 198.545772 
L 197.59744 201.083564 
L 197.588066 203.621354 
L 197.578489 206.159143 
L 197.568734 208.696932 
L 197.558834 211.23472 
L 197.54884 213.772508 
L 197.554135 216.310294 
L 197.564346 218.848081 
L 197.574549 221.385868 
L 197.584801 223.923655 
L 197.595171 226.461441 
L 197.605742 228.999227 
L 197.616558 231.537011 
L 197.62768 234.074794 
L 197.639252 236.612575 
L 197.651286 239.150354 
L 197.663847 241.68813 
L 197.677148 244.225903 
L 197.691159 246.763672 
L 197.706048 249.301435 
L 197.721957 251.839193 
L 197.738946 254.376943 
L 197.757292 256.914685 
L 197.777042 259.452415 
L 197.798478 261.990132 
L 197.82184 264.527832 
L 197.847284 267.065511 
L 197.875236 269.603165 
L 197.906108 272.140784 
L 197.940247 274.678362 
L 197.978208 277.215885 
L 198.020648 279.753337 
L 198.068346 282.290695 
L 198.122488 284.827924 
L 198.185037 287.364959 
L 198.258143 289.901711 
L 198.343372 292.438083 
L 198.444006 294.973889 
L 198.564601 297.50882 
L 198.71274 300.042283 
L 198.903703 302.572833 
L 199.158025 305.097767 
L 199.534978 307.606888 
L 201.719534 308.207937 
L 204.254957 308.315658 
L 206.792088 308.373547 
L 209.329658 308.406495 
L 211.867428 308.417074 
L 214.4052 308.407917 
L 216.942725 308.372169 
L 219.478765 308.279888 
L 222.00885 308.088017 
L 222.603112 305.771516 
L 222.881889 303.249248 
L 223.088283 300.71991 
L 223.245213 298.18698 
L 223.372231 295.652364 
L 223.477744 293.116758 
L 223.566675 290.580513 
L 223.642752 288.043849 
L 223.708154 285.506886 
L 223.76409 282.969697 
L 223.813474 280.43237 
L 223.857295 277.894942 
L 223.896386 275.357436 
L 223.931452 272.819871 
L 223.963084 270.282261 
L 223.991781 267.744616 
L 224.017961 265.206944 
L 224.041809 262.669248 
L 224.063708 260.131536 
L 224.083965 257.593809 
L 224.102586 255.05607 
L 224.119998 252.518322 
L 224.136121 249.980566 
L 224.151298 247.442804 
L 224.165527 244.905037 
L 224.178974 242.367265 
L 224.191779 239.82949 
L 224.203919 237.291711 
L 224.215588 234.753931 
L 224.226855 232.216148 
L 224.237735 229.678364 
L 224.248355 227.140579 
L 224.258779 224.602793 
L 224.251002 222.065006 
L 224.240899 219.527218 
L 224.230794 216.989431 
L 224.220714 214.451644 
L 224.210701 211.913856 
L 224.200778 209.376068 
L 224.190975 206.838279 
L 224.181342 204.30049 
L 224.171921 201.7627 
L 224.162733 199.224909 
L 224.15385 196.687118 
L 224.145327 194.149324 
L 224.137182 191.61153 
L 224.129562 189.073734 
L 224.122459 186.535937 
L 224.116024 183.998137 
L 224.110302 181.460336 
L 224.105475 178.922534 
L 224.10157 176.384729 
L 224.098913 173.846923 
L 224.097553 171.309116 
L 224.097723 168.771309 
L 224.099722 166.233502 
L 224.103939 163.695698 
L 224.110702 161.1579 
L 224.120504 158.620112 
L 224.134107 156.082341 
L 224.152224 153.544599 
L 224.175762 151.006901 
L 224.206549 148.469282 
L 224.246158 145.931785 
L 224.297385 143.394499 
L 224.361881 140.857514 
L 224.445482 138.321094 
L 224.557614 135.785785 
L 224.712409 133.252751 
L 224.921158 130.72363 
L 225.221402 128.203816 
L 225.657138 125.704155 
L 226.291573 123.247882 
L 227.194818 120.878017 
L 228.414817 118.655424 
L 229.967258 116.65143 
L 231.830314 114.932872 
L 233.946452 113.537574 
L 236.250692 112.479832 
L 238.674437 111.732821 
L 241.162726 111.237951 
L 243.680718 110.924093 
L 246.211067 110.731039 
L 248.746219 110.616356 
L 251.283193 110.55268 
L 253.820876 110.531697 
L 256.358661 110.537547 
L 258.896299 110.564602 
L 261.433451 110.620953 
L 263.969249 110.719569 
L 266.501224 110.889497 
L 269.023787 111.164342 
L 271.522243 111.605352 
L 273.967645 112.278794 
L 276.308964 113.252029 
L 278.481339 114.558212 
L 280.416809 116.194934 
L 282.050134 118.133465 
L 283.354551 120.307103 
L 284.33562 122.645332 
L 285.031166 125.084673 
L 285.51231 127.575865 
L 285.841254 130.092041 
L 286.069073 132.619472 
L 286.236373 135.151715 
L 286.357432 137.68661 
L 286.447323 140.222813 
L 286.515578 142.759698 
L 286.570221 145.296913 
L 286.612399 147.834368 
L 286.645087 150.371963 
L 286.670417 152.909644 
L 286.689738 155.447377 
L 286.704305 157.985142 
L 286.71501 160.522927 
L 286.722495 163.060723 
L 286.727292 165.598526 
L 286.729837 168.136332 
L 286.730493 170.674139 
L 286.729513 173.211946 
L 286.727088 175.749753 
L 286.723523 178.287557 
L 286.718905 180.825361 
L 286.713397 183.363162 
L 286.707132 185.900962 
L 286.700191 188.43876 
L 286.692675 190.976556 
L 286.68468 193.514351 
L 286.676228 196.052144 
L 286.667438 198.589936 
L 286.658326 201.127727 
L 286.648949 203.665518 
L 286.639369 206.203307 
L 286.62961 208.741096 
L 286.619709 211.278884 
L 286.609713 213.816671 
L 286.599651 216.354459 
L 286.593783 218.892246 
L 286.603986 221.430033 
L 286.614239 223.96782 
L 286.624613 226.505606 
L 286.635187 229.043391 
L 286.646007 231.581176 
L 286.657135 234.118959 
L 286.668717 236.65674 
L 286.680758 239.194519 
L 286.693333 241.732295 
L 286.706646 244.270067 
L 286.720667 246.807836 
L 286.735579 249.3456 
L 286.751501 251.883357 
L 286.768518 254.421108 
L 286.78688 256.958849 
L 286.806665 259.496579 
L 286.82812 262.034295 
L 286.851525 264.571995 
L 286.877017 267.109674 
L 286.904995 269.647327 
L 286.935924 272.184946 
L 286.970127 274.722523 
L 287.00816 277.260045 
L 287.050681 279.797495 
L 287.098469 282.334852 
L 287.152769 284.872078 
L 287.215501 287.409107 
L 287.288747 289.945856 
L 287.37422 292.48222 
L 287.475144 295.018014 
L 287.596217 297.552922 
L 287.744798 300.086359 
L 287.9367 302.616839 
L 288.192308 305.141642 
L 288.572397 307.650275 
L 290.780832 308.224763 
L 293.316272 308.332057 
L 295.853595 308.379231 
L 298.391343 308.395782 
L 300.92914 308.401111 
L 303.466913 308.391827 
L 306.004432 308.355759 
L 308.540454 308.263041 
L 311.070468 308.070262 
L 311.638086 305.727333 
L 311.915147 303.204873 
L 312.120534 300.675455 
L 312.276849 298.142487 
L 312.403496 295.607852 
L 312.508698 293.072233 
L 312.597369 290.53598 
L 312.673227 287.999309 
L 312.738443 285.462342 
L 312.794271 282.925149 
L 312.843558 280.387821 
L 312.887293 277.850391 
L 312.926307 275.312884 
L 312.961304 272.775318 
L 312.992875 270.237708 
L 313.021518 267.700062 
L 313.04765 265.162389 
L 313.071476 262.624694 
L 313.093335 260.08698 
L 313.113573 257.549254 
L 313.132161 255.011514 
L 313.149558 252.473767 
L 313.165654 249.93601 
L 313.180819 247.398248 
L 313.195027 244.860481 
L 313.208464 242.322709 
L 313.221254 239.784934 
L 313.233386 237.247155 
L 313.24505 234.709375 
L 313.256311 232.171592 
L 313.267183 229.633808 
L 313.277799 227.096023 
L 313.28822 224.558237 
L 313.298497 222.02045 
L 313.301769 219.482663 
L 313.291685 216.944876 
L 313.281718 214.407088 
L 313.272054 211.869299 
L 313.262793 209.331508 
L 313.254066 206.793716 
L 313.246095 204.255921 
L 313.23904 201.718123 
L 313.232992 199.180323 
L 313.228269 196.64252 
L 313.225061 194.104715 
L 313.223443 191.566908 
L 313.224044 189.029101 
L 313.22676 186.491295 
L 313.232255 183.953494 
L 313.240625 181.4157 
L 313.252648 178.877922 
L 313.268377 176.340163 
L 313.289012 173.80244 
L 313.314814 171.264765 
L 313.3466 168.727157 
L 313.385439 166.189648 
L 313.432807 163.652284 
L 313.489902 161.115121 
L 313.556757 158.578197 
L 313.636557 156.041648 
L 313.732623 153.505666 
L 313.848754 150.970526 
L 313.988871 148.436605 
L 314.15962 145.904567 
L 314.362735 143.374933 
L 314.613879 140.849643 
L 314.923317 138.330833 
L 315.309126 135.822691 
L 315.790612 133.331255 
L 316.397095 130.867406 
L 317.158633 128.447168 
L 318.112333 126.096239 
L 319.285845 123.847312 
L 320.696642 121.739582 
L 322.345884 119.812955 
L 324.216025 118.099937 
L 326.280883 116.627229 
L 328.498271 115.395765 
L 330.829847 114.39651 
L 333.23881 113.600728 
L 335.698615 112.978296 
L 338.189412 112.493827 
L 340.698033 112.111414 
L 343.21811 111.812433 
L 345.744825 111.576217 
L 348.275364 111.38461 
L 350.808454 111.230319 
L 353.34307 111.103511 
L 355.878736 110.999582 
L 358.415103 110.914361 
L 360.95193 110.844092 
L 363.489011 110.783686 
L 366.026246 110.729854 
L 368.563307 110.668306 
L 371.100688 110.625323 
L 373.638363 110.599398 
L 376.176092 110.579832 
L 378.713842 110.562714 
L 381.251616 110.550221 
L 383.789406 110.540758 
L 386.327197 110.531786 
L 388.865003 110.52892 
L 391.402808 110.526054 
L 393.940614 110.523187 
L 393.940614 130.311014 
L 391.398086 130.313885 
L 388.855559 130.316757 
L 386.313031 130.319628 
L 383.770518 130.328655 
L 381.228007 130.338135 
L 378.685511 130.350731 
L 376.14304 130.367881 
L 373.60059 130.38761 
L 371.058193 130.413583 
L 368.515741 130.431832 
L 365.973233 130.442249 
L 363.431029 130.482341 
L 360.888977 130.531272 
L 358.347175 130.591692 
L 355.805794 130.667743 
L 353.264998 130.761253 
L 350.725156 130.877738 
L 348.186973 131.025908 
L 345.651863 131.218915 
L 343.122273 131.474218 
L 340.605469 131.833241 
L 338.122537 132.375395 
L 335.829497 133.42014 
L 334.682295 135.67073 
L 334.001542 138.119182 
L 333.514393 140.614269 
L 333.142438 143.129323 
L 332.847298 145.654569 
L 332.605706 148.185561 
L 332.404443 150.720086 
L 332.238017 153.25715 
L 332.095672 155.795682 
L 331.973414 158.335264 
L 331.867403 160.875577 
L 331.775153 163.416428 
L 331.694574 165.957677 
L 331.623914 168.499223 
L 331.562709 171.041013 
L 331.509068 173.582975 
L 331.461813 176.125065 
L 331.42007 178.667251 
L 331.382768 181.209506 
L 331.350041 183.751825 
L 331.320582 186.294183 
L 331.294641 188.83658 
L 331.271227 191.379001 
L 331.250447 193.921446 
L 331.231705 196.463906 
L 331.21474 199.006378 
L 331.199496 201.548862 
L 331.185502 204.091353 
L 331.172603 206.633849 
L 331.160705 209.176351 
L 331.149478 211.718855 
L 331.138763 214.261362 
L 331.12843 216.80387 
L 331.118264 219.34638 
L 331.120442 221.888888 
L 331.130618 224.431397 
L 331.140727 226.973907 
L 331.150745 229.516416 
L 331.160641 232.058926 
L 331.170355 234.601437 
L 331.179866 237.143949 
L 331.189141 239.686461 
L 331.19809 242.228975 
L 331.206693 244.77149 
L 331.214901 247.314006 
L 331.222583 249.856523 
L 331.229758 252.399043 
L 331.236219 254.941564 
L 331.242001 257.484086 
L 331.24683 260.026611 
L 331.250716 262.569138 
L 331.253412 265.111665 
L 331.254719 267.654194 
L 331.254468 270.196724 
L 331.252367 272.739252 
L 331.248059 275.281778 
L 331.24111 277.824297 
L 331.230997 280.366806 
L 331.217083 282.909297 
L 331.198599 285.451759 
L 331.174322 287.994171 
L 331.142939 290.536506 
L 331.102192 293.078707 
L 331.049521 295.620687 
L 330.983154 298.162346 
L 330.89662 300.703391 
L 330.780098 303.243226 
L 330.619012 305.780596 
L 330.400888 308.313638 
L 330.08608 310.836409 
L 329.624632 313.336126 
L 328.956717 315.788032 
L 328.013643 318.14713 
L 326.743634 320.346878 
L 325.140134 322.315988 
L 323.236943 323.997265 
L 321.08193 325.341366 
L 318.750992 326.351326 
L 316.309288 327.055054 
L 313.81007 327.518253 
L 311.284495 327.808311 
L 308.748398 327.987131 
L 306.208143 328.092569 
L 303.666328 328.151714 
L 301.123995 328.181123 
L 298.581503 328.1843 
L 296.039171 328.156628 
L 293.497399 328.095475 
L 290.957337 327.985134 
L 288.421668 327.800084 
L 285.897525 327.497851 
L 283.40122 327.019516 
L 280.965465 326.295559 
L 278.644057 325.263438 
L 276.508304 323.889048 
L 274.623443 322.187543 
L 273.043034 320.199778 
L 271.798001 317.985691 
L 270.875681 315.618272 
L 270.224959 313.16161 
L 269.776446 310.659489 
L 269.46941 308.135733 
L 269.256905 305.602194 
L 269.099177 303.064611 
L 268.985168 300.524659 
L 268.90054 297.983549 
L 268.835299 295.44186 
L 268.783547 292.899861 
L 268.743553 290.357649 
L 268.712595 287.815309 
L 268.688859 285.272891 
L 268.670682 282.730427 
L 268.657036 280.187935 
L 268.647182 277.645425 
L 268.64044 275.102904 
L 268.636285 272.560379 
L 268.634341 270.01785 
L 268.634227 267.475321 
L 268.635652 264.932792 
L 268.638401 262.390264 
L 268.642383 259.847738 
L 268.647294 257.305213 
L 268.653113 254.762691 
L 268.659639 252.22017 
L 268.666842 249.677651 
L 268.674557 247.135133 
L 268.682803 244.592617 
L 268.691427 242.050102 
L 268.700409 239.507589 
L 268.709698 236.965076 
L 268.71922 234.422565 
L 268.728955 231.880054 
L 268.738858 229.337544 
L 268.748882 226.795035 
L 268.758997 224.252525 
L 268.769177 221.710016 
L 268.779383 219.167508 
L 268.775675 216.624999 
L 268.765456 214.08249 
L 268.755094 211.539982 
L 268.744534 208.997474 
L 268.733709 206.454968 
L 268.7225 203.912463 
L 268.710887 201.36996 
L 268.698793 198.82746 
L 268.686039 196.284962 
L 268.672643 193.742468 
L 268.658444 191.199979 
L 268.643311 188.657494 
L 268.627205 186.115016 
L 268.609829 183.572546 
L 268.591207 181.030085 
L 268.570975 178.487636 
L 268.549052 175.945202 
L 268.525216 173.402784 
L 268.498984 170.86039 
L 268.470213 168.318024 
L 268.438482 165.775693 
L 268.40329 163.233407 
L 268.364038 160.691181 
L 268.320021 158.149034 
L 268.270397 155.606989 
L 268.214172 153.065083 
L 268.148237 150.52341 
L 268.071451 147.982043 
L 267.981629 145.441105 
L 267.875001 142.90082 
L 267.746142 140.36157 
L 267.587173 137.824036 
L 267.376234 135.290333 
L 267.089835 132.7642 
L 266.331937 130.612259 
L 263.796349 130.430168 
L 261.255359 130.344073 
L 258.71307 130.310959 
L 256.170569 130.303374 
L 253.628083 130.315517 
L 251.085707 130.342879 
L 248.543752 130.395326 
L 246.003976 130.511318 
L 244.009112 131.33381 
L 243.648608 133.850223 
L 243.401283 136.380611 
L 243.215626 138.916295 
L 243.070707 141.454674 
L 242.952165 143.994429 
L 242.85327 146.535028 
L 242.769542 149.076175 
L 242.697587 151.617684 
L 242.636081 154.159467 
L 242.582887 156.701439 
L 242.535818 159.243532 
L 242.493957 161.785716 
L 242.456528 164.32797 
L 242.422878 166.870276 
L 242.392456 169.412623 
L 242.3648 171.955002 
L 242.339698 174.497407 
L 242.316701 177.039832 
L 242.29547 179.582273 
L 242.276036 182.124728 
L 242.257914 184.667193 
L 242.241161 187.209667 
L 242.225416 189.752147 
L 242.210765 192.294634 
L 242.196897 194.837126 
L 242.183799 197.379622 
L 242.171363 199.922121 
L 242.159448 202.464622 
L 242.148035 205.007126 
L 242.137014 207.549631 
L 242.126294 210.092138 
L 242.115825 212.634646 
L 242.105543 215.177154 
L 242.095363 217.719663 
L 242.085227 220.262172 
L 242.075065 222.804681 
L 242.07309 225.34719 
L 242.083175 227.8897 
L 242.093153 230.432209 
L 242.102979 232.97472 
L 242.112633 235.517231 
L 242.122071 238.059743 
L 242.131216 240.602255 
L 242.140062 243.144769 
L 242.148528 245.687285 
L 242.156539 248.229801 
L 242.164081 250.77232 
L 242.170969 253.31484 
L 242.177246 255.857361 
L 242.182645 258.399885 
L 242.187198 260.94241 
L 242.190647 263.484937 
L 242.192859 266.027465 
L 242.193673 268.569994 
L 242.192819 271.112524 
L 242.189915 273.655051 
L 242.184687 276.197575 
L 242.176687 278.740092 
L 242.165369 281.282596 
L 242.149844 283.825077 
L 242.129388 286.367524 
L 242.102751 288.909912 
L 242.068303 291.452207 
L 242.023635 293.994342 
L 241.965921 296.536213 
L 241.893742 299.07771 
L 241.797562 301.618406 
L 241.667278 304.157567 
L 241.488382 306.693757 
L 241.237256 309.223676 
L 240.876795 311.740136 
L 240.352622 314.227286 
L 239.589643 316.651167 
L 238.531185 318.960469 
L 237.138623 321.084281 
L 235.421844 322.955387 
L 233.417606 324.514743 
L 231.190465 325.735639 
L 228.811858 326.628353 
L 226.344149 327.236219 
L 223.831921 327.62387 
L 221.301495 327.868252 
L 218.763522 328.018579 
L 216.222392 328.101552 
L 213.680367 328.150827 
L 211.137936 328.171689 
L 208.595412 328.172522 
L 206.05305 328.147039 
L 203.51157 328.076569 
L 200.972811 327.940763 
L 198.440027 327.720951 
L 195.92387 327.35936 
L 193.445249 326.798438 
L 191.043688 325.96914 
L 188.78275 324.811412 
L 186.731174 323.314888 
L 184.950702 321.504281 
L 183.492042 319.425068 
L 182.367054 317.147302 
L 181.551776 314.740624 
L 180.981402 312.263798 
L 180.593779 309.751395 
L 180.322445 307.223562 
L 180.132365 304.68819 
L 179.992978 302.14952 
L 179.890767 299.609062 
L 179.814083 297.067698 
L 179.753913 294.525884 
L 179.70678 291.983794 
L 179.670307 289.441528 
L 179.642141 286.899156 
L 179.620525 284.356719 
L 179.60415 281.814243 
L 179.591977 279.271743 
L 179.583302 276.729229 
L 179.577544 274.186706 
L 179.574223 271.644179 
L 179.572943 269.10165 
L 179.573378 266.559121 
L 179.57531 264.016592 
L 179.578564 261.474065 
L 179.582853 258.931539 
L 179.588135 256.389015 
L 179.594203 253.846493 
L 179.600998 251.303973 
L 179.608378 248.761454 
L 179.616319 246.218938 
L 179.624676 243.676422 
L 179.633456 241.133908 
L 179.642553 238.591395 
L 179.651914 236.048883 
L 179.661536 233.506371 
L 179.671335 230.963861 
L 179.681277 228.421351 
L 179.691343 225.878842 
L 179.701488 223.336333 
L 179.711678 220.793824 
L 179.721886 218.251315 
L 179.73208 215.708806 
L 179.732352 213.166297 
L 179.721939 210.623789 
L 179.711278 208.081282 
L 179.700313 205.538776 
L 179.688993 202.996272 
L 179.677204 200.45377 
L 179.66486 197.911271 
L 179.651932 195.368774 
L 179.638228 192.826282 
L 179.623709 190.283794 
L 179.608261 187.741312 
L 179.591673 185.198837 
L 179.573919 182.656369 
L 179.554689 180.113913 
L 179.533908 177.571468 
L 179.511334 175.029039 
L 179.486597 172.48663 
L 179.459552 169.944245 
L 179.429818 167.40189 
L 179.39694 164.859573 
L 179.360344 162.317308 
L 179.319488 159.775107 
L 179.273508 157.232994 
L 179.221534 154.690997 
L 179.162141 152.149163 
L 179.092533 149.607588 
L 179.0114 147.066357 
L 178.916019 144.525622 
L 178.802242 141.985648 
L 178.663357 139.446929 
L 178.488504 136.910465 
L 178.255416 134.378713 
L 177.92624 131.85791 
L 176.402186 130.514428 
L 173.863535 130.377702 
L 171.321907 130.313151 
L 168.779518 130.288157 
L 166.236992 130.28826 
L 163.694551 130.308226 
L 161.152548 130.358349 
L 158.611495 130.444362 
L 156.073667 130.59433 
L 154.832659 132.237358 
L 154.522079 134.760553 
L 154.298183 137.29314 
L 154.130269 139.830087 
L 153.996049 142.369058 
L 153.885141 144.90916 
L 153.792163 147.449984 
L 153.713046 149.991279 
L 153.644786 152.53289 
L 153.58673 155.074755 
L 153.535827 157.616774 
L 153.49078 160.158904 
L 153.45061 162.701115 
L 153.414598 165.243389 
L 153.382137 167.785711 
L 153.35276 170.328071 
L 153.326156 172.870461 
L 153.30181 175.412873 
L 153.279415 177.955304 
L 153.258958 180.497751 
L 153.239941 183.040209 
L 153.222387 185.582678 
L 153.20596 188.125154 
L 153.190684 190.667638 
L 153.17626 193.210126 
L 153.162725 195.752619 
L 153.14987 198.295116 
L 153.137602 200.837616 
L 153.125915 203.380118 
L 153.114642 205.922623 
L 153.103716 208.465129 
L 153.093117 211.007636 
L 153.082725 213.550144 
L 153.072479 216.092653 
L 153.062323 218.635162 
L 153.052191 221.177671 
L 153.042046 223.72018 
L 153.031874 226.262689 
L 153.026033 228.805198 
L 153.036406 231.347706 
L 153.046857 233.890214 
L 153.057416 236.432721 
L 153.068096 238.975228 
L 153.078905 241.517734 
L 153.089885 244.06024 
L 153.10104 246.602745 
L 153.112389 249.145249 
L 153.12398 251.687752 
L 153.135802 254.230254 
L 153.14793 256.772754 
L 153.160346 259.315253 
L 153.173125 261.85775 
L 153.186282 264.400246 
L 153.19985 266.942739 
L 153.213914 269.485229 
L 153.228507 272.027717 
L 153.243688 274.570201 
L 153.259534 277.112681 
L 153.276131 279.655156 
L 153.293574 282.197625 
L 153.311992 284.740088 
L 153.33155 287.282542 
L 153.35238 289.824986 
L 153.374729 292.367417 
L 153.398891 294.909832 
L 153.425246 297.452224 
L 153.454219 299.994588 
L 153.486532 302.536912 
L 153.523167 305.079177 
L 153.565501 307.621353 
L 153.615971 310.16338 
L 153.680898 312.705073 
L 153.77193 315.245951 
L 153.967058 317.77933 
L 153.977463 320.320939 
L 153.802312 322.856777 
L 153.39176 325.364426 
L 152.653666 327.794588 
L 151.531469 330.072137 
L 150.015178 332.108495 
L 148.144333 333.824745 
L 145.992604 335.172473 
L 143.646382 336.144795 
L 141.188836 336.790506 
L 138.678279 337.188161 
L 136.148268 337.437079 
L 133.611019 337.599713 
L 131.070821 337.707877 
L 128.52944 337.783937 
L 125.987584 337.842295 
L 123.445454 337.887203 
L 120.903169 337.922312 
L 118.360793 337.950166 
L 115.818365 337.972826 
L 113.275903 337.991342 
L 110.733421 338.006736 
L 108.190924 338.019533 
L 105.648418 338.030356 
L 103.105905 338.039496 
L 100.563387 338.047225 
L 98.020866 338.053795 
L 95.478343 338.059441 
L 92.935819 338.064216 
L 90.393292 338.068085 
L 87.850765 338.071545 
L 85.308237 338.074275 
L 82.765709 338.076624 
L 80.22318 338.078467 
L 77.680652 338.080046 
L 75.138123 338.08109 
L 72.595593 338.082133 
L 70.053064 338.08254 
L 67.510535 338.082864 
L 64.968005 338.083187 
z
" clip-path="url(#p09b45d3ded)" style="fill: #145da0; opacity: 0.15"/>
   </g>
   <g id="line2d_86">
    <path d="M 64.968005 328.189274 
L 116.027584 328.077302 
L 129.823973 327.851483 
L 135.579193 327.559863 
L 138.637918 327.202624 
L 140.448525 326.784052 
L 141.5631 326.327588 
L 142.358913 325.786616 
L 142.924573 325.165097 
L 143.405702 324.285546 
L 143.725522 323.26693 
L 143.973393 321.742654 
L 144.111832 319.212313 
L 144.11931 304.777434 
L 144.230096 164.868946 
L 144.479843 147.210592 
L 144.814139 138.023553 
L 145.232728 132.423211 
L 145.700823 128.998067 
L 146.252528 126.620928 
L 146.879639 124.966048 
L 147.560596 123.817452 
L 148.253566 123.031417 
L 149.134193 122.351963 
L 150.287533 121.770723 
L 151.859742 121.282146 
L 154.124853 120.885234 
L 157.66362 120.588406 
L 161.966761 120.449852 
L 170.794468 120.449852 
L 176.156304 120.652105 
L 179.291143 120.975651 
L 181.345576 121.395763 
L 182.794125 121.907188 
L 183.868692 122.512333 
L 184.696023 123.217557 
L 185.351219 124.031803 
L 185.998591 125.219822 
L 186.5087 126.620928 
L 186.990963 128.625817 
L 187.424519 131.487769 
L 187.797862 135.586308 
L 188.105112 141.486516 
L 188.361923 150.992675 
L 188.550244 167.576843 
L 188.637523 198.882662 
L 188.785877 277.688326 
L 189.047974 293.249063 
L 189.408621 301.94255 
L 189.806352 306.763972 
L 190.292874 310.086645 
L 190.775136 312.091533 
L 191.402247 313.746414 
L 192.083205 314.89501 
L 192.776175 315.681045 
L 193.656802 316.360499 
L 194.810142 316.941738 
L 196.382351 317.430316 
L 198.647461 317.827228 
L 202.186229 318.124056 
L 206.489369 318.26261 
L 215.317076 318.26261 
L 220.678913 318.060357 
L 223.813752 317.736811 
L 225.868185 317.316699 
L 227.316734 316.805274 
L 228.391301 316.200129 
L 229.218632 315.494905 
L 229.873828 314.680659 
L 230.5212 313.49264 
L 231.031309 312.091533 
L 231.513571 310.086645 
L 231.947128 307.224693 
L 232.32047 303.126154 
L 232.627721 297.225946 
L 232.884531 287.719787 
L 233.072853 271.135619 
L 233.160131 239.8298 
L 233.308486 161.024136 
L 233.570582 145.463399 
L 233.931229 136.769912 
L 234.32896 131.94849 
L 234.815483 128.625817 
L 235.297745 126.620928 
L 235.924856 124.966048 
L 236.605814 123.817452 
L 237.298784 123.031417 
L 238.17941 122.351963 
L 239.33275 121.770723 
L 240.90496 121.282146 
L 243.17007 120.885234 
L 246.708837 120.588406 
L 251.011978 120.449852 
L 259.839685 120.449852 
L 265.201522 120.652105 
L 268.336361 120.975651 
L 270.390794 121.395763 
L 271.839343 121.907188 
L 272.91391 122.512333 
L 273.74124 123.217557 
L 274.396437 124.031803 
L 275.043808 125.219822 
L 275.553918 126.620928 
L 276.03618 128.625817 
L 276.469736 131.487769 
L 276.843079 135.586308 
L 277.15033 141.486516 
L 277.40714 150.992675 
L 277.595462 167.576843 
L 277.68274 198.882662 
L 277.831094 277.688326 
L 278.093191 293.249063 
L 278.453838 301.94255 
L 278.851569 306.763972 
L 279.338092 310.086645 
L 279.820354 312.091533 
L 280.447465 313.746414 
L 281.128422 314.89501 
L 281.821392 315.681045 
L 282.702019 316.360499 
L 283.855359 316.941738 
L 285.427568 317.430316 
L 287.692679 317.827228 
L 291.231446 318.124056 
L 295.534587 318.26261 
L 304.362294 318.26261 
L 309.724131 318.060357 
L 312.858969 317.736811 
L 314.913402 317.316699 
L 316.361951 316.805274 
L 317.436518 316.200129 
L 318.263849 315.494905 
L 318.919045 314.680659 
L 319.566417 313.49264 
L 320.076527 312.091533 
L 320.558789 310.086645 
L 320.992345 307.224693 
L 321.365688 303.126154 
L 321.672938 297.225946 
L 321.929749 287.719787 
L 322.11807 271.135619 
L 322.205349 239.8298 
L 322.344209 177.972022 
L 322.63598 162.277017 
L 323.053714 152.000635 
L 323.518144 145.463399 
L 324.13181 140.042777 
L 324.802569 136.169564 
L 325.486484 133.416107 
L 326.309715 131.040692 
L 327.090694 129.381988 
L 328.005043 127.915122 
L 329.083447 126.620928 
L 330.367607 125.482105 
L 331.915561 124.483166 
L 333.810434 123.61041 
L 336.175491 122.851928 
L 339.201512 122.197719 
L 343.200154 121.640029 
L 348.717426 121.174217 
L 356.804615 120.80097 
L 365.852522 120.588406 
L 379.718198 120.449852 
L 393.940614 120.417101 
L 393.940614 120.417101 
" clip-path="url(#p09b45d3ded)" style="fill: none; stroke-dasharray: 7.2,4.8; stroke-dashoffset: 0; stroke: #777777; stroke-width: 1.2"/>
   </g>
   <g id="line2d_87">
    <path d="M 64.968005 318.295361 
L 115.723929 318.185728 
L 128.411378 317.997045 
L 133.482529 317.789124 
L 134.430448 316.002582 
L 134.658792 308.392887 
L 134.879349 290.629677 
L 135.133655 247.487729 
L 135.169925 217.034301 
L 135.04952 161.20277 
L 135.184314 145.976649 
L 135.494304 135.830598 
L 135.855672 130.768283 
L 136.153896 128.248226 
L 136.586563 125.748026 
L 137.216641 123.290629 
L 138.114273 120.918663 
L 139.327395 118.692384 
L 140.871335 116.681737 
L 142.728655 114.956845 
L 144.839859 113.554155 
L 147.140155 112.488066 
L 149.561325 111.732759 
L 152.048532 111.232311 
L 154.566139 110.915427 
L 159.631566 110.610094 
L 167.244417 110.5529 
L 174.855097 110.731823 
L 179.910075 111.171648 
L 182.409619 111.606435 
L 184.856715 112.273752 
L 187.201568 113.238448 
L 189.378514 114.536996 
L 191.320078 116.166433 
L 192.960955 118.098529 
L 194.272022 120.268176 
L 195.259802 122.60361 
L 195.960065 125.041638 
L 196.443865 127.532313 
L 197.004739 132.57543 
L 197.294613 137.642481 
L 197.550696 147.790209 
L 197.66134 163.016559 
L 197.615331 196.00798 
L 197.605742 228.999227 
L 197.875236 269.603165 
L 198.185037 287.364959 
L 198.564601 297.50882 
L 198.903703 302.572833 
L 199.158025 305.097767 
L 199.534978 307.606888 
L 201.719534 308.207937 
L 206.792088 308.373547 
L 214.4052 308.407917 
L 219.478765 308.279888 
L 222.00885 308.088017 
L 222.603112 305.771516 
L 223.088283 300.71991 
L 223.477744 293.116758 
L 223.813474 280.43237 
L 224.063708 260.131536 
L 224.258779 224.602793 
L 224.134107 156.082341 
L 224.297385 143.394499 
L 224.557614 135.785785 
L 224.921158 130.72363 
L 225.221402 128.203816 
L 225.657138 125.704155 
L 226.291573 123.247882 
L 227.194818 120.878017 
L 228.414817 118.655424 
L 229.967258 116.65143 
L 231.830314 114.932872 
L 233.946452 113.537574 
L 236.250692 112.479832 
L 238.674437 111.732821 
L 241.162726 111.237951 
L 243.680718 110.924093 
L 248.746219 110.616356 
L 253.820876 110.531697 
L 261.433451 110.620953 
L 266.501224 110.889497 
L 269.023787 111.164342 
L 271.522243 111.605352 
L 273.967645 112.278794 
L 276.308964 113.252029 
L 278.481339 114.558212 
L 280.416809 116.194934 
L 282.050134 118.133465 
L 283.354551 120.307103 
L 284.33562 122.645332 
L 285.031166 125.084673 
L 285.51231 127.575865 
L 286.069073 132.619472 
L 286.357432 137.68661 
L 286.612399 147.834368 
L 286.722495 163.060723 
L 286.676228 196.052144 
L 286.646007 231.581176 
L 286.904995 269.647327 
L 287.215501 287.409107 
L 287.596217 297.552922 
L 287.9367 302.616839 
L 288.192308 305.141642 
L 288.572397 307.650275 
L 290.780832 308.224763 
L 295.853595 308.379231 
L 306.004432 308.355759 
L 311.070468 308.070262 
L 311.638086 305.727333 
L 312.120534 300.675455 
L 312.508698 293.072233 
L 312.843558 280.387821 
L 313.093335 260.08698 
L 313.298497 222.02045 
L 313.225061 194.104715 
L 313.314814 171.264765 
L 313.556757 158.578197 
L 313.848754 150.970526 
L 314.362735 143.374933 
L 314.923317 138.330833 
L 315.790612 133.331255 
L 316.397095 130.867406 
L 317.158633 128.447168 
L 318.112333 126.096239 
L 319.285845 123.847312 
L 320.696642 121.739582 
L 322.345884 119.812955 
L 324.216025 118.099937 
L 326.280883 116.627229 
L 328.498271 115.395765 
L 330.829847 114.39651 
L 333.23881 113.600728 
L 335.698615 112.978296 
L 340.698033 112.111414 
L 345.744825 111.576217 
L 353.34307 111.103511 
L 363.489011 110.783686 
L 378.713842 110.562714 
L 393.940614 110.523187 
L 393.940614 130.311014 
L 365.973233 130.442249 
L 355.805794 130.667743 
L 348.186973 131.025908 
L 343.122273 131.474218 
L 340.605469 131.833241 
L 338.122537 132.375395 
L 335.829497 133.42014 
L 334.682295 135.67073 
L 334.001542 138.119182 
L 333.514393 140.614269 
L 332.847298 145.654569 
L 332.404443 150.720086 
L 331.973414 158.335264 
L 331.623914 168.499223 
L 331.350041 183.751825 
L 331.160705 209.176351 
L 331.160641 232.058926 
L 331.24111 277.824297 
L 331.102192 293.078707 
L 330.89662 300.703391 
L 330.619012 305.780596 
L 330.08608 310.836409 
L 329.624632 313.336126 
L 328.956717 315.788032 
L 328.013643 318.14713 
L 326.743634 320.346878 
L 325.140134 322.315988 
L 323.236943 323.997265 
L 321.08193 325.341366 
L 318.750992 326.351326 
L 316.309288 327.055054 
L 313.81007 327.518253 
L 311.284495 327.808311 
L 306.208143 328.092569 
L 298.581503 328.1843 
L 293.497399 328.095475 
L 288.421668 327.800084 
L 285.897525 327.497851 
L 283.40122 327.019516 
L 280.965465 326.295559 
L 278.644057 325.263438 
L 276.508304 323.889048 
L 274.623443 322.187543 
L 273.043034 320.199778 
L 271.798001 317.985691 
L 270.875681 315.618272 
L 270.224959 313.16161 
L 269.776446 310.659489 
L 269.256905 305.602194 
L 268.985168 300.524659 
L 268.743553 290.357649 
L 268.636285 272.560379 
L 268.709698 236.965076 
L 268.7225 203.912463 
L 268.438482 165.775693 
L 268.148237 150.52341 
L 267.746142 140.36157 
L 267.376234 135.290333 
L 267.089835 132.7642 
L 266.331937 130.612259 
L 261.255359 130.344073 
L 253.628083 130.315517 
L 248.543752 130.395326 
L 246.003976 130.511318 
L 244.009112 131.33381 
L 243.648608 133.850223 
L 243.215626 138.916295 
L 242.85327 146.535028 
L 242.535818 159.243532 
L 242.29547 179.582273 
L 242.075065 222.804681 
L 242.164081 250.77232 
L 242.149844 283.825077 
L 241.965921 296.536213 
L 241.667278 304.157567 
L 241.237256 309.223676 
L 240.876795 311.740136 
L 240.352622 314.227286 
L 239.589643 316.651167 
L 238.531185 318.960469 
L 237.138623 321.084281 
L 235.421844 322.955387 
L 233.417606 324.514743 
L 231.190465 325.735639 
L 228.811858 326.628353 
L 226.344149 327.236219 
L 223.831921 327.62387 
L 218.763522 328.018579 
L 211.137936 328.171689 
L 203.51157 328.076569 
L 198.440027 327.720951 
L 195.92387 327.35936 
L 193.445249 326.798438 
L 191.043688 325.96914 
L 188.78275 324.811412 
L 186.731174 323.314888 
L 184.950702 321.504281 
L 183.492042 319.425068 
L 182.367054 317.147302 
L 181.551776 314.740624 
L 180.981402 312.263798 
L 180.593779 309.751395 
L 180.132365 304.68819 
L 179.814083 297.067698 
L 179.620525 284.356719 
L 179.578564 261.474065 
L 179.608261 187.741312 
L 179.319488 159.775107 
L 179.0114 147.066357 
L 178.663357 139.446929 
L 178.255416 134.378713 
L 177.92624 131.85791 
L 176.402186 130.514428 
L 171.321907 130.313151 
L 163.694551 130.308226 
L 158.611495 130.444362 
L 156.073667 130.59433 
L 154.832659 132.237358 
L 154.298183 137.29314 
L 153.885141 144.90916 
L 153.58673 155.074755 
L 153.326156 172.870461 
L 153.114642 205.922623 
L 153.068096 238.975228 
L 153.425246 297.452224 
L 153.680898 312.705073 
L 153.977463 320.320939 
L 153.802312 322.856777 
L 153.39176 325.364426 
L 152.653666 327.794588 
L 151.531469 330.072137 
L 150.015178 332.108495 
L 148.144333 333.824745 
L 145.992604 335.172473 
L 143.646382 336.144795 
L 141.188836 336.790506 
L 138.678279 337.188161 
L 133.611019 337.599713 
L 125.987584 337.842295 
L 110.733421 338.006736 
L 75.138123 338.08109 
L 64.968005 338.083187 
L 64.968005 318.295361 
L 64.968005 318.295361 
" clip-path="url(#p09b45d3ded)" style="fill: none; stroke: #145da0; stroke-width: 2.16; stroke-linecap: square"/>
   </g>
   <g id="patch_4">
    <path d="M 48.519375 372.217187 
L 48.519375 30.877187 
" style="fill: none; stroke: #333333; stroke-width: 1.2; stroke-linejoin: miter; stroke-linecap: square"/>
   </g>
   <g id="patch_5">
    <path d="M 410.389245 372.217187 
L 410.389245 30.877187 
" style="fill: none; stroke: #333333; stroke-width: 1.2; stroke-linejoin: miter; stroke-linecap: square"/>
   </g>
   <g id="patch_6">
    <path d="M 48.519375 372.217187 
L 410.389245 372.217187 
" style="fill: none; stroke: #333333; stroke-width: 1.2; stroke-linejoin: miter; stroke-linecap: square"/>
   </g>
   <g id="patch_7">
    <path d="M 48.519375 30.877187 
L 410.389245 30.877187 
" style="fill: none; stroke: #333333; stroke-width: 1.2; stroke-linejoin: miter; stroke-linecap: square"/>
   </g>
   <g id="text_17">
    <!-- B: 2D Thickness Offset -->
    <g transform="translate(48.519375 20.877187) scale(0.18 -0.18)">
     <defs>
      <path id="DejaVuSans-Bold-42" d="M 2456 2859 
Q 2741 2859 2887 2984 
Q 3034 3109 3034 3353 
Q 3034 3594 2887 3720 
Q 2741 3847 2456 3847 
L 1791 3847 
L 1791 2859 
L 2456 2859 
z
M 2497 819 
Q 2859 819 3042 972 
Q 3225 1125 3225 1434 
Q 3225 1738 3044 1889 
Q 2863 2041 2497 2041 
L 1791 2041 
L 1791 819 
L 2497 819 
z
M 3616 2497 
Q 4003 2384 4215 2081 
Q 4428 1778 4428 1338 
Q 4428 663 3972 331 
Q 3516 0 2584 0 
L 588 0 
L 588 4666 
L 2394 4666 
Q 3366 4666 3802 4372 
Q 4238 4078 4238 3431 
Q 4238 3091 4078 2852 
Q 3919 2613 3616 2497 
z
" transform="scale(0.015625)"/>
      <path id="DejaVuSans-Bold-3a" d="M 716 3500 
L 1844 3500 
L 1844 2291 
L 716 2291 
L 716 3500 
z
M 716 1209 
L 1844 1209 
L 1844 0 
L 716 0 
L 716 1209 
z
" transform="scale(0.015625)"/>
      <path id="DejaVuSans-Bold-20" transform="scale(0.015625)"/>
      <path id="DejaVuSans-Bold-32" d="M 1844 884 
L 3897 884 
L 3897 0 
L 506 0 
L 506 884 
L 2209 2388 
Q 2438 2594 2547 2791 
Q 2656 2988 2656 3200 
Q 2656 3528 2436 3728 
Q 2216 3928 1850 3928 
Q 1569 3928 1234 3808 
Q 900 3688 519 3450 
L 519 4475 
Q 925 4609 1322 4679 
Q 1719 4750 2100 4750 
Q 2938 4750 3402 4381 
Q 3866 4013 3866 3353 
Q 3866 2972 3669 2642 
Q 3472 2313 2841 1759 
L 1844 884 
z
" transform="scale(0.015625)"/>
      <path id="DejaVuSans-Bold-44" d="M 1791 3756 
L 1791 909 
L 2222 909 
Q 2959 909 3348 1275 
Q 3738 1641 3738 2338 
Q 3738 3031 3350 3393 
Q 2963 3756 2222 3756 
L 1791 3756 
z
M 588 4666 
L 1856 4666 
Q 2919 4666 3439 4514 
Q 3959 4363 4331 4000 
Q 4659 3684 4818 3271 
Q 4978 2859 4978 2338 
Q 4978 1809 4818 1395 
Q 4659 981 4331 666 
Q 3956 303 3431 151 
Q 2906 0 1856 0 
L 588 0 
L 588 4666 
z
" transform="scale(0.015625)"/>
      <path id="DejaVuSans-Bold-54" d="M 31 4666 
L 4331 4666 
L 4331 3756 
L 2784 3756 
L 2784 0 
L 1581 0 
L 1581 3756 
L 31 3756 
L 31 4666 
z
" transform="scale(0.015625)"/>
      <path id="DejaVuSans-Bold-68" d="M 4056 2131 
L 4056 0 
L 2931 0 
L 2931 347 
L 2931 1625 
Q 2931 2084 2911 2256 
Q 2891 2428 2841 2509 
Q 2775 2619 2662 2680 
Q 2550 2741 2406 2741 
Q 2056 2741 1856 2470 
Q 1656 2200 1656 1722 
L 1656 0 
L 538 0 
L 538 4863 
L 1656 4863 
L 1656 2988 
Q 1909 3294 2193 3439 
Q 2478 3584 2822 3584 
Q 3428 3584 3742 3212 
Q 4056 2841 4056 2131 
z
" transform="scale(0.015625)"/>
      <path id="DejaVuSans-Bold-69" d="M 538 3500 
L 1656 3500 
L 1656 0 
L 538 0 
L 538 3500 
z
M 538 4863 
L 1656 4863 
L 1656 3950 
L 538 3950 
L 538 4863 
z
" transform="scale(0.015625)"/>
      <path id="DejaVuSans-Bold-63" d="M 3366 3391 
L 3366 2478 
Q 3138 2634 2908 2709 
Q 2678 2784 2431 2784 
Q 1963 2784 1702 2511 
Q 1441 2238 1441 1747 
Q 1441 1256 1702 982 
Q 1963 709 2431 709 
Q 2694 709 2930 787 
Q 3166 866 3366 1019 
L 3366 103 
Q 3103 6 2833 -42 
Q 2563 -91 2291 -91 
Q 1344 -91 809 395 
Q 275 881 275 1747 
Q 275 2613 809 3098 
Q 1344 3584 2291 3584 
Q 2566 3584 2833 3536 
Q 3100 3488 3366 3391 
z
" transform="scale(0.015625)"/>
      <path id="DejaVuSans-Bold-6b" d="M 538 4863 
L 1656 4863 
L 1656 2216 
L 2944 3500 
L 4244 3500 
L 2534 1894 
L 4378 0 
L 3022 0 
L 1656 1459 
L 1656 0 
L 538 0 
L 538 4863 
z
" transform="scale(0.015625)"/>
      <path id="DejaVuSans-Bold-6e" d="M 4056 2131 
L 4056 0 
L 2931 0 
L 2931 347 
L 2931 1631 
Q 2931 2084 2911 2256 
Q 2891 2428 2841 2509 
Q 2775 2619 2662 2680 
Q 2550 2741 2406 2741 
Q 2056 2741 1856 2470 
Q 1656 2200 1656 1722 
L 1656 0 
L 538 0 
L 538 3500 
L 1656 3500 
L 1656 2988 
Q 1909 3294 2193 3439 
Q 2478 3584 2822 3584 
Q 3428 3584 3742 3212 
Q 4056 2841 4056 2131 
z
" transform="scale(0.015625)"/>
      <path id="DejaVuSans-Bold-65" d="M 4031 1759 
L 4031 1441 
L 1416 1441 
Q 1456 1047 1700 850 
Q 1944 653 2381 653 
Q 2734 653 3104 758 
Q 3475 863 3866 1075 
L 3866 213 
Q 3469 63 3072 -14 
Q 2675 -91 2278 -91 
Q 1328 -91 801 392 
Q 275 875 275 1747 
Q 275 2603 792 3093 
Q 1309 3584 2216 3584 
Q 3041 3584 3536 3087 
Q 4031 2591 4031 1759 
z
M 2881 2131 
Q 2881 2450 2695 2645 
Q 2509 2841 2209 2841 
Q 1884 2841 1681 2658 
Q 1478 2475 1428 2131 
L 2881 2131 
z
" transform="scale(0.015625)"/>
      <path id="DejaVuSans-Bold-73" d="M 3272 3391 
L 3272 2541 
Q 2913 2691 2578 2766 
Q 2244 2841 1947 2841 
Q 1628 2841 1473 2761 
Q 1319 2681 1319 2516 
Q 1319 2381 1436 2309 
Q 1553 2238 1856 2203 
L 2053 2175 
Q 2913 2066 3209 1816 
Q 3506 1566 3506 1031 
Q 3506 472 3093 190 
Q 2681 -91 1863 -91 
Q 1516 -91 1145 -36 
Q 775 19 384 128 
L 384 978 
Q 719 816 1070 734 
Q 1422 653 1784 653 
Q 2113 653 2278 743 
Q 2444 834 2444 1013 
Q 2444 1163 2330 1236 
Q 2216 1309 1875 1350 
L 1678 1375 
Q 931 1469 631 1722 
Q 331 1975 331 2491 
Q 331 3047 712 3315 
Q 1094 3584 1881 3584 
Q 2191 3584 2531 3537 
Q 2872 3491 3272 3391 
z
" transform="scale(0.015625)"/>
      <path id="DejaVuSans-Bold-4f" d="M 2719 3878 
Q 2169 3878 1866 3472 
Q 1563 3066 1563 2328 
Q 1563 1594 1866 1187 
Q 2169 781 2719 781 
Q 3272 781 3575 1187 
Q 3878 1594 3878 2328 
Q 3878 3066 3575 3472 
Q 3272 3878 2719 3878 
z
M 2719 4750 
Q 3844 4750 4481 4106 
Q 5119 3463 5119 2328 
Q 5119 1197 4481 553 
Q 3844 -91 2719 -91 
Q 1597 -91 958 553 
Q 319 1197 319 2328 
Q 319 3463 958 4106 
Q 1597 4750 2719 4750 
z
" transform="scale(0.015625)"/>
      <path id="DejaVuSans-Bold-66" d="M 2841 4863 
L 2841 4128 
L 2222 4128 
Q 1984 4128 1890 4042 
Q 1797 3956 1797 3744 
L 1797 3500 
L 2753 3500 
L 2753 2700 
L 1797 2700 
L 1797 0 
L 678 0 
L 678 2700 
L 122 2700 
L 122 3500 
L 678 3500 
L 678 3744 
Q 678 4316 997 4589 
Q 1316 4863 1984 4863 
L 2841 4863 
z
" transform="scale(0.015625)"/>
      <path id="DejaVuSans-Bold-74" d="M 1759 4494 
L 1759 3500 
L 2913 3500 
L 2913 2700 
L 1759 2700 
L 1759 1216 
Q 1759 972 1856 886 
Q 1953 800 2241 800 
L 2816 800 
L 2816 0 
L 1856 0 
Q 1194 0 917 276 
Q 641 553 641 1216 
L 641 2700 
L 84 2700 
L 84 3500 
L 641 3500 
L 641 4494 
L 1759 4494 
z
" transform="scale(0.015625)"/>
     </defs>
     <use xlink:href="#DejaVuSans-Bold-42"/>
     <use xlink:href="#DejaVuSans-Bold-3a" transform="translate(76.220703 0)"/>
     <use xlink:href="#DejaVuSans-Bold-20" transform="translate(116.210938 0)"/>
     <use xlink:href="#DejaVuSans-Bold-32" transform="translate(151.025391 0)"/>
     <use xlink:href="#DejaVuSans-Bold-44" transform="translate(220.605469 0)"/>
     <use xlink:href="#DejaVuSans-Bold-20" transform="translate(303.613281 0)"/>
     <use xlink:href="#DejaVuSans-Bold-54" transform="translate(338.427734 0)"/>
     <use xlink:href="#DejaVuSans-Bold-68" transform="translate(406.640625 0)"/>
     <use xlink:href="#DejaVuSans-Bold-69" transform="translate(477.832031 0)"/>
     <use xlink:href="#DejaVuSans-Bold-63" transform="translate(512.109375 0)"/>
     <use xlink:href="#DejaVuSans-Bold-6b" transform="translate(571.386719 0)"/>
     <use xlink:href="#DejaVuSans-Bold-6e" transform="translate(637.890625 0)"/>
     <use xlink:href="#DejaVuSans-Bold-65" transform="translate(709.082031 0)"/>
     <use xlink:href="#DejaVuSans-Bold-73" transform="translate(776.904297 0)"/>
     <use xlink:href="#DejaVuSans-Bold-73" transform="translate(836.425781 0)"/>
     <use xlink:href="#DejaVuSans-Bold-20" transform="translate(895.947266 0)"/>
     <use xlink:href="#DejaVuSans-Bold-4f" transform="translate(930.761719 0)"/>
     <use xlink:href="#DejaVuSans-Bold-66" transform="translate(1015.771484 0)"/>
     <use xlink:href="#DejaVuSans-Bold-66" transform="translate(1059.277344 0)"/>
     <use xlink:href="#DejaVuSans-Bold-73" transform="translate(1102.783203 0)"/>
     <use xlink:href="#DejaVuSans-Bold-65" transform="translate(1162.304688 0)"/>
     <use xlink:href="#DejaVuSans-Bold-74" transform="translate(1230.126953 0)"/>
    </g>
   </g>
   <g id="legend_1">
    <g id="patch_8">
     <path d="M 213.740182 77.469062 
L 401.589245 77.469062 
Q 403.789245 77.469062 403.789245 75.269062 
L 403.789245 39.677187 
Q 403.789245 37.477187 401.589245 37.477187 
L 213.740182 37.477187 
Q 211.540182 37.477187 211.540182 39.677187 
L 211.540182 75.269062 
Q 211.540182 77.469062 213.740182 77.469062 
z
" style="fill: #ffffff; opacity: 0.95; stroke: #808080; stroke-width: 0.8; stroke-linejoin: miter"/>
    </g>
    <g id="line2d_88">
     <path d="M 218.140182 48.585469 
L 229.140182 48.585469 
L 240.140182 48.585469 
" style="fill: none; stroke-dasharray: 7.2,4.8; stroke-dashoffset: 0; stroke: #777777; stroke-width: 1.2"/>
    </g>
    <g id="text_18">
     <!-- Baseline - 1D Curve -->
     <g transform="translate(245.640182 52.435469) scale(0.11 -0.11)">
      <defs>
       <path id="DejaVuSans-42" d="M 1259 2228 
L 1259 519 
L 2272 519 
Q 2781 519 3026 730 
Q 3272 941 3272 1375 
Q 3272 1813 3026 2020 
Q 2781 2228 2272 2228 
L 1259 2228 
z
M 1259 4147 
L 1259 2741 
L 2194 2741 
Q 2656 2741 2882 2914 
Q 3109 3088 3109 3444 
Q 3109 3797 2882 3972 
Q 2656 4147 2194 4147 
L 1259 4147 
z
M 628 4666 
L 2241 4666 
Q 2963 4666 3353 4366 
Q 3744 4066 3744 3513 
Q 3744 3084 3544 2831 
Q 3344 2578 2956 2516 
Q 3422 2416 3680 2098 
Q 3938 1781 3938 1306 
Q 3938 681 3513 340 
Q 3088 0 2303 0 
L 628 0 
L 628 4666 
z
" transform="scale(0.015625)"/>
       <path id="DejaVuSans-61" d="M 2194 1759 
Q 1497 1759 1228 1600 
Q 959 1441 959 1056 
Q 959 750 1161 570 
Q 1363 391 1709 391 
Q 2188 391 2477 730 
Q 2766 1069 2766 1631 
L 2766 1759 
L 2194 1759 
z
M 3341 1997 
L 3341 0 
L 2766 0 
L 2766 531 
Q 2569 213 2275 61 
Q 1981 -91 1556 -91 
Q 1019 -91 701 211 
Q 384 513 384 1019 
Q 384 1609 779 1909 
Q 1175 2209 1959 2209 
L 2766 2209 
L 2766 2266 
Q 2766 2663 2505 2880 
Q 2244 3097 1772 3097 
Q 1472 3097 1187 3025 
Q 903 2953 641 2809 
L 641 3341 
Q 956 3463 1253 3523 
Q 1550 3584 1831 3584 
Q 2591 3584 2966 3190 
Q 3341 2797 3341 1997 
z
" transform="scale(0.015625)"/>
       <path id="DejaVuSans-73" d="M 2834 3397 
L 2834 2853 
Q 2591 2978 2328 3040 
Q 2066 3103 1784 3103 
Q 1356 3103 1142 2972 
Q 928 2841 928 2578 
Q 928 2378 1081 2264 
Q 1234 2150 1697 2047 
L 1894 2003 
Q 2506 1872 2764 1633 
Q 3022 1394 3022 966 
Q 3022 478 2636 193 
Q 2250 -91 1575 -91 
Q 1294 -91 989 -36 
Q 684 19 347 128 
L 347 722 
Q 666 556 975 473 
Q 1284 391 1588 391 
Q 1994 391 2212 530 
Q 2431 669 2431 922 
Q 2431 1156 2273 1281 
Q 2116 1406 1581 1522 
L 1381 1569 
Q 847 1681 609 1914 
Q 372 2147 372 2553 
Q 372 3047 722 3315 
Q 1072 3584 1716 3584 
Q 2034 3584 2315 3537 
Q 2597 3491 2834 3397 
z
" transform="scale(0.015625)"/>
       <path id="DejaVuSans-65" d="M 3597 1894 
L 3597 1613 
L 953 1613 
Q 991 1019 1311 708 
Q 1631 397 2203 397 
Q 2534 397 2845 478 
Q 3156 559 3463 722 
L 3463 178 
Q 3153 47 2828 -22 
Q 2503 -91 2169 -91 
Q 1331 -91 842 396 
Q 353 884 353 1716 
Q 353 2575 817 3079 
Q 1281 3584 2069 3584 
Q 2775 3584 3186 3129 
Q 3597 2675 3597 1894 
z
M 3022 2063 
Q 3016 2534 2758 2815 
Q 2500 3097 2075 3097 
Q 1594 3097 1305 2825 
Q 1016 2553 972 2059 
L 3022 2063 
z
" transform="scale(0.015625)"/>
       <path id="DejaVuSans-6c" d="M 603 4863 
L 1178 4863 
L 1178 0 
L 603 0 
L 603 4863 
z
" transform="scale(0.015625)"/>
       <path id="DejaVuSans-69" d="M 603 3500 
L 1178 3500 
L 1178 0 
L 603 0 
L 603 3500 
z
M 603 4863 
L 1178 4863 
L 1178 4134 
L 603 4134 
L 603 4863 
z
" transform="scale(0.015625)"/>
       <path id="DejaVuSans-6e" d="M 3513 2113 
L 3513 0 
L 2938 0 
L 2938 2094 
Q 2938 2591 2744 2837 
Q 2550 3084 2163 3084 
Q 1697 3084 1428 2787 
Q 1159 2491 1159 1978 
L 1159 0 
L 581 0 
L 581 3500 
L 1159 3500 
L 1159 2956 
Q 1366 3272 1645 3428 
Q 1925 3584 2291 3584 
Q 2894 3584 3203 3211 
Q 3513 2838 3513 2113 
z
" transform="scale(0.015625)"/>
       <path id="DejaVuSans-2d" d="M 313 2009 
L 1997 2009 
L 1997 1497 
L 313 1497 
L 313 2009 
z
" transform="scale(0.015625)"/>
       <path id="DejaVuSans-44" d="M 1259 4147 
L 1259 519 
L 2022 519 
Q 2988 519 3436 956 
Q 3884 1394 3884 2338 
Q 3884 3275 3436 3711 
Q 2988 4147 2022 4147 
L 1259 4147 
z
M 628 4666 
L 1925 4666 
Q 3281 4666 3915 4102 
Q 4550 3538 4550 2338 
Q 4550 1131 3912 565 
Q 3275 0 1925 0 
L 628 0 
L 628 4666 
z
" transform="scale(0.015625)"/>
       <path id="DejaVuSans-43" d="M 4122 4306 
L 4122 3641 
Q 3803 3938 3442 4084 
Q 3081 4231 2675 4231 
Q 1875 4231 1450 3742 
Q 1025 3253 1025 2328 
Q 1025 1406 1450 917 
Q 1875 428 2675 428 
Q 3081 428 3442 575 
Q 3803 722 4122 1019 
L 4122 359 
Q 3791 134 3420 21 
Q 3050 -91 2638 -91 
Q 1578 -91 968 557 
Q 359 1206 359 2328 
Q 359 3453 968 4101 
Q 1578 4750 2638 4750 
Q 3056 4750 3426 4639 
Q 3797 4528 4122 4306 
z
" transform="scale(0.015625)"/>
       <path id="DejaVuSans-75" d="M 544 1381 
L 544 3500 
L 1119 3500 
L 1119 1403 
Q 1119 906 1312 657 
Q 1506 409 1894 409 
Q 2359 409 2629 706 
Q 2900 1003 2900 1516 
L 2900 3500 
L 3475 3500 
L 3475 0 
L 2900 0 
L 2900 538 
Q 2691 219 2414 64 
Q 2138 -91 1772 -91 
Q 1169 -91 856 284 
Q 544 659 544 1381 
z
M 1991 3584 
L 1991 3584 
z
" transform="scale(0.015625)"/>
       <path id="DejaVuSans-72" d="M 2631 2963 
Q 2534 3019 2420 3045 
Q 2306 3072 2169 3072 
Q 1681 3072 1420 2755 
Q 1159 2438 1159 1844 
L 1159 0 
L 581 0 
L 581 3500 
L 1159 3500 
L 1159 2956 
Q 1341 3275 1631 3429 
Q 1922 3584 2338 3584 
Q 2397 3584 2469 3576 
Q 2541 3569 2628 3553 
L 2631 2963 
z
" transform="scale(0.015625)"/>
       <path id="DejaVuSans-76" d="M 191 3500 
L 800 3500 
L 1894 563 
L 2988 3500 
L 3597 3500 
L 2284 0 
L 1503 0 
L 191 3500 
z
" transform="scale(0.015625)"/>
      </defs>
      <use xlink:href="#DejaVuSans-42"/>
      <use xlink:href="#DejaVuSans-61" transform="translate(68.603516 0)"/>
      <use xlink:href="#DejaVuSans-73" transform="translate(129.882812 0)"/>
      <use xlink:href="#DejaVuSans-65" transform="translate(181.982422 0)"/>
      <use xlink:href="#DejaVuSans-6c" transform="translate(243.505859 0)"/>
      <use xlink:href="#DejaVuSans-69" transform="translate(271.289062 0)"/>
      <use xlink:href="#DejaVuSans-6e" transform="translate(299.072266 0)"/>
      <use xlink:href="#DejaVuSans-65" transform="translate(362.451172 0)"/>
      <use xlink:href="#DejaVuSans-20" transform="translate(423.974609 0)"/>
      <use xlink:href="#DejaVuSans-2d" transform="translate(455.761719 0)"/>
      <use xlink:href="#DejaVuSans-20" transform="translate(491.845703 0)"/>
      <use xlink:href="#DejaVuSans-31" transform="translate(523.632812 0)"/>
      <use xlink:href="#DejaVuSans-44" transform="translate(587.255859 0)"/>
      <use xlink:href="#DejaVuSans-20" transform="translate(664.257812 0)"/>
      <use xlink:href="#DejaVuSans-43" transform="translate(696.044922 0)"/>
      <use xlink:href="#DejaVuSans-75" transform="translate(765.869141 0)"/>
      <use xlink:href="#DejaVuSans-72" transform="translate(829.248047 0)"/>
      <use xlink:href="#DejaVuSans-76" transform="translate(870.361328 0)"/>
      <use xlink:href="#DejaVuSans-65" transform="translate(929.541016 0)"/>
     </g>
    </g>
    <g id="line2d_89">
     <path d="M 218.140182 64.731406 
L 229.140182 64.731406 
L 240.140182 64.731406 
" style="fill: none; stroke: #145da0; stroke-width: 2.16; stroke-linecap: square"/>
    </g>
    <g id="text_19">
     <!-- Baseline - 2D Cross-Section -->
     <g transform="translate(245.640182 68.581406) scale(0.11 -0.11)">
      <defs>
       <path id="DejaVuSans-6f" d="M 1959 3097 
Q 1497 3097 1228 2736 
Q 959 2375 959 1747 
Q 959 1119 1226 758 
Q 1494 397 1959 397 
Q 2419 397 2687 759 
Q 2956 1122 2956 1747 
Q 2956 2369 2687 2733 
Q 2419 3097 1959 3097 
z
M 1959 3584 
Q 2709 3584 3137 3096 
Q 3566 2609 3566 1747 
Q 3566 888 3137 398 
Q 2709 -91 1959 -91 
Q 1206 -91 779 398 
Q 353 888 353 1747 
Q 353 2609 779 3096 
Q 1206 3584 1959 3584 
z
" transform="scale(0.015625)"/>
       <path id="DejaVuSans-53" d="M 3425 4513 
L 3425 3897 
Q 3066 4069 2747 4153 
Q 2428 4238 2131 4238 
Q 1616 4238 1336 4038 
Q 1056 3838 1056 3469 
Q 1056 3159 1242 3001 
Q 1428 2844 1947 2747 
L 2328 2669 
Q 3034 2534 3370 2195 
Q 3706 1856 3706 1288 
Q 3706 609 3251 259 
Q 2797 -91 1919 -91 
Q 1588 -91 1214 -16 
Q 841 59 441 206 
L 441 856 
Q 825 641 1194 531 
Q 1563 422 1919 422 
Q 2459 422 2753 634 
Q 3047 847 3047 1241 
Q 3047 1584 2836 1778 
Q 2625 1972 2144 2069 
L 1759 2144 
Q 1053 2284 737 2584 
Q 422 2884 422 3419 
Q 422 4038 858 4394 
Q 1294 4750 2059 4750 
Q 2388 4750 2728 4690 
Q 3069 4631 3425 4513 
z
" transform="scale(0.015625)"/>
       <path id="DejaVuSans-63" d="M 3122 3366 
L 3122 2828 
Q 2878 2963 2633 3030 
Q 2388 3097 2138 3097 
Q 1578 3097 1268 2742 
Q 959 2388 959 1747 
Q 959 1106 1268 751 
Q 1578 397 2138 397 
Q 2388 397 2633 464 
Q 2878 531 3122 666 
L 3122 134 
Q 2881 22 2623 -34 
Q 2366 -91 2075 -91 
Q 1284 -91 818 406 
Q 353 903 353 1747 
Q 353 2603 823 3093 
Q 1294 3584 2113 3584 
Q 2378 3584 2631 3529 
Q 2884 3475 3122 3366 
z
" transform="scale(0.015625)"/>
       <path id="DejaVuSans-74" d="M 1172 4494 
L 1172 3500 
L 2356 3500 
L 2356 3053 
L 1172 3053 
L 1172 1153 
Q 1172 725 1289 603 
Q 1406 481 1766 481 
L 2356 481 
L 2356 0 
L 1766 0 
Q 1100 0 847 248 
Q 594 497 594 1153 
L 594 3053 
L 172 3053 
L 172 3500 
L 594 3500 
L 594 4494 
L 1172 4494 
z
" transform="scale(0.015625)"/>
      </defs>
      <use xlink:href="#DejaVuSans-42"/>
      <use xlink:href="#DejaVuSans-61" transform="translate(68.603516 0)"/>
      <use xlink:href="#DejaVuSans-73" transform="translate(129.882812 0)"/>
      <use xlink:href="#DejaVuSans-65" transform="translate(181.982422 0)"/>
      <use xlink:href="#DejaVuSans-6c" transform="translate(243.505859 0)"/>
      <use xlink:href="#DejaVuSans-69" transform="translate(271.289062 0)"/>
      <use xlink:href="#DejaVuSans-6e" transform="translate(299.072266 0)"/>
      <use xlink:href="#DejaVuSans-65" transform="translate(362.451172 0)"/>
      <use xlink:href="#DejaVuSans-20" transform="translate(423.974609 0)"/>
      <use xlink:href="#DejaVuSans-2d" transform="translate(455.761719 0)"/>
      <use xlink:href="#DejaVuSans-20" transform="translate(491.845703 0)"/>
      <use xlink:href="#DejaVuSans-32" transform="translate(523.632812 0)"/>
      <use xlink:href="#DejaVuSans-44" transform="translate(587.255859 0)"/>
      <use xlink:href="#DejaVuSans-20" transform="translate(664.257812 0)"/>
      <use xlink:href="#DejaVuSans-43" transform="translate(696.044922 0)"/>
      <use xlink:href="#DejaVuSans-72" transform="translate(765.869141 0)"/>
      <use xlink:href="#DejaVuSans-6f" transform="translate(804.732422 0)"/>
      <use xlink:href="#DejaVuSans-73" transform="translate(865.914062 0)"/>
      <use xlink:href="#DejaVuSans-73" transform="translate(918.013672 0)"/>
      <use xlink:href="#DejaVuSans-2d" transform="translate(970.113281 0)"/>
      <use xlink:href="#DejaVuSans-53" transform="translate(1006.197266 0)"/>
      <use xlink:href="#DejaVuSans-65" transform="translate(1069.673828 0)"/>
      <use xlink:href="#DejaVuSans-63" transform="translate(1131.197266 0)"/>
      <use xlink:href="#DejaVuSans-74" transform="translate(1186.177734 0)"/>
      <use xlink:href="#DejaVuSans-69" transform="translate(1225.386719 0)"/>
      <use xlink:href="#DejaVuSans-6f" transform="translate(1253.169922 0)"/>
      <use xlink:href="#DejaVuSans-6e" transform="translate(1314.351562 0)"/>
     </g>
    </g>
   </g>
  </g>
 </g>
 <defs>
  <clipPath id="p09b45d3ded">
   <rect x="48.519375" y="30.877187" width="361.86987" height="341.34"/>
  </clipPath>
 </defs>
</svg>
