<?xml version="1.0" encoding="utf-8" standalone="no"?>
<!DOCTYPE svg PUBLIC "-//W3C//DTD SVG 1.1//EN"
  "http://www.w3.org/Graphics/SVG/1.1/DTD/svg11.dtd">
<svg xmlns:xlink="http://www.w3.org/1999/xlink" width="445.787187pt" height="409.7075pt" viewBox="0 0 445.787187 409.7075" xmlns="http://www.w3.org/2000/svg" version="1.1">
 <metadata>
  <rdf:RDF xmlns:dc="http://purl.org/dc/elements/1.1/" xmlns:cc="http://creativecommons.org/ns#" xmlns:rdf="http://www.w3.org/1999/02/22-rdf-syntax-ns#">
   <cc:Work>
    <dc:type rdf:resource="http://purl.org/dc/dcmitype/StillImage"/>
    <dc:date>2025-10-30T21:15:29.254987</dc:date>
    <dc:format>image/svg+xml</dc:format>
    <dc:creator>
     <cc:Agent>
      <dc:title>Matplotlib v3.10.0, https://matplotlib.org/</dc:title>
     </cc:Agent>
    </dc:creator>
   </cc:Work>
  </rdf:RDF>
 </metadata>
 <defs>
  <style type="text/css">*{stroke-linejoin: round; stroke-linecap: butt}</style>
 </defs>
 <g id="figure_1">
  <g id="patch_1">
   <path d="M 0 409.7075 
L 445.787187 409.7075 
L 445.787187 0 
L 0 0 
z
" style="fill: #ffffff"/>
  </g>
  <g id="axes_1">
   <g id="patch_2">
    <path d="M 47.987187 365.376562 
L 438.587188 365.376562 
L 438.587188 32.736562 
L 47.987187 32.736562 
z
" style="fill: #fafafa"/>
   </g>
   <g id="matplotlib.axis_1">
    <g id="xtick_1">
     <g id="line2d_1">
      <path d="M 65.741733 365.376562 
L 65.741733 32.736562 
" clip-path="url(#p33c4809caa)" style="fill: none; stroke-dasharray: 0.8,1.32; stroke-dashoffset: 0; stroke: #b0b0b0; stroke-opacity: 0.3; stroke-width: 0.8"/>
     </g>
     <g id="line2d_2">
      <defs>
       <path id="mf7428b07b9" d="M 0 0 
L 0 3.5 
" style="stroke: #000000; stroke-width: 0.8"/>
      </defs>
      <g>
       <use xlink:href="#mf7428b07b9" x="65.741733" y="365.376562" style="stroke: #000000; stroke-width: 0.8"/>
      </g>
     </g>
     <g id="text_1">
      <!-- 0 -->
      <g transform="translate(61.924233 381.494687) scale(0.12 -0.12)">
       <defs>
        <path id="DejaVuSans-30" d="M 2034 4250 
Q 1547 4250 1301 3770 
Q 1056 3291 1056 2328 
Q 1056 1369 1301 889 
Q 1547 409 2034 409 
Q 2525 409 2770 889 
Q 3016 1369 3016 2328 
Q 3016 3291 2770 3770 
Q 2525 4250 2034 4250 
z
M 2034 4750 
Q 2819 4750 3233 4129 
Q 3647 3509 3647 2328 
Q 3647 1150 3233 529 
Q 2819 -91 2034 -91 
Q 1250 -91 836 529 
Q 422 1150 422 2328 
Q 422 3509 836 4129 
Q 1250 4750 2034 4750 
z
" transform="scale(0.015625)"/>
       </defs>
       <use xlink:href="#DejaVuSans-30"/>
      </g>
     </g>
    </g>
    <g id="xtick_2">
     <g id="line2d_3">
      <path d="M 130.303716 365.376562 
L 130.303716 32.736562 
" clip-path="url(#p33c4809caa)" style="fill: none; stroke-dasharray: 0.8,1.32; stroke-dashoffset: 0; stroke: #b0b0b0; stroke-opacity: 0.3; stroke-width: 0.8"/>
     </g>
     <g id="line2d_4">
      <g>
       <use xlink:href="#mf7428b07b9" x="130.303716" y="365.376562" style="stroke: #000000; stroke-width: 0.8"/>
      </g>
     </g>
     <g id="text_2">
      <!-- 5 -->
      <g transform="translate(126.486216 381.494687) scale(0.12 -0.12)">
       <defs>
        <path id="DejaVuSans-35" d="M 691 4666 
L 3169 4666 
L 3169 4134 
L 1269 4134 
L 1269 2991 
Q 1406 3038 1543 3061 
Q 1681 3084 1819 3084 
Q 2600 3084 3056 2656 
Q 3513 2228 3513 1497 
Q 3513 744 3044 326 
Q 2575 -91 1722 -91 
Q 1428 -91 1123 -41 
Q 819 9 494 109 
L 494 744 
Q 775 591 1075 516 
Q 1375 441 1709 441 
Q 2250 441 2565 725 
Q 2881 1009 2881 1497 
Q 2881 1984 2565 2268 
Q 2250 2553 1709 2553 
Q 1456 2553 1204 2497 
Q 953 2441 691 2322 
L 691 4666 
z
" transform="scale(0.015625)"/>
       </defs>
       <use xlink:href="#DejaVuSans-35"/>
      </g>
     </g>
    </g>
    <g id="xtick_3">
     <g id="line2d_5">
      <path d="M 194.8657 365.376562 
L 194.8657 32.736562 
" clip-path="url(#p33c4809caa)" style="fill: none; stroke-dasharray: 0.8,1.32; stroke-dashoffset: 0; stroke: #b0b0b0; stroke-opacity: 0.3; stroke-width: 0.8"/>
     </g>
     <g id="line2d_6">
      <g>
       <use xlink:href="#mf7428b07b9" x="194.8657" y="365.376562" style="stroke: #000000; stroke-width: 0.8"/>
      </g>
     </g>
     <g id="text_3">
      <!-- 10 -->
      <g transform="translate(187.2307 381.494687) scale(0.12 -0.12)">
       <defs>
        <path id="DejaVuSans-31" d="M 794 531 
L 1825 531 
L 1825 4091 
L 703 3866 
L 703 4441 
L 1819 4666 
L 2450 4666 
L 2450 531 
L 3481 531 
L 3481 0 
L 794 0 
L 794 531 
z
" transform="scale(0.015625)"/>
       </defs>
       <use xlink:href="#DejaVuSans-31"/>
       <use xlink:href="#DejaVuSans-30" transform="translate(63.623047 0)"/>
      </g>
     </g>
    </g>
    <g id="xtick_4">
     <g id="line2d_7">
      <path d="M 259.427683 365.376562 
L 259.427683 32.736562 
" clip-path="url(#p33c4809caa)" style="fill: none; stroke-dasharray: 0.8,1.32; stroke-dashoffset: 0; stroke: #b0b0b0; stroke-opacity: 0.3; stroke-width: 0.8"/>
     </g>
     <g id="line2d_8">
      <g>
       <use xlink:href="#mf7428b07b9" x="259.427683" y="365.376562" style="stroke: #000000; stroke-width: 0.8"/>
      </g>
     </g>
     <g id="text_4">
      <!-- 15 -->
      <g transform="translate(251.792683 381.494687) scale(0.12 -0.12)">
       <use xlink:href="#DejaVuSans-31"/>
       <use xlink:href="#DejaVuSans-35" transform="translate(63.623047 0)"/>
      </g>
     </g>
    </g>
    <g id="xtick_5">
     <g id="line2d_9">
      <path d="M 323.989667 365.376562 
L 323.989667 32.736562 
" clip-path="url(#p33c4809caa)" style="fill: none; stroke-dasharray: 0.8,1.32; stroke-dashoffset: 0; stroke: #b0b0b0; stroke-opacity: 0.3; stroke-width: 0.8"/>
     </g>
     <g id="line2d_10">
      <g>
       <use xlink:href="#mf7428b07b9" x="323.989667" y="365.376562" style="stroke: #000000; stroke-width: 0.8"/>
      </g>
     </g>
     <g id="text_5">
      <!-- 20 -->
      <g transform="translate(316.354667 381.494687) scale(0.12 -0.12)">
       <defs>
        <path id="DejaVuSans-32" d="M 1228 531 
L 3431 531 
L 3431 0 
L 469 0 
L 469 531 
Q 828 903 1448 1529 
Q 2069 2156 2228 2338 
Q 2531 2678 2651 2914 
Q 2772 3150 2772 3378 
Q 2772 3750 2511 3984 
Q 2250 4219 1831 4219 
Q 1534 4219 1204 4116 
Q 875 4013 500 3803 
L 500 4441 
Q 881 4594 1212 4672 
Q 1544 4750 1819 4750 
Q 2544 4750 2975 4387 
Q 3406 4025 3406 3419 
Q 3406 3131 3298 2873 
Q 3191 2616 2906 2266 
Q 2828 2175 2409 1742 
Q 1991 1309 1228 531 
z
" transform="scale(0.015625)"/>
       </defs>
       <use xlink:href="#DejaVuSans-32"/>
       <use xlink:href="#DejaVuSans-30" transform="translate(63.623047 0)"/>
      </g>
     </g>
    </g>
    <g id="xtick_6">
     <g id="line2d_11">
      <path d="M 388.55165 365.376562 
L 388.55165 32.736562 
" clip-path="url(#p33c4809caa)" style="fill: none; stroke-dasharray: 0.8,1.32; stroke-dashoffset: 0; stroke: #b0b0b0; stroke-opacity: 0.3; stroke-width: 0.8"/>
     </g>
     <g id="line2d_12">
      <g>
       <use xlink:href="#mf7428b07b9" x="388.55165" y="365.376562" style="stroke: #000000; stroke-width: 0.8"/>
      </g>
     </g>
     <g id="text_6">
      <!-- 25 -->
      <g transform="translate(380.91665 381.494687) scale(0.12 -0.12)">
       <use xlink:href="#DejaVuSans-32"/>
       <use xlink:href="#DejaVuSans-35" transform="translate(63.623047 0)"/>
      </g>
     </g>
    </g>
    <g id="text_7">
     <!-- X [mm] -->
     <g transform="translate(215.302813 399.387969) scale(0.15 -0.15)">
      <defs>
       <path id="DejaVuSans-58" d="M 403 4666 
L 1081 4666 
L 2241 2931 
L 3406 4666 
L 4084 4666 
L 2584 2425 
L 4184 0 
L 3506 0 
L 2194 1984 
L 872 0 
L 191 0 
L 1856 2491 
L 403 4666 
z
" transform="scale(0.015625)"/>
       <path id="DejaVuSans-20" transform="scale(0.015625)"/>
       <path id="DejaVuSans-5b" d="M 550 4863 
L 1875 4863 
L 1875 4416 
L 1125 4416 
L 1125 -397 
L 1875 -397 
L 1875 -844 
L 550 -844 
L 550 4863 
z
" transform="scale(0.015625)"/>
       <path id="DejaVuSans-6d" d="M 3328 2828 
Q 3544 3216 3844 3400 
Q 4144 3584 4550 3584 
Q 5097 3584 5394 3201 
Q 5691 2819 5691 2113 
L 5691 0 
L 5113 0 
L 5113 2094 
Q 5113 2597 4934 2840 
Q 4756 3084 4391 3084 
Q 3944 3084 3684 2787 
Q 3425 2491 3425 1978 
L 3425 0 
L 2847 0 
L 2847 2094 
Q 2847 2600 2669 2842 
Q 2491 3084 2119 3084 
Q 1678 3084 1418 2786 
Q 1159 2488 1159 1978 
L 1159 0 
L 581 0 
L 581 3500 
L 1159 3500 
L 1159 2956 
Q 1356 3278 1631 3431 
Q 1906 3584 2284 3584 
Q 2666 3584 2933 3390 
Q 3200 3197 3328 2828 
z
" transform="scale(0.015625)"/>
       <path id="DejaVuSans-5d" d="M 1947 4863 
L 1947 -844 
L 622 -844 
L 622 -397 
L 1369 -397 
L 1369 4416 
L 622 4416 
L 622 4863 
L 1947 4863 
z
" transform="scale(0.015625)"/>
      </defs>
      <use xlink:href="#DejaVuSans-58"/>
      <use xlink:href="#DejaVuSans-20" transform="translate(68.505859 0)"/>
      <use xlink:href="#DejaVuSans-5b" transform="translate(100.292969 0)"/>
      <use xlink:href="#DejaVuSans-6d" transform="translate(139.306641 0)"/>
      <use xlink:href="#DejaVuSans-6d" transform="translate(236.71875 0)"/>
      <use xlink:href="#DejaVuSans-5d" transform="translate(334.130859 0)"/>
     </g>
    </g>
   </g>
   <g id="matplotlib.axis_2">
    <g id="ytick_1">
     <g id="line2d_13">
      <path d="M 47.987187 365.376562 
L 438.587188 365.376562 
" clip-path="url(#p33c4809caa)" style="fill: none; stroke-dasharray: 0.8,1.32; stroke-dashoffset: 0; stroke: #b0b0b0; stroke-opacity: 0.3; stroke-width: 0.8"/>
     </g>
     <g id="line2d_14">
      <defs>
       <path id="mbbb4de892e" d="M 0 0 
L -3.5 0 
" style="stroke: #000000; stroke-width: 0.8"/>
      </defs>
      <g>
       <use xlink:href="#mbbb4de892e" x="47.987187" y="365.376562" style="stroke: #000000; stroke-width: 0.8"/>
      </g>
     </g>
     <g id="text_8">
      <!-- 0 -->
      <g transform="translate(33.352187 369.935625) scale(0.12 -0.12)">
       <use xlink:href="#DejaVuSans-30"/>
      </g>
     </g>
    </g>
    <g id="ytick_2">
     <g id="line2d_15">
      <path d="M 47.987187 293.376562 
L 438.587188 293.376562 
" clip-path="url(#p33c4809caa)" style="fill: none; stroke-dasharray: 0.8,1.32; stroke-dashoffset: 0; stroke: #b0b0b0; stroke-opacity: 0.3; stroke-width: 0.8"/>
     </g>
     <g id="line2d_16">
      <g>
       <use xlink:href="#mbbb4de892e" x="47.987187" y="293.376562" style="stroke: #000000; stroke-width: 0.8"/>
      </g>
     </g>
     <g id="text_9">
      <!-- 5 -->
      <g transform="translate(33.352187 297.935625) scale(0.12 -0.12)">
       <use xlink:href="#DejaVuSans-35"/>
      </g>
     </g>
    </g>
    <g id="ytick_3">
     <g id="line2d_17">
      <path d="M 47.987187 221.376562 
L 438.587188 221.376562 
" clip-path="url(#p33c4809caa)" style="fill: none; stroke-dasharray: 0.8,1.32; stroke-dashoffset: 0; stroke: #b0b0b0; stroke-opacity: 0.3; stroke-width: 0.8"/>
     </g>
     <g id="line2d_18">
      <g>
       <use xlink:href="#mbbb4de892e" x="47.987187" y="221.376562" style="stroke: #000000; stroke-width: 0.8"/>
      </g>
     </g>
     <g id="text_10">
      <!-- 10 -->
      <g transform="translate(25.717187 225.935625) scale(0.12 -0.12)">
       <use xlink:href="#DejaVuSans-31"/>
       <use xlink:href="#DejaVuSans-30" transform="translate(63.623047 0)"/>
      </g>
     </g>
    </g>
    <g id="ytick_4">
     <g id="line2d_19">
      <path d="M 47.987187 149.376562 
L 438.587188 149.376562 
" clip-path="url(#p33c4809caa)" style="fill: none; stroke-dasharray: 0.8,1.32; stroke-dashoffset: 0; stroke: #b0b0b0; stroke-opacity: 0.3; stroke-width: 0.8"/>
     </g>
     <g id="line2d_20">
      <g>
       <use xlink:href="#mbbb4de892e" x="47.987187" y="149.376562" style="stroke: #000000; stroke-width: 0.8"/>
      </g>
     </g>
     <g id="text_11">
      <!-- 15 -->
      <g transform="translate(25.717187 153.935625) scale(0.12 -0.12)">
       <use xlink:href="#DejaVuSans-31"/>
       <use xlink:href="#DejaVuSans-35" transform="translate(63.623047 0)"/>
      </g>
     </g>
    </g>
    <g id="ytick_5">
     <g id="line2d_21">
      <path d="M 47.987187 77.376562 
L 438.587188 77.376562 
" clip-path="url(#p33c4809caa)" style="fill: none; stroke-dasharray: 0.8,1.32; stroke-dashoffset: 0; stroke: #b0b0b0; stroke-opacity: 0.3; stroke-width: 0.8"/>
     </g>
     <g id="line2d_22">
      <g>
       <use xlink:href="#mbbb4de892e" x="47.987187" y="77.376562" style="stroke: #000000; stroke-width: 0.8"/>
      </g>
     </g>
     <g id="text_12">
      <!-- 20 -->
      <g transform="translate(25.717187 81.935625) scale(0.12 -0.12)">
       <use xlink:href="#DejaVuSans-32"/>
       <use xlink:href="#DejaVuSans-30" transform="translate(63.623047 0)"/>
      </g>
     </g>
    </g>
    <g id="text_13">
     <!-- Y [mm] -->
     <g transform="translate(18.597656 226.484297) rotate(-90) scale(0.15 -0.15)">
      <defs>
       <path id="DejaVuSans-59" d="M -13 4666 
L 666 4666 
L 1959 2747 
L 3244 4666 
L 3922 4666 
L 2272 2222 
L 2272 0 
L 1638 0 
L 1638 2222 
L -13 4666 
z
" transform="scale(0.015625)"/>
      </defs>
      <use xlink:href="#DejaVuSans-59"/>
      <use xlink:href="#DejaVuSans-20" transform="translate(61.083984 0)"/>
      <use xlink:href="#DejaVuSans-5b" transform="translate(92.871094 0)"/>
      <use xlink:href="#DejaVuSans-6d" transform="translate(131.884766 0)"/>
      <use xlink:href="#DejaVuSans-6d" transform="translate(229.296875 0)"/>
      <use xlink:href="#DejaVuSans-5d" transform="translate(326.708984 0)"/>
     </g>
    </g>
   </g>
   <g id="line2d_23">
    <path d="M 65.741733 365.376562 
L 69.472431 365.37515 
L 72.871202 365.371117 
L 75.980404 365.36473 
L 78.83548 365.356211 
L 81.466315 365.345743 
L 83.898282 365.333481 
L 86.153064 365.319554 
L 88.249301 365.30407 
L 90.203106 365.287122 
L 92.028477 365.268786 
L 93.737637 365.249129 
L 95.341303 365.228204 
L 96.848912 365.206059 
L 98.268806 365.18273 
L 99.608389 365.158248 
L 100.874251 365.13264 
L 102.072281 365.105925 
L 103.207754 365.078117 
L 104.285412 365.049228 
L 105.309526 365.019265 
L 106.283958 364.98823 
L 107.212204 364.956125 
L 108.097439 364.922945 
L 108.942552 364.888685 
L 109.750178 364.853337 
L 110.522724 364.816889 
L 111.262394 364.779327 
L 111.971212 364.740636 
L 112.651034 364.700797 
L 113.303572 364.659788 
L 113.930404 364.617587 
L 114.532984 364.574168 
L 115.112661 364.529504 
L 115.670683 364.483563 
L 116.208205 364.436314 
L 116.726304 364.387721 
L 117.225977 364.337747 
L 117.708155 364.286351 
L 118.173705 364.233491 
L 118.623437 364.17912 
L 119.058104 364.123189 
L 119.478414 364.065647 
L 119.885028 364.00644 
L 120.278564 363.945507 
L 120.659603 363.882787 
L 121.028689 363.818213 
L 121.386334 363.751717 
L 121.733017 363.683223 
L 122.06919 363.612652 
L 122.395277 363.539922 
L 122.711678 363.464941 
L 123.018769 363.387616 
L 123.316903 363.307847 
L 123.606415 363.225525 
L 123.887619 363.140538 
L 124.16081 363.052763 
L 124.426267 362.962071 
L 124.684253 362.868325 
L 124.935016 362.771376 
L 125.178787 362.671067 
L 125.415786 362.56723 
L 125.646218 362.459684 
L 125.870276 362.348236 
L 126.08814 362.232679 
L 126.29998 362.112789 
L 126.505953 361.988327 
L 126.706205 361.859035 
L 126.900872 361.724635 
L 127.090079 361.584825 
L 127.27394 361.439282 
L 127.452559 361.287654 
L 127.62603 361.129558 
L 127.794437 360.964581 
L 127.957851 360.792271 
L 128.116333 360.612137 
L 128.269935 360.423642 
L 128.418695 360.226198 
L 128.562639 360.01916 
L 128.701781 359.801821 
L 128.836121 359.573401 
L 128.965644 359.333039 
L 129.090319 359.079782 
L 129.210097 358.812571 
L 129.324911 358.530231 
L 129.434672 358.231449 
L 129.539268 357.914753 
L 129.638558 357.578494 
L 129.732371 357.22081 
L 129.820504 356.839597 
L 129.90271 356.432463 
L 129.978697 355.996684 
L 130.048118 355.529136 
L 130.110562 355.026226 
L 130.165539 354.483796 
L 130.212471 353.897011 
L 130.250666 353.260211 
L 130.2793 352.56673 
L 130.297382 351.808663 
" clip-path="url(#p33c4809caa)" style="fill: none; stroke: #424242; stroke-width: 2; stroke-linecap: square"/>
   </g>
   <g id="line2d_24">
    <path d="M 65.741733 365.376562 
L 130.303716 365.376562 
L 130.303716 350.976562 
" clip-path="url(#p33c4809caa)" style="fill: none; stroke-dasharray: 5.55,2.4; stroke-dashoffset: 0; stroke: #424242; stroke-width: 1.5"/>
    <defs>
     <path id="m80b3d9e84b" d="M 0 3 
C 0.795609 3 1.55874 2.683901 2.12132 2.12132 
C 2.683901 1.55874 3 0.795609 3 0 
C 3 -0.795609 2.683901 -1.55874 2.12132 -2.12132 
C 1.55874 -2.683901 0.795609 -3 0 -3 
C -0.795609 -3 -1.55874 -2.683901 -2.12132 -2.12132 
C -2.683901 -1.55874 -3 -0.795609 -3 0 
C -3 0.795609 -2.683901 1.55874 -2.12132 2.12132 
C -1.55874 2.683901 -0.795609 3 0 3 
z
" style="stroke: #424242"/>
    </defs>
    <g clip-path="url(#p33c4809caa)">
     <use xlink:href="#m80b3d9e84b" x="65.741733" y="365.376562" style="fill: #424242; stroke: #424242"/>
     <use xlink:href="#m80b3d9e84b" x="130.303716" y="365.376562" style="fill: #424242; stroke: #424242"/>
     <use xlink:href="#m80b3d9e84b" x="130.303716" y="350.976562" style="fill: #424242; stroke: #424242"/>
    </g>
   </g>
   <g id="line2d_25">
    <path d="M 130.303716 350.976562 
L 130.303716 350.903749 
L 130.303716 350.724594 
L 130.303716 350.470547 
L 130.303716 350.15537 
L 130.303716 349.785197 
L 130.303716 349.362364 
L 130.303716 348.88708 
L 130.303716 348.358237 
L 130.303716 347.773825 
L 130.303716 347.131161 
L 130.303716 346.427017 
L 130.303716 345.657693 
L 130.303716 344.819056 
L 130.303716 343.906559 
L 130.303716 342.915252 
L 130.303716 341.83978 
L 130.303716 340.67438 
L 130.303716 339.412877 
L 130.303716 338.048674 
L 130.303716 336.574745 
L 130.303716 334.983635 
L 130.303716 333.267457 
L 130.303716 331.417894 
L 130.303716 329.426212 
L 130.303716 327.283278 
L 130.303716 324.97959 
L 130.303716 322.505315 
L 130.303716 319.850353 
L 130.303716 317.004404 
L 130.303716 313.957071 
L 130.303716 310.697978 
L 130.303716 307.216917 
L 130.303716 303.504035 
L 130.303716 299.550043 
L 130.303716 295.346472 
L 130.303716 290.885965 
L 130.303716 286.162612 
L 130.303716 281.172321 
L 130.303716 275.913227 
L 130.303716 270.386136 
L 130.303716 264.594988 
L 130.303716 258.547325 
L 130.303716 252.254757 
L 130.303716 245.733392 
L 130.303716 239.00421 
L 130.303716 232.093351 
L 130.303716 225.032278 
L 130.303716 217.857795 
L 130.303716 210.611873 
L 130.303728 203.341252 
L 130.304015 196.09533 
L 130.305096 188.920847 
L 130.307486 181.859774 
L 130.311685 174.948915 
L 130.318173 168.219733 
L 130.327407 161.698368 
L 130.339821 155.4058 
L 130.35583 149.358137 
L 130.375828 143.566989 
L 130.400192 138.039898 
L 130.429289 132.780804 
L 130.463478 127.790513 
L 130.503119 123.06716 
L 130.548574 118.606653 
L 130.600221 114.403082 
L 130.658453 110.44909 
L 130.723691 106.736208 
L 130.796395 103.255147 
L 130.877064 99.996054 
L 130.966257 96.948721 
L 131.064598 94.102772 
L 131.172793 91.44781 
L 131.291646 88.973535 
L 131.422073 86.669847 
L 131.565132 84.526913 
L 131.722043 82.535231 
L 131.894226 80.685668 
L 132.083339 78.96949 
L 132.291329 77.37838 
L 132.520496 75.904451 
L 132.773576 74.540248 
L 133.053845 73.278745 
L 133.365254 72.113345 
L 133.712613 71.037873 
L 134.10183 70.046566 
L 134.540242 69.134069 
L 135.037066 68.295432 
L 135.604042 67.526108 
L 136.25635 66.821964 
L 137.013965 66.1793 
L 137.903709 65.594888 
L 138.962444 65.066045 
L 140.242254 64.590761 
L 141.81919 64.167928 
L 143.808846 63.797755 
L 146.395867 63.482578 
L 149.894567 63.228531 
L 154.886943 63.049376 
" clip-path="url(#p33c4809caa)" style="fill: none; stroke: #bc4a87; stroke-width: 2; stroke-linecap: square"/>
   </g>
   <g id="line2d_26">
    <path d="M 130.303716 350.976562 
L 130.303716 350.976562 
L 130.303716 206.976562 
L 130.303716 62.976562 
L 162.584708 62.976562 
" clip-path="url(#p33c4809caa)" style="fill: none; stroke-dasharray: 5.55,2.4; stroke-dashoffset: 0; stroke: #bc4a87; stroke-width: 1.5"/>
    <defs>
     <path id="md2d390ff08" d="M 0 3 
C 0.795609 3 1.55874 2.683901 2.12132 2.12132 
C 2.683901 1.55874 3 0.795609 3 0 
C 3 -0.795609 2.683901 -1.55874 2.12132 -2.12132 
C 1.55874 -2.683901 0.795609 -3 0 -3 
C -0.795609 -3 -1.55874 -2.683901 -2.12132 -2.12132 
C -2.683901 -1.55874 -3 -0.795609 -3 0 
C -3 0.795609 -2.683901 1.55874 -2.12132 2.12132 
C -1.55874 2.683901 -0.795609 3 0 3 
z
" style="stroke: #bc4a87"/>
    </defs>
    <g clip-path="url(#p33c4809caa)">
     <use xlink:href="#md2d390ff08" x="130.303716" y="350.976562" style="fill: #bc4a87; stroke: #bc4a87"/>
     <use xlink:href="#md2d390ff08" x="130.303716" y="350.976562" style="fill: #bc4a87; stroke: #bc4a87"/>
     <use xlink:href="#md2d390ff08" x="130.303716" y="206.976562" style="fill: #bc4a87; stroke: #bc4a87"/>
     <use xlink:href="#md2d390ff08" x="130.303716" y="62.976562" style="fill: #bc4a87; stroke: #bc4a87"/>
     <use xlink:href="#md2d390ff08" x="162.584708" y="62.976562" style="fill: #bc4a87; stroke: #bc4a87"/>
    </g>
   </g>
   <g id="line2d_27">
    <path d="M 162.584708 62.976562 
L 170.282473 63.049376 
L 175.274849 63.228531 
L 178.773549 63.482578 
L 181.360571 63.797755 
L 183.350226 64.167928 
L 184.927163 64.590761 
L 186.206972 65.066045 
L 187.265707 65.594888 
L 188.155451 66.1793 
L 188.913067 66.821964 
L 189.565374 67.526108 
L 190.13235 68.295432 
L 190.629174 69.134069 
L 191.067586 70.046566 
L 191.456803 71.037873 
L 191.804163 72.113345 
L 192.115572 73.278745 
L 192.39584 74.540248 
L 192.648921 75.904451 
L 192.878088 77.37838 
L 193.086077 78.96949 
L 193.27519 80.685668 
L 193.447373 82.535231 
L 193.604284 84.526913 
L 193.747343 86.669847 
L 193.877771 88.973535 
L 193.996623 91.44781 
L 194.104818 94.102772 
L 194.20316 96.948721 
L 194.292353 99.996054 
L 194.373022 103.255147 
L 194.445725 106.736208 
L 194.510964 110.44909 
L 194.569196 114.403082 
L 194.620842 118.606653 
L 194.666298 123.06716 
L 194.705938 127.790513 
L 194.740128 132.780804 
L 194.769225 138.039898 
L 194.793588 143.566989 
L 194.813586 149.358137 
L 194.829595 155.4058 
L 194.84201 161.698368 
L 194.851244 168.219733 
L 194.857731 174.948915 
L 194.86193 181.859774 
L 194.86432 188.920847 
L 194.865401 196.09533 
L 194.865689 203.341252 
L 194.865711 210.611873 
L 194.865999 217.857795 
L 194.86708 225.032278 
L 194.86947 232.093351 
L 194.873669 239.00421 
L 194.880156 245.733392 
L 194.88939 252.254757 
L 194.901805 258.547325 
L 194.917814 264.594988 
L 194.937811 270.386136 
L 194.962175 275.913227 
L 194.991272 281.172321 
L 195.025461 286.162612 
L 195.065102 290.885965 
L 195.110558 295.346472 
L 195.162204 299.550043 
L 195.220436 303.504035 
L 195.285675 307.216917 
L 195.358378 310.697978 
L 195.439047 313.957071 
L 195.52824 317.004404 
L 195.626581 319.850353 
L 195.734777 322.505315 
L 195.853629 324.97959 
L 195.984057 327.283278 
L 196.127115 329.426212 
L 196.284027 331.417894 
L 196.45621 333.267457 
L 196.645323 334.983635 
L 196.853312 336.574745 
L 197.082479 338.048674 
L 197.335559 339.412877 
L 197.615828 340.67438 
L 197.927237 341.83978 
L 198.274596 342.915252 
L 198.663814 343.906559 
L 199.102226 344.819056 
L 199.59905 345.657693 
L 200.166025 346.427017 
L 200.818333 347.131161 
L 201.575949 347.773825 
L 202.465693 348.358237 
L 203.524428 348.88708 
L 204.804237 349.362364 
L 206.381174 349.785197 
L 208.370829 350.15537 
L 210.957851 350.470547 
L 214.45655 350.724594 
L 219.448927 350.903749 
" clip-path="url(#p33c4809caa)" style="fill: none; stroke: #0a75a3; stroke-width: 2; stroke-linecap: square"/>
   </g>
   <g id="line2d_28">
    <path d="M 162.584708 62.976562 
L 194.8657 62.976562 
L 194.8657 206.976562 
L 194.8657 350.976562 
L 227.146692 350.976562 
" clip-path="url(#p33c4809caa)" style="fill: none; stroke-dasharray: 5.55,2.4; stroke-dashoffset: 0; stroke: #0a75a3; stroke-width: 1.5"/>
    <defs>
     <path id="m68884a3140" d="M 0 3 
C 0.795609 3 1.55874 2.683901 2.12132 2.12132 
C 2.683901 1.55874 3 0.795609 3 0 
C 3 -0.795609 2.683901 -1.55874 2.12132 -2.12132 
C 1.55874 -2.683901 0.795609 -3 0 -3 
C -0.795609 -3 -1.55874 -2.683901 -2.12132 -2.12132 
C -2.683901 -1.55874 -3 -0.795609 -3 0 
C -3 0.795609 -2.683901 1.55874 -2.12132 2.12132 
C -1.55874 2.683901 -0.795609 3 0 3 
z
" style="stroke: #0a75a3"/>
    </defs>
    <g clip-path="url(#p33c4809caa)">
     <use xlink:href="#m68884a3140" x="162.584708" y="62.976562" style="fill: #0a75a3; stroke: #0a75a3"/>
     <use xlink:href="#m68884a3140" x="194.8657" y="62.976562" style="fill: #0a75a3; stroke: #0a75a3"/>
     <use xlink:href="#m68884a3140" x="194.8657" y="206.976562" style="fill: #0a75a3; stroke: #0a75a3"/>
     <use xlink:href="#m68884a3140" x="194.8657" y="350.976562" style="fill: #0a75a3; stroke: #0a75a3"/>
     <use xlink:href="#m68884a3140" x="227.146692" y="350.976562" style="fill: #0a75a3; stroke: #0a75a3"/>
    </g>
   </g>
   <g id="line2d_29">
    <path d="M 227.146692 350.976562 
L 234.844456 350.903749 
L 239.836833 350.724594 
L 243.335533 350.470547 
L 245.922554 350.15537 
L 247.912209 349.785197 
L 249.489146 349.362364 
L 250.768956 348.88708 
L 251.827691 348.358237 
L 252.717434 347.773825 
L 253.47505 347.131161 
L 254.127358 346.427017 
L 254.694333 345.657693 
L 255.191158 344.819056 
L 255.629569 343.906559 
L 256.018787 342.915252 
L 256.366146 341.83978 
L 256.677555 340.67438 
L 256.957824 339.412877 
L 257.210904 338.048674 
L 257.440071 336.574745 
L 257.648061 334.983635 
L 257.837173 333.267457 
L 258.009356 331.417894 
L 258.166268 329.426212 
L 258.309327 327.283278 
L 258.439754 324.97959 
L 258.558606 322.505315 
L 258.666802 319.850353 
L 258.765143 317.004404 
L 258.854336 313.957071 
L 258.935005 310.697978 
L 259.007708 307.216917 
L 259.072947 303.504035 
L 259.131179 299.550043 
L 259.182825 295.346472 
L 259.228281 290.885965 
L 259.267922 286.162612 
L 259.302111 281.172321 
L 259.331208 275.913227 
L 259.355572 270.386136 
L 259.375569 264.594988 
L 259.391578 258.547325 
L 259.403993 252.254757 
L 259.413227 245.733392 
L 259.419715 239.00421 
L 259.423914 232.093351 
L 259.426304 225.032278 
L 259.427384 217.857795 
L 259.427672 210.611873 
L 259.427694 203.341252 
L 259.427982 196.09533 
L 259.429063 188.920847 
L 259.431453 181.859774 
L 259.435652 174.948915 
L 259.44214 168.219733 
L 259.451374 161.698368 
L 259.463788 155.4058 
L 259.479797 149.358137 
L 259.499795 143.566989 
L 259.524159 138.039898 
L 259.553255 132.780804 
L 259.587445 127.790513 
L 259.627086 123.06716 
L 259.672541 118.606653 
L 259.724188 114.403082 
L 259.78242 110.44909 
L 259.847658 106.736208 
L 259.920361 103.255147 
L 260.001031 99.996054 
L 260.090223 96.948721 
L 260.188565 94.102772 
L 260.29676 91.44781 
L 260.415613 88.973535 
L 260.54604 86.669847 
L 260.689099 84.526913 
L 260.84601 82.535231 
L 261.018193 80.685668 
L 261.207306 78.96949 
L 261.415296 77.37838 
L 261.644463 75.904451 
L 261.897543 74.540248 
L 262.177812 73.278745 
L 262.489221 72.113345 
L 262.83658 71.037873 
L 263.225797 70.046566 
L 263.664209 69.134069 
L 264.161033 68.295432 
L 264.728009 67.526108 
L 265.380317 66.821964 
L 266.137932 66.1793 
L 267.027676 65.594888 
L 268.086411 65.066045 
L 269.366221 64.590761 
L 270.943157 64.167928 
L 272.932812 63.797755 
L 275.519834 63.482578 
L 279.018534 63.228531 
L 284.01091 63.049376 
" clip-path="url(#p33c4809caa)" style="fill: none; stroke: #e07b39; stroke-width: 2; stroke-linecap: square"/>
   </g>
   <g id="line2d_30">
    <path d="M 227.146692 350.976562 
L 259.427683 350.976562 
L 259.427683 206.976562 
L 259.427683 62.976562 
L 291.708675 62.976562 
" clip-path="url(#p33c4809caa)" style="fill: none; stroke-dasharray: 5.55,2.4; stroke-dashoffset: 0; stroke: #e07b39; stroke-width: 1.5"/>
    <defs>
     <path id="m82567cc695" d="M 0 3 
C 0.795609 3 1.55874 2.683901 2.12132 2.12132 
C 2.683901 1.55874 3 0.795609 3 0 
C 3 -0.795609 2.683901 -1.55874 2.12132 -2.12132 
C 1.55874 -2.683901 0.795609 -3 0 -3 
C -0.795609 -3 -1.55874 -2.683901 -2.12132 -2.12132 
C -2.683901 -1.55874 -3 -0.795609 -3 0 
C -3 0.795609 -2.683901 1.55874 -2.12132 2.12132 
C -1.55874 2.683901 -0.795609 3 0 3 
z
" style="stroke: #e07b39"/>
    </defs>
    <g clip-path="url(#p33c4809caa)">
     <use xlink:href="#m82567cc695" x="227.146692" y="350.976562" style="fill: #e07b39; stroke: #e07b39"/>
     <use xlink:href="#m82567cc695" x="259.427683" y="350.976562" style="fill: #e07b39; stroke: #e07b39"/>
     <use xlink:href="#m82567cc695" x="259.427683" y="206.976562" style="fill: #e07b39; stroke: #e07b39"/>
     <use xlink:href="#m82567cc695" x="259.427683" y="62.976562" style="fill: #e07b39; stroke: #e07b39"/>
     <use xlink:href="#m82567cc695" x="291.708675" y="62.976562" style="fill: #e07b39; stroke: #e07b39"/>
    </g>
   </g>
   <g id="line2d_31">
    <path d="M 291.708675 62.976562 
L 299.40644 63.049376 
L 304.398816 63.228531 
L 307.897516 63.482578 
L 310.484538 63.797755 
L 312.474193 64.167928 
L 314.05113 64.590761 
L 315.330939 65.066045 
L 316.389674 65.594888 
L 317.279418 66.1793 
L 318.037034 66.821964 
L 318.689341 67.526108 
L 319.256317 68.295432 
L 319.753141 69.134069 
L 320.191553 70.046566 
L 320.58077 71.037873 
L 320.928129 72.113345 
L 321.239539 73.278745 
L 321.519807 74.540248 
L 321.772887 75.904451 
L 322.002055 77.37838 
L 322.210044 78.96949 
L 322.399157 80.685668 
L 322.57134 82.535231 
L 322.728251 84.526913 
L 322.87131 86.669847 
L 323.001738 88.973535 
L 323.12059 91.44781 
L 323.228785 94.102772 
L 323.327127 96.948721 
L 323.41632 99.996054 
L 323.496989 103.255147 
L 323.569692 106.736208 
L 323.634931 110.44909 
L 323.693163 114.403082 
L 323.744809 118.606653 
L 323.790265 123.06716 
L 323.829905 127.790513 
L 323.864095 132.780804 
L 323.893191 138.039898 
L 323.917555 143.566989 
L 323.937553 149.358137 
L 323.953562 155.4058 
L 323.965977 161.698368 
L 323.975211 168.219733 
L 323.981698 174.948915 
L 323.985897 181.859774 
L 323.988287 188.920847 
L 323.989368 196.09533 
L 323.989656 203.341252 
L 323.989678 210.611873 
L 323.989966 217.857795 
L 323.991046 225.032278 
L 323.993436 232.093351 
L 323.997635 239.00421 
L 324.004123 245.733392 
L 324.013357 252.254757 
L 324.025772 258.547325 
L 324.041781 264.594988 
L 324.061778 270.386136 
L 324.086142 275.913227 
L 324.115239 281.172321 
L 324.149428 286.162612 
L 324.189069 290.885965 
L 324.234525 295.346472 
L 324.286171 299.550043 
L 324.344403 303.504035 
L 324.409642 307.216917 
L 324.482345 310.697978 
L 324.563014 313.957071 
L 324.652207 317.004404 
L 324.750548 319.850353 
L 324.858744 322.505315 
L 324.977596 324.97959 
L 325.108024 327.283278 
L 325.251082 329.426212 
L 325.407994 331.417894 
L 325.580177 333.267457 
L 325.76929 334.983635 
L 325.977279 336.574745 
L 326.206446 338.048674 
L 326.459526 339.412877 
L 326.739795 340.67438 
L 327.051204 341.83978 
L 327.398563 342.915252 
L 327.787781 343.906559 
L 328.226193 344.819056 
L 328.723017 345.657693 
L 329.289992 346.427017 
L 329.9423 347.131161 
L 330.699916 347.773825 
L 331.58966 348.358237 
L 332.648395 348.88708 
L 333.928204 349.362364 
L 335.505141 349.785197 
L 337.494796 350.15537 
L 340.081818 350.470547 
L 343.580517 350.724594 
L 348.572894 350.903749 
" clip-path="url(#p33c4809caa)" style="fill: none; stroke: #6ab187; stroke-width: 2; stroke-linecap: square"/>
   </g>
   <g id="line2d_32">
    <path d="M 291.708675 62.976562 
L 323.989667 62.976562 
L 323.989667 206.976562 
L 323.989667 350.976562 
L 356.270659 350.976562 
" clip-path="url(#p33c4809caa)" style="fill: none; stroke-dasharray: 5.55,2.4; stroke-dashoffset: 0; stroke: #6ab187; stroke-width: 1.5"/>
    <defs>
     <path id="md001952586" d="M 0 3 
C 0.795609 3 1.55874 2.683901 2.12132 2.12132 
C 2.683901 1.55874 3 0.795609 3 0 
C 3 -0.795609 2.683901 -1.55874 2.12132 -2.12132 
C 1.55874 -2.683901 0.795609 -3 0 -3 
C -0.795609 -3 -1.55874 -2.683901 -2.12132 -2.12132 
C -2.683901 -1.55874 -3 -0.795609 -3 0 
C -3 0.795609 -2.683901 1.55874 -2.12132 2.12132 
C -1.55874 2.683901 -0.795609 3 0 3 
z
" style="stroke: #6ab187"/>
    </defs>
    <g clip-path="url(#p33c4809caa)">
     <use xlink:href="#md001952586" x="291.708675" y="62.976562" style="fill: #6ab187; stroke: #6ab187"/>
     <use xlink:href="#md001952586" x="323.989667" y="62.976562" style="fill: #6ab187; stroke: #6ab187"/>
     <use xlink:href="#md001952586" x="323.989667" y="206.976562" style="fill: #6ab187; stroke: #6ab187"/>
     <use xlink:href="#md001952586" x="323.989667" y="350.976562" style="fill: #6ab187; stroke: #6ab187"/>
     <use xlink:href="#md001952586" x="356.270659" y="350.976562" style="fill: #6ab187; stroke: #6ab187"/>
    </g>
   </g>
   <g id="line2d_33">
    <path d="M 356.270659 350.976562 
L 363.968423 350.903749 
L 368.9608 350.724594 
L 372.459499 350.470547 
L 375.046521 350.15537 
L 377.036176 349.785197 
L 378.613113 349.362364 
L 379.892923 348.88708 
L 380.951658 348.358237 
L 381.841401 347.773825 
L 382.599017 347.131161 
L 383.251325 346.427017 
L 383.8183 345.657693 
L 384.315125 344.819056 
L 384.753536 343.906559 
L 385.142754 342.915252 
L 385.490113 341.83978 
L 385.801522 340.67438 
L 386.081791 339.412877 
L 386.334871 338.048674 
L 386.564038 336.574745 
L 386.772028 334.983635 
L 386.96114 333.267457 
L 387.133323 331.417894 
L 387.290235 329.426212 
L 387.433294 327.283278 
L 387.563721 324.97959 
L 387.682573 322.505315 
L 387.790769 319.850353 
L 387.88911 317.004404 
L 387.978303 313.957071 
L 388.058972 310.697978 
L 388.131675 307.216917 
L 388.196914 303.504035 
L 388.255146 299.550043 
L 388.306792 295.346472 
L 388.352248 290.885965 
L 388.391889 286.162612 
L 388.426078 281.172321 
L 388.455175 275.913227 
L 388.479539 270.386136 
L 388.499536 264.594988 
L 388.515545 258.547325 
L 388.52796 252.254757 
L 388.537194 245.733392 
L 388.543682 239.00421 
L 388.547881 232.093351 
L 388.550271 225.032278 
L 388.551351 217.857795 
L 388.551639 210.611873 
L 388.551661 203.341252 
L 388.551949 196.09533 
L 388.55303 188.920847 
L 388.55542 181.859774 
L 388.559619 174.948915 
L 388.566107 168.219733 
L 388.57534 161.698368 
L 388.587755 155.4058 
L 388.603764 149.358137 
L 388.623762 143.566989 
L 388.648126 138.039898 
L 388.677222 132.780804 
L 388.711412 127.790513 
L 388.751052 123.06716 
L 388.796508 118.606653 
L 388.848155 114.403082 
L 388.906386 110.44909 
L 388.971625 106.736208 
L 389.044328 103.255147 
L 389.124998 99.996054 
L 389.21419 96.948721 
L 389.312532 94.102772 
L 389.420727 91.44781 
L 389.53958 88.973535 
L 389.670007 86.669847 
L 389.813066 84.526913 
L 389.969977 82.535231 
L 390.14216 80.685668 
L 390.331273 78.96949 
L 390.539263 77.37838 
L 390.76843 75.904451 
L 391.02151 74.540248 
L 391.301778 73.278745 
L 391.613188 72.113345 
L 391.960547 71.037873 
L 392.349764 70.046566 
L 392.788176 69.134069 
L 393.285 68.295432 
L 393.851976 67.526108 
L 394.504284 66.821964 
L 395.261899 66.1793 
L 396.151643 65.594888 
L 397.210378 65.066045 
L 398.490188 64.590761 
L 400.067124 64.167928 
L 402.056779 63.797755 
L 404.643801 63.482578 
L 408.142501 63.228531 
L 413.134877 63.049376 
L 420.832642 62.976562 
" clip-path="url(#p33c4809caa)" style="fill: none; stroke: #9e6bb0; stroke-width: 2; stroke-linecap: square"/>
   </g>
   <g id="line2d_34">
    <path d="M 356.270659 350.976562 
L 388.55165 350.976562 
L 388.55165 206.976562 
L 388.55165 62.976562 
L 420.832642 62.976562 
" clip-path="url(#p33c4809caa)" style="fill: none; stroke-dasharray: 5.55,2.4; stroke-dashoffset: 0; stroke: #9e6bb0; stroke-width: 1.5"/>
    <defs>
     <path id="mbe8e1c002f" d="M 0 3 
C 0.795609 3 1.55874 2.683901 2.12132 2.12132 
C 2.683901 1.55874 3 0.795609 3 0 
C 3 -0.795609 2.683901 -1.55874 2.12132 -2.12132 
C 1.55874 -2.683901 0.795609 -3 0 -3 
C -0.795609 -3 -1.55874 -2.683901 -2.12132 -2.12132 
C -2.683901 -1.55874 -3 -0.795609 -3 0 
C -3 0.795609 -2.683901 1.55874 -2.12132 2.12132 
C -1.55874 2.683901 -0.795609 3 0 3 
z
" style="stroke: #9e6bb0"/>
    </defs>
    <g clip-path="url(#p33c4809caa)">
     <use xlink:href="#mbe8e1c002f" x="356.270659" y="350.976562" style="fill: #9e6bb0; stroke: #9e6bb0"/>
     <use xlink:href="#mbe8e1c002f" x="388.55165" y="350.976562" style="fill: #9e6bb0; stroke: #9e6bb0"/>
     <use xlink:href="#mbe8e1c002f" x="388.55165" y="206.976562" style="fill: #9e6bb0; stroke: #9e6bb0"/>
     <use xlink:href="#mbe8e1c002f" x="388.55165" y="62.976562" style="fill: #9e6bb0; stroke: #9e6bb0"/>
     <use xlink:href="#mbe8e1c002f" x="420.832642" y="62.976562" style="fill: #9e6bb0; stroke: #9e6bb0"/>
    </g>
   </g>
   <g id="patch_3">
    <path d="M 47.987187 365.376562 
L 47.987187 32.736562 
" style="fill: none; stroke: #333333; stroke-width: 1.2; stroke-linejoin: miter; stroke-linecap: square"/>
   </g>
   <g id="patch_4">
    <path d="M 438.587188 365.376562 
L 438.587188 32.736562 
" style="fill: none; stroke: #333333; stroke-width: 1.2; stroke-linejoin: miter; stroke-linecap: square"/>
   </g>
   <g id="patch_5">
    <path d="M 47.987187 365.376562 
L 438.587188 365.376562 
" style="fill: none; stroke: #333333; stroke-width: 1.2; stroke-linejoin: miter; stroke-linecap: square"/>
   </g>
   <g id="patch_6">
    <path d="M 47.987187 32.736562 
L 438.587188 32.736562 
" style="fill: none; stroke: #333333; stroke-width: 1.2; stroke-linejoin: miter; stroke-linecap: square"/>
   </g>
   <g id="text_14">
    <!-- cp1 -->
    <g style="fill: #333333" transform="translate(35.689233 356.880937) scale(0.12 -0.12)">
     <defs>
      <path id="DejaVuSans-Bold-63" d="M 3366 3391 
L 3366 2478 
Q 3138 2634 2908 2709 
Q 2678 2784 2431 2784 
Q 1963 2784 1702 2511 
Q 1441 2238 1441 1747 
Q 1441 1256 1702 982 
Q 1963 709 2431 709 
Q 2694 709 2930 787 
Q 3166 866 3366 1019 
L 3366 103 
Q 3103 6 2833 -42 
Q 2563 -91 2291 -91 
Q 1344 -91 809 395 
Q 275 881 275 1747 
Q 275 2613 809 3098 
Q 1344 3584 2291 3584 
Q 2566 3584 2833 3536 
Q 3100 3488 3366 3391 
z
" transform="scale(0.015625)"/>
      <path id="DejaVuSans-Bold-70" d="M 1656 506 
L 1656 -1331 
L 538 -1331 
L 538 3500 
L 1656 3500 
L 1656 2988 
Q 1888 3294 2169 3439 
Q 2450 3584 2816 3584 
Q 3463 3584 3878 3070 
Q 4294 2556 4294 1747 
Q 4294 938 3878 423 
Q 3463 -91 2816 -91 
Q 2450 -91 2169 54 
Q 1888 200 1656 506 
z
M 2400 2772 
Q 2041 2772 1848 2508 
Q 1656 2244 1656 1747 
Q 1656 1250 1848 986 
Q 2041 722 2400 722 
Q 2759 722 2948 984 
Q 3138 1247 3138 1747 
Q 3138 2247 2948 2509 
Q 2759 2772 2400 2772 
z
" transform="scale(0.015625)"/>
      <path id="DejaVuSans-Bold-31" d="M 750 831 
L 1813 831 
L 1813 3847 
L 722 3622 
L 722 4441 
L 1806 4666 
L 2950 4666 
L 2950 831 
L 4013 831 
L 4013 0 
L 750 0 
L 750 831 
z
" transform="scale(0.015625)"/>
     </defs>
     <use xlink:href="#DejaVuSans-Bold-63"/>
     <use xlink:href="#DejaVuSans-Bold-70" transform="translate(59.277344 0)"/>
     <use xlink:href="#DejaVuSans-Bold-31" transform="translate(130.859375 0)"/>
    </g>
   </g>
   <g id="text_15">
    <!-- cp2 -->
    <g style="fill: #333333" transform="translate(100.251216 356.880937) scale(0.12 -0.12)">
     <defs>
      <path id="DejaVuSans-Bold-32" d="M 1844 884 
L 3897 884 
L 3897 0 
L 506 0 
L 506 884 
L 2209 2388 
Q 2438 2594 2547 2791 
Q 2656 2988 2656 3200 
Q 2656 3528 2436 3728 
Q 2216 3928 1850 3928 
Q 1569 3928 1234 3808 
Q 900 3688 519 3450 
L 519 4475 
Q 925 4609 1322 4679 
Q 1719 4750 2100 4750 
Q 2938 4750 3402 4381 
Q 3866 4013 3866 3353 
Q 3866 2972 3669 2642 
Q 3472 2313 2841 1759 
L 1844 884 
z
" transform="scale(0.015625)"/>
     </defs>
     <use xlink:href="#DejaVuSans-Bold-63"/>
     <use xlink:href="#DejaVuSans-Bold-70" transform="translate(59.277344 0)"/>
     <use xlink:href="#DejaVuSans-Bold-32" transform="translate(130.859375 0)"/>
    </g>
   </g>
   <g id="text_16">
    <!-- cp3 -->
    <g style="fill: #333333" transform="translate(100.251216 342.480937) scale(0.12 -0.12)">
     <defs>
      <path id="DejaVuSans-Bold-33" d="M 2981 2516 
Q 3453 2394 3698 2092 
Q 3944 1791 3944 1325 
Q 3944 631 3412 270 
Q 2881 -91 1863 -91 
Q 1503 -91 1142 -33 
Q 781 25 428 141 
L 428 1069 
Q 766 900 1098 814 
Q 1431 728 1753 728 
Q 2231 728 2486 893 
Q 2741 1059 2741 1369 
Q 2741 1688 2480 1852 
Q 2219 2016 1709 2016 
L 1228 2016 
L 1228 2791 
L 1734 2791 
Q 2188 2791 2409 2933 
Q 2631 3075 2631 3366 
Q 2631 3634 2415 3781 
Q 2200 3928 1806 3928 
Q 1516 3928 1219 3862 
Q 922 3797 628 3669 
L 628 4550 
Q 984 4650 1334 4700 
Q 1684 4750 2022 4750 
Q 2931 4750 3382 4451 
Q 3834 4153 3834 3553 
Q 3834 3144 3618 2883 
Q 3403 2622 2981 2516 
z
" transform="scale(0.015625)"/>
     </defs>
     <use xlink:href="#DejaVuSans-Bold-63"/>
     <use xlink:href="#DejaVuSans-Bold-70" transform="translate(59.277344 0)"/>
     <use xlink:href="#DejaVuSans-Bold-33" transform="translate(130.859375 0)"/>
    </g>
   </g>
   <g id="text_17">
    <!-- cp1 -->
    <g style="fill: #333333" transform="translate(100.251216 342.480937) scale(0.12 -0.12)">
     <use xlink:href="#DejaVuSans-Bold-63"/>
     <use xlink:href="#DejaVuSans-Bold-70" transform="translate(59.277344 0)"/>
     <use xlink:href="#DejaVuSans-Bold-31" transform="translate(130.859375 0)"/>
    </g>
   </g>
   <g id="text_18">
    <!-- cp2 -->
    <g style="fill: #333333" transform="translate(100.251216 342.480937) scale(0.12 -0.12)">
     <use xlink:href="#DejaVuSans-Bold-63"/>
     <use xlink:href="#DejaVuSans-Bold-70" transform="translate(59.277344 0)"/>
     <use xlink:href="#DejaVuSans-Bold-32" transform="translate(130.859375 0)"/>
    </g>
   </g>
   <g id="text_19">
    <!-- cp3 -->
    <g style="fill: #333333" transform="translate(100.251216 198.480937) scale(0.12 -0.12)">
     <use xlink:href="#DejaVuSans-Bold-63"/>
     <use xlink:href="#DejaVuSans-Bold-70" transform="translate(59.277344 0)"/>
     <use xlink:href="#DejaVuSans-Bold-33" transform="translate(130.859375 0)"/>
    </g>
   </g>
   <g id="text_20">
    <!-- cp4 -->
    <g style="fill: #333333" transform="translate(100.251216 54.480937) scale(0.12 -0.12)">
     <defs>
      <path id="DejaVuSans-Bold-34" d="M 2356 3675 
L 1038 1722 
L 2356 1722 
L 2356 3675 
z
M 2156 4666 
L 3494 4666 
L 3494 1722 
L 4159 1722 
L 4159 850 
L 3494 850 
L 3494 0 
L 2356 0 
L 2356 850 
L 288 850 
L 288 1881 
L 2156 4666 
z
" transform="scale(0.015625)"/>
     </defs>
     <use xlink:href="#DejaVuSans-Bold-63"/>
     <use xlink:href="#DejaVuSans-Bold-70" transform="translate(59.277344 0)"/>
     <use xlink:href="#DejaVuSans-Bold-34" transform="translate(130.859375 0)"/>
    </g>
   </g>
   <g id="text_21">
    <!-- cp1 -->
    <g style="fill: #333333" transform="translate(132.532208 54.480937) scale(0.12 -0.12)">
     <use xlink:href="#DejaVuSans-Bold-63"/>
     <use xlink:href="#DejaVuSans-Bold-70" transform="translate(59.277344 0)"/>
     <use xlink:href="#DejaVuSans-Bold-31" transform="translate(130.859375 0)"/>
    </g>
   </g>
   <g id="text_22">
    <!-- cp2 -->
    <g style="fill: #333333" transform="translate(164.8132 54.480937) scale(0.12 -0.12)">
     <use xlink:href="#DejaVuSans-Bold-63"/>
     <use xlink:href="#DejaVuSans-Bold-70" transform="translate(59.277344 0)"/>
     <use xlink:href="#DejaVuSans-Bold-32" transform="translate(130.859375 0)"/>
    </g>
   </g>
   <g id="text_23">
    <!-- cp3 -->
    <g style="fill: #333333" transform="translate(164.8132 198.480937) scale(0.12 -0.12)">
     <use xlink:href="#DejaVuSans-Bold-63"/>
     <use xlink:href="#DejaVuSans-Bold-70" transform="translate(59.277344 0)"/>
     <use xlink:href="#DejaVuSans-Bold-33" transform="translate(130.859375 0)"/>
    </g>
   </g>
   <g id="text_24">
    <!-- cp4 -->
    <g style="fill: #333333" transform="translate(164.8132 342.480937) scale(0.12 -0.12)">
     <use xlink:href="#DejaVuSans-Bold-63"/>
     <use xlink:href="#DejaVuSans-Bold-70" transform="translate(59.277344 0)"/>
     <use xlink:href="#DejaVuSans-Bold-34" transform="translate(130.859375 0)"/>
    </g>
   </g>
   <g id="text_25">
    <!-- cp1 -->
    <g style="fill: #333333" transform="translate(197.094192 342.480937) scale(0.12 -0.12)">
     <use xlink:href="#DejaVuSans-Bold-63"/>
     <use xlink:href="#DejaVuSans-Bold-70" transform="translate(59.277344 0)"/>
     <use xlink:href="#DejaVuSans-Bold-31" transform="translate(130.859375 0)"/>
    </g>
   </g>
   <g id="text_26">
    <!-- cp2 -->
    <g style="fill: #333333" transform="translate(229.375183 342.480937) scale(0.12 -0.12)">
     <use xlink:href="#DejaVuSans-Bold-63"/>
     <use xlink:href="#DejaVuSans-Bold-70" transform="translate(59.277344 0)"/>
     <use xlink:href="#DejaVuSans-Bold-32" transform="translate(130.859375 0)"/>
    </g>
   </g>
   <g id="text_27">
    <!-- cp3 -->
    <g style="fill: #333333" transform="translate(229.375183 198.480937) scale(0.12 -0.12)">
     <use xlink:href="#DejaVuSans-Bold-63"/>
     <use xlink:href="#DejaVuSans-Bold-70" transform="translate(59.277344 0)"/>
     <use xlink:href="#DejaVuSans-Bold-33" transform="translate(130.859375 0)"/>
    </g>
   </g>
   <g id="text_28">
    <!-- cp4 -->
    <g style="fill: #333333" transform="translate(229.375183 54.480937) scale(0.12 -0.12)">
     <use xlink:href="#DejaVuSans-Bold-63"/>
     <use xlink:href="#DejaVuSans-Bold-70" transform="translate(59.277344 0)"/>
     <use xlink:href="#DejaVuSans-Bold-34" transform="translate(130.859375 0)"/>
    </g>
   </g>
   <g id="text_29">
    <!-- cp1 -->
    <g style="fill: #333333" transform="translate(261.656175 54.480937) scale(0.12 -0.12)">
     <use xlink:href="#DejaVuSans-Bold-63"/>
     <use xlink:href="#DejaVuSans-Bold-70" transform="translate(59.277344 0)"/>
     <use xlink:href="#DejaVuSans-Bold-31" transform="translate(130.859375 0)"/>
    </g>
   </g>
   <g id="text_30">
    <!-- cp2 -->
    <g style="fill: #333333" transform="translate(293.937167 54.480937) scale(0.12 -0.12)">
     <use xlink:href="#DejaVuSans-Bold-63"/>
     <use xlink:href="#DejaVuSans-Bold-70" transform="translate(59.277344 0)"/>
     <use xlink:href="#DejaVuSans-Bold-32" transform="translate(130.859375 0)"/>
    </g>
   </g>
   <g id="text_31">
    <!-- cp3 -->
    <g style="fill: #333333" transform="translate(293.937167 198.480937) scale(0.12 -0.12)">
     <use xlink:href="#DejaVuSans-Bold-63"/>
     <use xlink:href="#DejaVuSans-Bold-70" transform="translate(59.277344 0)"/>
     <use xlink:href="#DejaVuSans-Bold-33" transform="translate(130.859375 0)"/>
    </g>
   </g>
   <g id="text_32">
    <!-- cp4 -->
    <g style="fill: #333333" transform="translate(293.937167 342.480937) scale(0.12 -0.12)">
     <use xlink:href="#DejaVuSans-Bold-63"/>
     <use xlink:href="#DejaVuSans-Bold-70" transform="translate(59.277344 0)"/>
     <use xlink:href="#DejaVuSans-Bold-34" transform="translate(130.859375 0)"/>
    </g>
   </g>
   <g id="text_33">
    <!-- cp1 -->
    <g style="fill: #333333" transform="translate(326.218159 342.480937) scale(0.12 -0.12)">
     <use xlink:href="#DejaVuSans-Bold-63"/>
     <use xlink:href="#DejaVuSans-Bold-70" transform="translate(59.277344 0)"/>
     <use xlink:href="#DejaVuSans-Bold-31" transform="translate(130.859375 0)"/>
    </g>
   </g>
   <g id="text_34">
    <!-- cp2 -->
    <g style="fill: #333333" transform="translate(358.49915 342.480937) scale(0.12 -0.12)">
     <use xlink:href="#DejaVuSans-Bold-63"/>
     <use xlink:href="#DejaVuSans-Bold-70" transform="translate(59.277344 0)"/>
     <use xlink:href="#DejaVuSans-Bold-32" transform="translate(130.859375 0)"/>
    </g>
   </g>
   <g id="text_35">
    <!-- cp3 -->
    <g style="fill: #333333" transform="translate(358.49915 198.480937) scale(0.12 -0.12)">
     <use xlink:href="#DejaVuSans-Bold-63"/>
     <use xlink:href="#DejaVuSans-Bold-70" transform="translate(59.277344 0)"/>
     <use xlink:href="#DejaVuSans-Bold-33" transform="translate(130.859375 0)"/>
    </g>
   </g>
   <g id="text_36">
    <!-- cp4 -->
    <g style="fill: #333333" transform="translate(358.49915 54.480937) scale(0.12 -0.12)">
     <use xlink:href="#DejaVuSans-Bold-63"/>
     <use xlink:href="#DejaVuSans-Bold-70" transform="translate(59.277344 0)"/>
     <use xlink:href="#DejaVuSans-Bold-34" transform="translate(130.859375 0)"/>
    </g>
   </g>
   <g id="text_37">
    <!-- cp5 -->
    <g style="fill: #333333" transform="translate(390.780142 54.480937) scale(0.12 -0.12)">
     <defs>
      <path id="DejaVuSans-Bold-35" d="M 678 4666 
L 3669 4666 
L 3669 3781 
L 1638 3781 
L 1638 3059 
Q 1775 3097 1914 3117 
Q 2053 3138 2203 3138 
Q 3056 3138 3531 2711 
Q 4006 2284 4006 1522 
Q 4006 766 3489 337 
Q 2972 -91 2053 -91 
Q 1656 -91 1267 -14 
Q 878 63 494 219 
L 494 1166 
Q 875 947 1217 837 
Q 1559 728 1863 728 
Q 2300 728 2551 942 
Q 2803 1156 2803 1522 
Q 2803 1891 2551 2103 
Q 2300 2316 1863 2316 
Q 1603 2316 1309 2248 
Q 1016 2181 678 2041 
L 678 4666 
z
" transform="scale(0.015625)"/>
     </defs>
     <use xlink:href="#DejaVuSans-Bold-63"/>
     <use xlink:href="#DejaVuSans-Bold-70" transform="translate(59.277344 0)"/>
     <use xlink:href="#DejaVuSans-Bold-35" transform="translate(130.859375 0)"/>
    </g>
   </g>
   <g id="text_38">
    <!-- A: 1D NURBS Curve Segments -->
    <g transform="translate(47.987187 20.736562) scale(0.18 -0.18)">
     <defs>
      <path id="DejaVuSans-Bold-41" d="M 3419 850 
L 1538 850 
L 1241 0 
L 31 0 
L 1759 4666 
L 3194 4666 
L 4922 0 
L 3713 0 
L 3419 850 
z
M 1838 1716 
L 3116 1716 
L 2478 3572 
L 1838 1716 
z
" transform="scale(0.015625)"/>
      <path id="DejaVuSans-Bold-3a" d="M 716 3500 
L 1844 3500 
L 1844 2291 
L 716 2291 
L 716 3500 
z
M 716 1209 
L 1844 1209 
L 1844 0 
L 716 0 
L 716 1209 
z
" transform="scale(0.015625)"/>
      <path id="DejaVuSans-Bold-20" transform="scale(0.015625)"/>
      <path id="DejaVuSans-Bold-44" d="M 1791 3756 
L 1791 909 
L 2222 909 
Q 2959 909 3348 1275 
Q 3738 1641 3738 2338 
Q 3738 3031 3350 3393 
Q 2963 3756 2222 3756 
L 1791 3756 
z
M 588 4666 
L 1856 4666 
Q 2919 4666 3439 4514 
Q 3959 4363 4331 4000 
Q 4659 3684 4818 3271 
Q 4978 2859 4978 2338 
Q 4978 1809 4818 1395 
Q 4659 981 4331 666 
Q 3956 303 3431 151 
Q 2906 0 1856 0 
L 588 0 
L 588 4666 
z
" transform="scale(0.015625)"/>
      <path id="DejaVuSans-Bold-4e" d="M 588 4666 
L 1931 4666 
L 3628 1466 
L 3628 4666 
L 4769 4666 
L 4769 0 
L 3425 0 
L 1728 3200 
L 1728 0 
L 588 0 
L 588 4666 
z
" transform="scale(0.015625)"/>
      <path id="DejaVuSans-Bold-55" d="M 588 4666 
L 1791 4666 
L 1791 1869 
Q 1791 1291 1980 1042 
Q 2169 794 2597 794 
Q 3028 794 3217 1042 
Q 3406 1291 3406 1869 
L 3406 4666 
L 4609 4666 
L 4609 1869 
Q 4609 878 4112 393 
Q 3616 -91 2597 -91 
Q 1581 -91 1084 393 
Q 588 878 588 1869 
L 588 4666 
z
" transform="scale(0.015625)"/>
      <path id="DejaVuSans-Bold-52" d="M 2297 2597 
Q 2675 2597 2839 2737 
Q 3003 2878 3003 3200 
Q 3003 3519 2839 3656 
Q 2675 3794 2297 3794 
L 1791 3794 
L 1791 2597 
L 2297 2597 
z
M 1791 1766 
L 1791 0 
L 588 0 
L 588 4666 
L 2425 4666 
Q 3347 4666 3776 4356 
Q 4206 4047 4206 3378 
Q 4206 2916 3982 2619 
Q 3759 2322 3309 2181 
Q 3556 2125 3751 1926 
Q 3947 1728 4147 1325 
L 4800 0 
L 3519 0 
L 2950 1159 
Q 2778 1509 2601 1637 
Q 2425 1766 2131 1766 
L 1791 1766 
z
" transform="scale(0.015625)"/>
      <path id="DejaVuSans-Bold-42" d="M 2456 2859 
Q 2741 2859 2887 2984 
Q 3034 3109 3034 3353 
Q 3034 3594 2887 3720 
Q 2741 3847 2456 3847 
L 1791 3847 
L 1791 2859 
L 2456 2859 
z
M 2497 819 
Q 2859 819 3042 972 
Q 3225 1125 3225 1434 
Q 3225 1738 3044 1889 
Q 2863 2041 2497 2041 
L 1791 2041 
L 1791 819 
L 2497 819 
z
M 3616 2497 
Q 4003 2384 4215 2081 
Q 4428 1778 4428 1338 
Q 4428 663 3972 331 
Q 3516 0 2584 0 
L 588 0 
L 588 4666 
L 2394 4666 
Q 3366 4666 3802 4372 
Q 4238 4078 4238 3431 
Q 4238 3091 4078 2852 
Q 3919 2613 3616 2497 
z
" transform="scale(0.015625)"/>
      <path id="DejaVuSans-Bold-53" d="M 3834 4519 
L 3834 3531 
Q 3450 3703 3084 3790 
Q 2719 3878 2394 3878 
Q 1963 3878 1756 3759 
Q 1550 3641 1550 3391 
Q 1550 3203 1689 3098 
Q 1828 2994 2194 2919 
L 2706 2816 
Q 3484 2659 3812 2340 
Q 4141 2022 4141 1434 
Q 4141 663 3683 286 
Q 3225 -91 2284 -91 
Q 1841 -91 1394 -6 
Q 947 78 500 244 
L 500 1259 
Q 947 1022 1364 901 
Q 1781 781 2169 781 
Q 2563 781 2772 912 
Q 2981 1044 2981 1288 
Q 2981 1506 2839 1625 
Q 2697 1744 2272 1838 
L 1806 1941 
Q 1106 2091 782 2419 
Q 459 2747 459 3303 
Q 459 4000 909 4375 
Q 1359 4750 2203 4750 
Q 2588 4750 2994 4692 
Q 3400 4634 3834 4519 
z
" transform="scale(0.015625)"/>
      <path id="DejaVuSans-Bold-43" d="M 4288 256 
Q 3956 84 3597 -3 
Q 3238 -91 2847 -91 
Q 1681 -91 1000 561 
Q 319 1213 319 2328 
Q 319 3447 1000 4098 
Q 1681 4750 2847 4750 
Q 3238 4750 3597 4662 
Q 3956 4575 4288 4403 
L 4288 3438 
Q 3953 3666 3628 3772 
Q 3303 3878 2944 3878 
Q 2300 3878 1931 3465 
Q 1563 3053 1563 2328 
Q 1563 1606 1931 1193 
Q 2300 781 2944 781 
Q 3303 781 3628 887 
Q 3953 994 4288 1222 
L 4288 256 
z
" transform="scale(0.015625)"/>
      <path id="DejaVuSans-Bold-75" d="M 500 1363 
L 500 3500 
L 1625 3500 
L 1625 3150 
Q 1625 2866 1622 2436 
Q 1619 2006 1619 1863 
Q 1619 1441 1641 1255 
Q 1663 1069 1716 984 
Q 1784 875 1895 815 
Q 2006 756 2150 756 
Q 2500 756 2700 1025 
Q 2900 1294 2900 1772 
L 2900 3500 
L 4019 3500 
L 4019 0 
L 2900 0 
L 2900 506 
Q 2647 200 2364 54 
Q 2081 -91 1741 -91 
Q 1134 -91 817 281 
Q 500 653 500 1363 
z
" transform="scale(0.015625)"/>
      <path id="DejaVuSans-Bold-72" d="M 3138 2547 
Q 2991 2616 2845 2648 
Q 2700 2681 2553 2681 
Q 2122 2681 1889 2404 
Q 1656 2128 1656 1613 
L 1656 0 
L 538 0 
L 538 3500 
L 1656 3500 
L 1656 2925 
Q 1872 3269 2151 3426 
Q 2431 3584 2822 3584 
Q 2878 3584 2943 3579 
Q 3009 3575 3134 3559 
L 3138 2547 
z
" transform="scale(0.015625)"/>
      <path id="DejaVuSans-Bold-76" d="M 97 3500 
L 1216 3500 
L 2088 1081 
L 2956 3500 
L 4078 3500 
L 2700 0 
L 1472 0 
L 97 3500 
z
" transform="scale(0.015625)"/>
      <path id="DejaVuSans-Bold-65" d="M 4031 1759 
L 4031 1441 
L 1416 1441 
Q 1456 1047 1700 850 
Q 1944 653 2381 653 
Q 2734 653 3104 758 
Q 3475 863 3866 1075 
L 3866 213 
Q 3469 63 3072 -14 
Q 2675 -91 2278 -91 
Q 1328 -91 801 392 
Q 275 875 275 1747 
Q 275 2603 792 3093 
Q 1309 3584 2216 3584 
Q 3041 3584 3536 3087 
Q 4031 2591 4031 1759 
z
M 2881 2131 
Q 2881 2450 2695 2645 
Q 2509 2841 2209 2841 
Q 1884 2841 1681 2658 
Q 1478 2475 1428 2131 
L 2881 2131 
z
" transform="scale(0.015625)"/>
      <path id="DejaVuSans-Bold-67" d="M 2919 594 
Q 2688 288 2409 144 
Q 2131 0 1766 0 
Q 1125 0 706 504 
Q 288 1009 288 1791 
Q 288 2575 706 3076 
Q 1125 3578 1766 3578 
Q 2131 3578 2409 3434 
Q 2688 3291 2919 2981 
L 2919 3500 
L 4044 3500 
L 4044 353 
Q 4044 -491 3511 -936 
Q 2978 -1381 1966 -1381 
Q 1638 -1381 1331 -1331 
Q 1025 -1281 716 -1178 
L 716 -306 
Q 1009 -475 1290 -558 
Q 1572 -641 1856 -641 
Q 2406 -641 2662 -400 
Q 2919 -159 2919 353 
L 2919 594 
z
M 2181 2772 
Q 1834 2772 1640 2515 
Q 1447 2259 1447 1791 
Q 1447 1309 1634 1061 
Q 1822 813 2181 813 
Q 2531 813 2725 1069 
Q 2919 1325 2919 1791 
Q 2919 2259 2725 2515 
Q 2531 2772 2181 2772 
z
" transform="scale(0.015625)"/>
      <path id="DejaVuSans-Bold-6d" d="M 3781 2919 
Q 3994 3244 4286 3414 
Q 4578 3584 4928 3584 
Q 5531 3584 5847 3212 
Q 6163 2841 6163 2131 
L 6163 0 
L 5038 0 
L 5038 1825 
Q 5041 1866 5042 1909 
Q 5044 1953 5044 2034 
Q 5044 2406 4934 2573 
Q 4825 2741 4581 2741 
Q 4263 2741 4089 2478 
Q 3916 2216 3909 1719 
L 3909 0 
L 2784 0 
L 2784 1825 
Q 2784 2406 2684 2573 
Q 2584 2741 2328 2741 
Q 2006 2741 1831 2477 
Q 1656 2213 1656 1722 
L 1656 0 
L 531 0 
L 531 3500 
L 1656 3500 
L 1656 2988 
Q 1863 3284 2130 3434 
Q 2397 3584 2719 3584 
Q 3081 3584 3359 3409 
Q 3638 3234 3781 2919 
z
" transform="scale(0.015625)"/>
      <path id="DejaVuSans-Bold-6e" d="M 4056 2131 
L 4056 0 
L 2931 0 
L 2931 347 
L 2931 1631 
Q 2931 2084 2911 2256 
Q 2891 2428 2841 2509 
Q 2775 2619 2662 2680 
Q 2550 2741 2406 2741 
Q 2056 2741 1856 2470 
Q 1656 2200 1656 1722 
L 1656 0 
L 538 0 
L 538 3500 
L 1656 3500 
L 1656 2988 
Q 1909 3294 2193 3439 
Q 2478 3584 2822 3584 
Q 3428 3584 3742 3212 
Q 4056 2841 4056 2131 
z
" transform="scale(0.015625)"/>
      <path id="DejaVuSans-Bold-74" d="M 1759 4494 
L 1759 3500 
L 2913 3500 
L 2913 2700 
L 1759 2700 
L 1759 1216 
Q 1759 972 1856 886 
Q 1953 800 2241 800 
L 2816 800 
L 2816 0 
L 1856 0 
Q 1194 0 917 276 
Q 641 553 641 1216 
L 641 2700 
L 84 2700 
L 84 3500 
L 641 3500 
L 641 4494 
L 1759 4494 
z
" transform="scale(0.015625)"/>
      <path id="DejaVuSans-Bold-73" d="M 3272 3391 
L 3272 2541 
Q 2913 2691 2578 2766 
Q 2244 2841 1947 2841 
Q 1628 2841 1473 2761 
Q 1319 2681 1319 2516 
Q 1319 2381 1436 2309 
Q 1553 2238 1856 2203 
L 2053 2175 
Q 2913 2066 3209 1816 
Q 3506 1566 3506 1031 
Q 3506 472 3093 190 
Q 2681 -91 1863 -91 
Q 1516 -91 1145 -36 
Q 775 19 384 128 
L 384 978 
Q 719 816 1070 734 
Q 1422 653 1784 653 
Q 2113 653 2278 743 
Q 2444 834 2444 1013 
Q 2444 1163 2330 1236 
Q 2216 1309 1875 1350 
L 1678 1375 
Q 931 1469 631 1722 
Q 331 1975 331 2491 
Q 331 3047 712 3315 
Q 1094 3584 1881 3584 
Q 2191 3584 2531 3537 
Q 2872 3491 3272 3391 
z
" transform="scale(0.015625)"/>
     </defs>
     <use xlink:href="#DejaVuSans-Bold-41"/>
     <use xlink:href="#DejaVuSans-Bold-3a" transform="translate(79.267578 0)"/>
     <use xlink:href="#DejaVuSans-Bold-20" transform="translate(119.257812 0)"/>
     <use xlink:href="#DejaVuSans-Bold-31" transform="translate(154.072266 0)"/>
     <use xlink:href="#DejaVuSans-Bold-44" transform="translate(223.652344 0)"/>
     <use xlink:href="#DejaVuSans-Bold-20" transform="translate(306.660156 0)"/>
     <use xlink:href="#DejaVuSans-Bold-4e" transform="translate(341.474609 0)"/>
     <use xlink:href="#DejaVuSans-Bold-55" transform="translate(425.166016 0)"/>
     <use xlink:href="#DejaVuSans-Bold-52" transform="translate(506.367188 0)"/>
     <use xlink:href="#DejaVuSans-Bold-42" transform="translate(583.369141 0)"/>
     <use xlink:href="#DejaVuSans-Bold-53" transform="translate(659.589844 0)"/>
     <use xlink:href="#DejaVuSans-Bold-20" transform="translate(731.611328 0)"/>
     <use xlink:href="#DejaVuSans-Bold-43" transform="translate(766.425781 0)"/>
     <use xlink:href="#DejaVuSans-Bold-75" transform="translate(839.814453 0)"/>
     <use xlink:href="#DejaVuSans-Bold-72" transform="translate(911.005859 0)"/>
     <use xlink:href="#DejaVuSans-Bold-76" transform="translate(960.322266 0)"/>
     <use xlink:href="#DejaVuSans-Bold-65" transform="translate(1025.507812 0)"/>
     <use xlink:href="#DejaVuSans-Bold-20" transform="translate(1093.330078 0)"/>
     <use xlink:href="#DejaVuSans-Bold-53" transform="translate(1128.144531 0)"/>
     <use xlink:href="#DejaVuSans-Bold-65" transform="translate(1200.166016 0)"/>
     <use xlink:href="#DejaVuSans-Bold-67" transform="translate(1267.988281 0)"/>
     <use xlink:href="#DejaVuSans-Bold-6d" transform="translate(1339.570312 0)"/>
     <use xlink:href="#DejaVuSans-Bold-65" transform="translate(1443.769531 0)"/>
     <use xlink:href="#DejaVuSans-Bold-6e" transform="translate(1511.591797 0)"/>
     <use xlink:href="#DejaVuSans-Bold-74" transform="translate(1582.783203 0)"/>
     <use xlink:href="#DejaVuSans-Bold-73" transform="translate(1630.585938 0)"/>
    </g>
   </g>
  </g>
 </g>
 <defs>
  <clipPath id="p33c4809caa">
   <rect x="47.987187" y="32.736562" width="390.6" height="332.64"/>
  </clipPath>
 </defs>
</svg>
