<?xml version="1.0" encoding="utf-8" standalone="no"?>
<!DOCTYPE svg PUBLIC "-//W3C//DTD SVG 1.1//EN"
  "http://www.w3.org/Graphics/SVG/1.1/DTD/svg11.dtd">
<svg xmlns:xlink="http://www.w3.org/1999/xlink" width="411.228375pt" height="411.080312pt" viewBox="0 0 411.228375 411.080312" xmlns="http://www.w3.org/2000/svg" version="1.1">
 <metadata>
  <rdf:RDF xmlns:dc="http://purl.org/dc/elements/1.1/" xmlns:cc="http://creativecommons.org/ns#" xmlns:rdf="http://www.w3.org/1999/02/22-rdf-syntax-ns#">
   <cc:Work>
    <dc:type rdf:resource="http://purl.org/dc/dcmitype/StillImage"/>
    <dc:date>2025-10-30T23:12:40.516910</dc:date>
    <dc:format>image/svg+xml</dc:format>
    <dc:creator>
     <cc:Agent>
      <dc:title>Matplotlib v3.10.6, https://matplotlib.org/</dc:title>
     </cc:Agent>
    </dc:creator>
   </cc:Work>
  </rdf:RDF>
 </metadata>
 <defs>
  <style type="text/css">*{stroke-linejoin: round; stroke-linecap: butt}</style>
 </defs>
 <g id="figure_1">
  <g id="patch_1">
   <path d="M 0 411.080312 
L 411.228375 411.080312 
L 411.228375 0 
L 0 0 
z
" style="fill: #ffffff"/>
  </g>
  <g id="axes_1">
   <g id="patch_2">
    <path d="M 48.519375 366.217188 
L 404.028375 366.217188 
L 404.028375 30.877187 
L 48.519375 30.877187 
z
" style="fill: #fafafa"/>
   </g>
   <g id="matplotlib.axis_1">
    <g id="xtick_1">
     <g id="line2d_1">
      <path d="M 64.678875 366.217188 
L 64.678875 30.877187 
" clip-path="url(#p30e38cdb1d)" style="fill: none; stroke-dasharray: 0.8,1.32; stroke-dashoffset: 0; stroke: #b0b0b0; stroke-opacity: 0.3; stroke-width: 0.8"/>
     </g>
     <g id="line2d_2">
      <defs>
       <path id="m9cf6805326" d="M 0 0 
L 0 5 
" style="stroke: #000000; stroke-width: 1.2"/>
      </defs>
      <g>
       <use xlink:href="#m9cf6805326" x="64.678875" y="366.217188" style="stroke: #000000; stroke-width: 1.2"/>
      </g>
     </g>
     <g id="text_1">
      <!-- 0 -->
      <g transform="translate(60.861375 383.835312) scale(0.12 -0.12)">
       <defs>
        <path id="DejaVuSans-30" d="M 2034 4250 
Q 1547 4250 1301 3770 
Q 1056 3291 1056 2328 
Q 1056 1369 1301 889 
Q 1547 409 2034 409 
Q 2525 409 2770 889 
Q 3016 1369 3016 2328 
Q 3016 3291 2770 3770 
Q 2525 4250 2034 4250 
z
M 2034 4750 
Q 2819 4750 3233 4129 
Q 3647 3509 3647 2328 
Q 3647 1150 3233 529 
Q 2819 -91 2034 -91 
Q 1250 -91 836 529 
Q 422 1150 422 2328 
Q 422 3509 836 4129 
Q 1250 4750 2034 4750 
z
" transform="scale(0.015625)"/>
       </defs>
       <use xlink:href="#DejaVuSans-30"/>
      </g>
     </g>
    </g>
    <g id="xtick_2">
     <g id="line2d_3">
      <path d="M 113.278875 366.217188 
L 113.278875 30.877187 
" clip-path="url(#p30e38cdb1d)" style="fill: none; stroke-dasharray: 0.8,1.32; stroke-dashoffset: 0; stroke: #b0b0b0; stroke-opacity: 0.3; stroke-width: 0.8"/>
     </g>
     <g id="line2d_4">
      <g>
       <use xlink:href="#m9cf6805326" x="113.278875" y="366.217188" style="stroke: #000000; stroke-width: 1.2"/>
      </g>
     </g>
     <g id="text_2">
      <!-- 5 -->
      <g transform="translate(109.461375 383.835312) scale(0.12 -0.12)">
       <defs>
        <path id="DejaVuSans-35" d="M 691 4666 
L 3169 4666 
L 3169 4134 
L 1269 4134 
L 1269 2991 
Q 1406 3038 1543 3061 
Q 1681 3084 1819 3084 
Q 2600 3084 3056 2656 
Q 3513 2228 3513 1497 
Q 3513 744 3044 326 
Q 2575 -91 1722 -91 
Q 1428 -91 1123 -41 
Q 819 9 494 109 
L 494 744 
Q 775 591 1075 516 
Q 1375 441 1709 441 
Q 2250 441 2565 725 
Q 2881 1009 2881 1497 
Q 2881 1984 2565 2268 
Q 2250 2553 1709 2553 
Q 1456 2553 1204 2497 
Q 953 2441 691 2322 
L 691 4666 
z
" transform="scale(0.015625)"/>
       </defs>
       <use xlink:href="#DejaVuSans-35"/>
      </g>
     </g>
    </g>
    <g id="xtick_3">
     <g id="line2d_5">
      <path d="M 161.878875 366.217188 
L 161.878875 30.877187 
" clip-path="url(#p30e38cdb1d)" style="fill: none; stroke-dasharray: 0.8,1.32; stroke-dashoffset: 0; stroke: #b0b0b0; stroke-opacity: 0.3; stroke-width: 0.8"/>
     </g>
     <g id="line2d_6">
      <g>
       <use xlink:href="#m9cf6805326" x="161.878875" y="366.217188" style="stroke: #000000; stroke-width: 1.2"/>
      </g>
     </g>
     <g id="text_3">
      <!-- 10 -->
      <g transform="translate(154.243875 383.835312) scale(0.12 -0.12)">
       <defs>
        <path id="DejaVuSans-31" d="M 794 531 
L 1825 531 
L 1825 4091 
L 703 3866 
L 703 4441 
L 1819 4666 
L 2450 4666 
L 2450 531 
L 3481 531 
L 3481 0 
L 794 0 
L 794 531 
z
" transform="scale(0.015625)"/>
       </defs>
       <use xlink:href="#DejaVuSans-31"/>
       <use xlink:href="#DejaVuSans-30" transform="translate(63.623047 0)"/>
      </g>
     </g>
    </g>
    <g id="xtick_4">
     <g id="line2d_7">
      <path d="M 210.478875 366.217188 
L 210.478875 30.877187 
" clip-path="url(#p30e38cdb1d)" style="fill: none; stroke-dasharray: 0.8,1.32; stroke-dashoffset: 0; stroke: #b0b0b0; stroke-opacity: 0.3; stroke-width: 0.8"/>
     </g>
     <g id="line2d_8">
      <g>
       <use xlink:href="#m9cf6805326" x="210.478875" y="366.217188" style="stroke: #000000; stroke-width: 1.2"/>
      </g>
     </g>
     <g id="text_4">
      <!-- 15 -->
      <g transform="translate(202.843875 383.835312) scale(0.12 -0.12)">
       <use xlink:href="#DejaVuSans-31"/>
       <use xlink:href="#DejaVuSans-35" transform="translate(63.623047 0)"/>
      </g>
     </g>
    </g>
    <g id="xtick_5">
     <g id="line2d_9">
      <path d="M 259.078875 366.217188 
L 259.078875 30.877187 
" clip-path="url(#p30e38cdb1d)" style="fill: none; stroke-dasharray: 0.8,1.32; stroke-dashoffset: 0; stroke: #b0b0b0; stroke-opacity: 0.3; stroke-width: 0.8"/>
     </g>
     <g id="line2d_10">
      <g>
       <use xlink:href="#m9cf6805326" x="259.078875" y="366.217188" style="stroke: #000000; stroke-width: 1.2"/>
      </g>
     </g>
     <g id="text_5">
      <!-- 20 -->
      <g transform="translate(251.443875 383.835312) scale(0.12 -0.12)">
       <defs>
        <path id="DejaVuSans-32" d="M 1228 531 
L 3431 531 
L 3431 0 
L 469 0 
L 469 531 
Q 828 903 1448 1529 
Q 2069 2156 2228 2338 
Q 2531 2678 2651 2914 
Q 2772 3150 2772 3378 
Q 2772 3750 2511 3984 
Q 2250 4219 1831 4219 
Q 1534 4219 1204 4116 
Q 875 4013 500 3803 
L 500 4441 
Q 881 4594 1212 4672 
Q 1544 4750 1819 4750 
Q 2544 4750 2975 4387 
Q 3406 4025 3406 3419 
Q 3406 3131 3298 2873 
Q 3191 2616 2906 2266 
Q 2828 2175 2409 1742 
Q 1991 1309 1228 531 
z
" transform="scale(0.015625)"/>
       </defs>
       <use xlink:href="#DejaVuSans-32"/>
       <use xlink:href="#DejaVuSans-30" transform="translate(63.623047 0)"/>
      </g>
     </g>
    </g>
    <g id="xtick_6">
     <g id="line2d_11">
      <path d="M 307.678875 366.217188 
L 307.678875 30.877187 
" clip-path="url(#p30e38cdb1d)" style="fill: none; stroke-dasharray: 0.8,1.32; stroke-dashoffset: 0; stroke: #b0b0b0; stroke-opacity: 0.3; stroke-width: 0.8"/>
     </g>
     <g id="line2d_12">
      <g>
       <use xlink:href="#m9cf6805326" x="307.678875" y="366.217188" style="stroke: #000000; stroke-width: 1.2"/>
      </g>
     </g>
     <g id="text_6">
      <!-- 25 -->
      <g transform="translate(300.043875 383.835312) scale(0.12 -0.12)">
       <use xlink:href="#DejaVuSans-32"/>
       <use xlink:href="#DejaVuSans-35" transform="translate(63.623047 0)"/>
      </g>
     </g>
    </g>
    <g id="xtick_7">
     <g id="line2d_13">
      <path d="M 356.278875 366.217188 
L 356.278875 30.877187 
" clip-path="url(#p30e38cdb1d)" style="fill: none; stroke-dasharray: 0.8,1.32; stroke-dashoffset: 0; stroke: #b0b0b0; stroke-opacity: 0.3; stroke-width: 0.8"/>
     </g>
     <g id="line2d_14">
      <g>
       <use xlink:href="#m9cf6805326" x="356.278875" y="366.217188" style="stroke: #000000; stroke-width: 1.2"/>
      </g>
     </g>
     <g id="text_7">
      <!-- 30 -->
      <g transform="translate(348.643875 383.835312) scale(0.12 -0.12)">
       <defs>
        <path id="DejaVuSans-33" d="M 2597 2516 
Q 3050 2419 3304 2112 
Q 3559 1806 3559 1356 
Q 3559 666 3084 287 
Q 2609 -91 1734 -91 
Q 1441 -91 1130 -33 
Q 819 25 488 141 
L 488 750 
Q 750 597 1062 519 
Q 1375 441 1716 441 
Q 2309 441 2620 675 
Q 2931 909 2931 1356 
Q 2931 1769 2642 2001 
Q 2353 2234 1838 2234 
L 1294 2234 
L 1294 2753 
L 1863 2753 
Q 2328 2753 2575 2939 
Q 2822 3125 2822 3475 
Q 2822 3834 2567 4026 
Q 2313 4219 1838 4219 
Q 1578 4219 1281 4162 
Q 984 4106 628 3988 
L 628 4550 
Q 988 4650 1302 4700 
Q 1616 4750 1894 4750 
Q 2613 4750 3031 4423 
Q 3450 4097 3450 3541 
Q 3450 3153 3228 2886 
Q 3006 2619 2597 2516 
z
" transform="scale(0.015625)"/>
       </defs>
       <use xlink:href="#DejaVuSans-33"/>
       <use xlink:href="#DejaVuSans-30" transform="translate(63.623047 0)"/>
      </g>
     </g>
    </g>
    <g id="xtick_8">
     <g id="line2d_15">
      <defs>
       <path id="m9aa4900f32" d="M 0 0 
L 0 3 
" style="stroke: #000000; stroke-width: 0.8"/>
      </defs>
      <g>
       <use xlink:href="#m9aa4900f32" x="54.958875" y="366.217188" style="stroke: #000000; stroke-width: 0.8"/>
      </g>
     </g>
    </g>
    <g id="xtick_9">
     <g id="line2d_16">
      <g>
       <use xlink:href="#m9aa4900f32" x="74.398875" y="366.217188" style="stroke: #000000; stroke-width: 0.8"/>
      </g>
     </g>
    </g>
    <g id="xtick_10">
     <g id="line2d_17">
      <g>
       <use xlink:href="#m9aa4900f32" x="84.118875" y="366.217188" style="stroke: #000000; stroke-width: 0.8"/>
      </g>
     </g>
    </g>
    <g id="xtick_11">
     <g id="line2d_18">
      <g>
       <use xlink:href="#m9aa4900f32" x="93.838875" y="366.217188" style="stroke: #000000; stroke-width: 0.8"/>
      </g>
     </g>
    </g>
    <g id="xtick_12">
     <g id="line2d_19">
      <g>
       <use xlink:href="#m9aa4900f32" x="103.558875" y="366.217188" style="stroke: #000000; stroke-width: 0.8"/>
      </g>
     </g>
    </g>
    <g id="xtick_13">
     <g id="line2d_20">
      <g>
       <use xlink:href="#m9aa4900f32" x="122.998875" y="366.217188" style="stroke: #000000; stroke-width: 0.8"/>
      </g>
     </g>
    </g>
    <g id="xtick_14">
     <g id="line2d_21">
      <g>
       <use xlink:href="#m9aa4900f32" x="132.718875" y="366.217188" style="stroke: #000000; stroke-width: 0.8"/>
      </g>
     </g>
    </g>
    <g id="xtick_15">
     <g id="line2d_22">
      <g>
       <use xlink:href="#m9aa4900f32" x="142.438875" y="366.217188" style="stroke: #000000; stroke-width: 0.8"/>
      </g>
     </g>
    </g>
    <g id="xtick_16">
     <g id="line2d_23">
      <g>
       <use xlink:href="#m9aa4900f32" x="152.158875" y="366.217188" style="stroke: #000000; stroke-width: 0.8"/>
      </g>
     </g>
    </g>
    <g id="xtick_17">
     <g id="line2d_24">
      <g>
       <use xlink:href="#m9aa4900f32" x="171.598875" y="366.217188" style="stroke: #000000; stroke-width: 0.8"/>
      </g>
     </g>
    </g>
    <g id="xtick_18">
     <g id="line2d_25">
      <g>
       <use xlink:href="#m9aa4900f32" x="181.318875" y="366.217188" style="stroke: #000000; stroke-width: 0.8"/>
      </g>
     </g>
    </g>
    <g id="xtick_19">
     <g id="line2d_26">
      <g>
       <use xlink:href="#m9aa4900f32" x="191.038875" y="366.217188" style="stroke: #000000; stroke-width: 0.8"/>
      </g>
     </g>
    </g>
    <g id="xtick_20">
     <g id="line2d_27">
      <g>
       <use xlink:href="#m9aa4900f32" x="200.758875" y="366.217188" style="stroke: #000000; stroke-width: 0.8"/>
      </g>
     </g>
    </g>
    <g id="xtick_21">
     <g id="line2d_28">
      <g>
       <use xlink:href="#m9aa4900f32" x="220.198875" y="366.217188" style="stroke: #000000; stroke-width: 0.8"/>
      </g>
     </g>
    </g>
    <g id="xtick_22">
     <g id="line2d_29">
      <g>
       <use xlink:href="#m9aa4900f32" x="229.918875" y="366.217188" style="stroke: #000000; stroke-width: 0.8"/>
      </g>
     </g>
    </g>
    <g id="xtick_23">
     <g id="line2d_30">
      <g>
       <use xlink:href="#m9aa4900f32" x="239.638875" y="366.217188" style="stroke: #000000; stroke-width: 0.8"/>
      </g>
     </g>
    </g>
    <g id="xtick_24">
     <g id="line2d_31">
      <g>
       <use xlink:href="#m9aa4900f32" x="249.358875" y="366.217188" style="stroke: #000000; stroke-width: 0.8"/>
      </g>
     </g>
    </g>
    <g id="xtick_25">
     <g id="line2d_32">
      <g>
       <use xlink:href="#m9aa4900f32" x="268.798875" y="366.217188" style="stroke: #000000; stroke-width: 0.8"/>
      </g>
     </g>
    </g>
    <g id="xtick_26">
     <g id="line2d_33">
      <g>
       <use xlink:href="#m9aa4900f32" x="278.518875" y="366.217188" style="stroke: #000000; stroke-width: 0.8"/>
      </g>
     </g>
    </g>
    <g id="xtick_27">
     <g id="line2d_34">
      <g>
       <use xlink:href="#m9aa4900f32" x="288.238875" y="366.217188" style="stroke: #000000; stroke-width: 0.8"/>
      </g>
     </g>
    </g>
    <g id="xtick_28">
     <g id="line2d_35">
      <g>
       <use xlink:href="#m9aa4900f32" x="297.958875" y="366.217188" style="stroke: #000000; stroke-width: 0.8"/>
      </g>
     </g>
    </g>
    <g id="xtick_29">
     <g id="line2d_36">
      <g>
       <use xlink:href="#m9aa4900f32" x="317.398875" y="366.217188" style="stroke: #000000; stroke-width: 0.8"/>
      </g>
     </g>
    </g>
    <g id="xtick_30">
     <g id="line2d_37">
      <g>
       <use xlink:href="#m9aa4900f32" x="327.118875" y="366.217188" style="stroke: #000000; stroke-width: 0.8"/>
      </g>
     </g>
    </g>
    <g id="xtick_31">
     <g id="line2d_38">
      <g>
       <use xlink:href="#m9aa4900f32" x="336.838875" y="366.217188" style="stroke: #000000; stroke-width: 0.8"/>
      </g>
     </g>
    </g>
    <g id="xtick_32">
     <g id="line2d_39">
      <g>
       <use xlink:href="#m9aa4900f32" x="346.558875" y="366.217188" style="stroke: #000000; stroke-width: 0.8"/>
      </g>
     </g>
    </g>
    <g id="xtick_33">
     <g id="line2d_40">
      <g>
       <use xlink:href="#m9aa4900f32" x="365.998875" y="366.217188" style="stroke: #000000; stroke-width: 0.8"/>
      </g>
     </g>
    </g>
    <g id="xtick_34">
     <g id="line2d_41">
      <g>
       <use xlink:href="#m9aa4900f32" x="375.718875" y="366.217188" style="stroke: #000000; stroke-width: 0.8"/>
      </g>
     </g>
    </g>
    <g id="xtick_35">
     <g id="line2d_42">
      <g>
       <use xlink:href="#m9aa4900f32" x="385.438875" y="366.217188" style="stroke: #000000; stroke-width: 0.8"/>
      </g>
     </g>
    </g>
    <g id="xtick_36">
     <g id="line2d_43">
      <g>
       <use xlink:href="#m9aa4900f32" x="395.158875" y="366.217188" style="stroke: #000000; stroke-width: 0.8"/>
      </g>
     </g>
    </g>
    <g id="text_8">
     <!-- X [mm] -->
     <g transform="translate(200.155125 400.96875) scale(0.14 -0.14)">
      <defs>
       <path id="DejaVuSans-58" d="M 403 4666 
L 1081 4666 
L 2241 2931 
L 3406 4666 
L 4084 4666 
L 2584 2425 
L 4184 0 
L 3506 0 
L 2194 1984 
L 872 0 
L 191 0 
L 1856 2491 
L 403 4666 
z
" transform="scale(0.015625)"/>
       <path id="DejaVuSans-20" transform="scale(0.015625)"/>
       <path id="DejaVuSans-5b" d="M 550 4863 
L 1875 4863 
L 1875 4416 
L 1125 4416 
L 1125 -397 
L 1875 -397 
L 1875 -844 
L 550 -844 
L 550 4863 
z
" transform="scale(0.015625)"/>
       <path id="DejaVuSans-6d" d="M 3328 2828 
Q 3544 3216 3844 3400 
Q 4144 3584 4550 3584 
Q 5097 3584 5394 3201 
Q 5691 2819 5691 2113 
L 5691 0 
L 5113 0 
L 5113 2094 
Q 5113 2597 4934 2840 
Q 4756 3084 4391 3084 
Q 3944 3084 3684 2787 
Q 3425 2491 3425 1978 
L 3425 0 
L 2847 0 
L 2847 2094 
Q 2847 2600 2669 2842 
Q 2491 3084 2119 3084 
Q 1678 3084 1418 2786 
Q 1159 2488 1159 1978 
L 1159 0 
L 581 0 
L 581 3500 
L 1159 3500 
L 1159 2956 
Q 1356 3278 1631 3431 
Q 1906 3584 2284 3584 
Q 2666 3584 2933 3390 
Q 3200 3197 3328 2828 
z
" transform="scale(0.015625)"/>
       <path id="DejaVuSans-5d" d="M 1947 4863 
L 1947 -844 
L 622 -844 
L 622 -397 
L 1369 -397 
L 1369 4416 
L 622 4416 
L 622 4863 
L 1947 4863 
z
" transform="scale(0.015625)"/>
      </defs>
      <use xlink:href="#DejaVuSans-58"/>
      <use xlink:href="#DejaVuSans-20" transform="translate(68.505859 0)"/>
      <use xlink:href="#DejaVuSans-5b" transform="translate(100.292969 0)"/>
      <use xlink:href="#DejaVuSans-6d" transform="translate(139.306641 0)"/>
      <use xlink:href="#DejaVuSans-6d" transform="translate(236.71875 0)"/>
      <use xlink:href="#DejaVuSans-5d" transform="translate(334.130859 0)"/>
     </g>
    </g>
   </g>
   <g id="matplotlib.axis_2">
    <g id="ytick_1">
     <g id="line2d_44">
      <path d="M 48.519375 322.963188 
L 404.028375 322.963188 
" clip-path="url(#p30e38cdb1d)" style="fill: none; stroke-dasharray: 0.8,1.32; stroke-dashoffset: 0; stroke: #b0b0b0; stroke-opacity: 0.3; stroke-width: 0.8"/>
     </g>
     <g id="line2d_45">
      <defs>
       <path id="ma0fdb37119" d="M 0 0 
L -5 0 
" style="stroke: #000000; stroke-width: 1.2"/>
      </defs>
      <g>
       <use xlink:href="#ma0fdb37119" x="48.519375" y="322.963188" style="stroke: #000000; stroke-width: 1.2"/>
      </g>
     </g>
     <g id="text_9">
      <!-- 0 -->
      <g transform="translate(32.384375 327.52225) scale(0.12 -0.12)">
       <use xlink:href="#DejaVuSans-30"/>
      </g>
     </g>
    </g>
    <g id="ytick_2">
     <g id="line2d_46">
      <path d="M 48.519375 274.363187 
L 404.028375 274.363187 
" clip-path="url(#p30e38cdb1d)" style="fill: none; stroke-dasharray: 0.8,1.32; stroke-dashoffset: 0; stroke: #b0b0b0; stroke-opacity: 0.3; stroke-width: 0.8"/>
     </g>
     <g id="line2d_47">
      <g>
       <use xlink:href="#ma0fdb37119" x="48.519375" y="274.363187" style="stroke: #000000; stroke-width: 1.2"/>
      </g>
     </g>
     <g id="text_10">
      <!-- 5 -->
      <g transform="translate(32.384375 278.92225) scale(0.12 -0.12)">
       <use xlink:href="#DejaVuSans-35"/>
      </g>
     </g>
    </g>
    <g id="ytick_3">
     <g id="line2d_48">
      <path d="M 48.519375 225.763188 
L 404.028375 225.763188 
" clip-path="url(#p30e38cdb1d)" style="fill: none; stroke-dasharray: 0.8,1.32; stroke-dashoffset: 0; stroke: #b0b0b0; stroke-opacity: 0.3; stroke-width: 0.8"/>
     </g>
     <g id="line2d_49">
      <g>
       <use xlink:href="#ma0fdb37119" x="48.519375" y="225.763188" style="stroke: #000000; stroke-width: 1.2"/>
      </g>
     </g>
     <g id="text_11">
      <!-- 10 -->
      <g transform="translate(24.749375 230.32225) scale(0.12 -0.12)">
       <use xlink:href="#DejaVuSans-31"/>
       <use xlink:href="#DejaVuSans-30" transform="translate(63.623047 0)"/>
      </g>
     </g>
    </g>
    <g id="ytick_4">
     <g id="line2d_50">
      <path d="M 48.519375 177.163187 
L 404.028375 177.163187 
" clip-path="url(#p30e38cdb1d)" style="fill: none; stroke-dasharray: 0.8,1.32; stroke-dashoffset: 0; stroke: #b0b0b0; stroke-opacity: 0.3; stroke-width: 0.8"/>
     </g>
     <g id="line2d_51">
      <g>
       <use xlink:href="#ma0fdb37119" x="48.519375" y="177.163187" style="stroke: #000000; stroke-width: 1.2"/>
      </g>
     </g>
     <g id="text_12">
      <!-- 15 -->
      <g transform="translate(24.749375 181.72225) scale(0.12 -0.12)">
       <use xlink:href="#DejaVuSans-31"/>
       <use xlink:href="#DejaVuSans-35" transform="translate(63.623047 0)"/>
      </g>
     </g>
    </g>
    <g id="ytick_5">
     <g id="line2d_52">
      <path d="M 48.519375 128.563187 
L 404.028375 128.563187 
" clip-path="url(#p30e38cdb1d)" style="fill: none; stroke-dasharray: 0.8,1.32; stroke-dashoffset: 0; stroke: #b0b0b0; stroke-opacity: 0.3; stroke-width: 0.8"/>
     </g>
     <g id="line2d_53">
      <g>
       <use xlink:href="#ma0fdb37119" x="48.519375" y="128.563187" style="stroke: #000000; stroke-width: 1.2"/>
      </g>
     </g>
     <g id="text_13">
      <!-- 20 -->
      <g transform="translate(24.749375 133.12225) scale(0.12 -0.12)">
       <use xlink:href="#DejaVuSans-32"/>
       <use xlink:href="#DejaVuSans-30" transform="translate(63.623047 0)"/>
      </g>
     </g>
    </g>
    <g id="ytick_6">
     <g id="line2d_54">
      <path d="M 48.519375 79.963187 
L 404.028375 79.963187 
" clip-path="url(#p30e38cdb1d)" style="fill: none; stroke-dasharray: 0.8,1.32; stroke-dashoffset: 0; stroke: #b0b0b0; stroke-opacity: 0.3; stroke-width: 0.8"/>
     </g>
     <g id="line2d_55">
      <g>
       <use xlink:href="#ma0fdb37119" x="48.519375" y="79.963187" style="stroke: #000000; stroke-width: 1.2"/>
      </g>
     </g>
     <g id="text_14">
      <!-- 25 -->
      <g transform="translate(24.749375 84.52225) scale(0.12 -0.12)">
       <use xlink:href="#DejaVuSans-32"/>
       <use xlink:href="#DejaVuSans-35" transform="translate(63.623047 0)"/>
      </g>
     </g>
    </g>
    <g id="ytick_7">
     <g id="line2d_56">
      <path d="M 48.519375 31.363187 
L 404.028375 31.363187 
" clip-path="url(#p30e38cdb1d)" style="fill: none; stroke-dasharray: 0.8,1.32; stroke-dashoffset: 0; stroke: #b0b0b0; stroke-opacity: 0.3; stroke-width: 0.8"/>
     </g>
     <g id="line2d_57">
      <g>
       <use xlink:href="#ma0fdb37119" x="48.519375" y="31.363187" style="stroke: #000000; stroke-width: 1.2"/>
      </g>
     </g>
     <g id="text_15">
      <!-- 30 -->
      <g transform="translate(24.749375 35.92225) scale(0.12 -0.12)">
       <use xlink:href="#DejaVuSans-33"/>
       <use xlink:href="#DejaVuSans-30" transform="translate(63.623047 0)"/>
      </g>
     </g>
    </g>
    <g id="ytick_8">
     <g id="line2d_58">
      <defs>
       <path id="mf303dd238a" d="M 0 0 
L -3 0 
" style="stroke: #000000; stroke-width: 0.8"/>
      </defs>
      <g>
       <use xlink:href="#mf303dd238a" x="48.519375" y="361.843187" style="stroke: #000000; stroke-width: 0.8"/>
      </g>
     </g>
    </g>
    <g id="ytick_9">
     <g id="line2d_59">
      <g>
       <use xlink:href="#mf303dd238a" x="48.519375" y="352.123188" style="stroke: #000000; stroke-width: 0.8"/>
      </g>
     </g>
    </g>
    <g id="ytick_10">
     <g id="line2d_60">
      <g>
       <use xlink:href="#mf303dd238a" x="48.519375" y="342.403188" style="stroke: #000000; stroke-width: 0.8"/>
      </g>
     </g>
    </g>
    <g id="ytick_11">
     <g id="line2d_61">
      <g>
       <use xlink:href="#mf303dd238a" x="48.519375" y="332.683188" style="stroke: #000000; stroke-width: 0.8"/>
      </g>
     </g>
    </g>
    <g id="ytick_12">
     <g id="line2d_62">
      <g>
       <use xlink:href="#mf303dd238a" x="48.519375" y="313.243187" style="stroke: #000000; stroke-width: 0.8"/>
      </g>
     </g>
    </g>
    <g id="ytick_13">
     <g id="line2d_63">
      <g>
       <use xlink:href="#mf303dd238a" x="48.519375" y="303.523188" style="stroke: #000000; stroke-width: 0.8"/>
      </g>
     </g>
    </g>
    <g id="ytick_14">
     <g id="line2d_64">
      <g>
       <use xlink:href="#mf303dd238a" x="48.519375" y="293.803187" style="stroke: #000000; stroke-width: 0.8"/>
      </g>
     </g>
    </g>
    <g id="ytick_15">
     <g id="line2d_65">
      <g>
       <use xlink:href="#mf303dd238a" x="48.519375" y="284.083188" style="stroke: #000000; stroke-width: 0.8"/>
      </g>
     </g>
    </g>
    <g id="ytick_16">
     <g id="line2d_66">
      <g>
       <use xlink:href="#mf303dd238a" x="48.519375" y="264.643188" style="stroke: #000000; stroke-width: 0.8"/>
      </g>
     </g>
    </g>
    <g id="ytick_17">
     <g id="line2d_67">
      <g>
       <use xlink:href="#mf303dd238a" x="48.519375" y="254.923187" style="stroke: #000000; stroke-width: 0.8"/>
      </g>
     </g>
    </g>
    <g id="ytick_18">
     <g id="line2d_68">
      <g>
       <use xlink:href="#mf303dd238a" x="48.519375" y="245.203188" style="stroke: #000000; stroke-width: 0.8"/>
      </g>
     </g>
    </g>
    <g id="ytick_19">
     <g id="line2d_69">
      <g>
       <use xlink:href="#mf303dd238a" x="48.519375" y="235.483187" style="stroke: #000000; stroke-width: 0.8"/>
      </g>
     </g>
    </g>
    <g id="ytick_20">
     <g id="line2d_70">
      <g>
       <use xlink:href="#mf303dd238a" x="48.519375" y="216.043187" style="stroke: #000000; stroke-width: 0.8"/>
      </g>
     </g>
    </g>
    <g id="ytick_21">
     <g id="line2d_71">
      <g>
       <use xlink:href="#mf303dd238a" x="48.519375" y="206.323187" style="stroke: #000000; stroke-width: 0.8"/>
      </g>
     </g>
    </g>
    <g id="ytick_22">
     <g id="line2d_72">
      <g>
       <use xlink:href="#mf303dd238a" x="48.519375" y="196.603187" style="stroke: #000000; stroke-width: 0.8"/>
      </g>
     </g>
    </g>
    <g id="ytick_23">
     <g id="line2d_73">
      <g>
       <use xlink:href="#mf303dd238a" x="48.519375" y="186.883187" style="stroke: #000000; stroke-width: 0.8"/>
      </g>
     </g>
    </g>
    <g id="ytick_24">
     <g id="line2d_74">
      <g>
       <use xlink:href="#mf303dd238a" x="48.519375" y="167.443187" style="stroke: #000000; stroke-width: 0.8"/>
      </g>
     </g>
    </g>
    <g id="ytick_25">
     <g id="line2d_75">
      <g>
       <use xlink:href="#mf303dd238a" x="48.519375" y="157.723187" style="stroke: #000000; stroke-width: 0.8"/>
      </g>
     </g>
    </g>
    <g id="ytick_26">
     <g id="line2d_76">
      <g>
       <use xlink:href="#mf303dd238a" x="48.519375" y="148.003187" style="stroke: #000000; stroke-width: 0.8"/>
      </g>
     </g>
    </g>
    <g id="ytick_27">
     <g id="line2d_77">
      <g>
       <use xlink:href="#mf303dd238a" x="48.519375" y="138.283187" style="stroke: #000000; stroke-width: 0.8"/>
      </g>
     </g>
    </g>
    <g id="ytick_28">
     <g id="line2d_78">
      <g>
       <use xlink:href="#mf303dd238a" x="48.519375" y="118.843187" style="stroke: #000000; stroke-width: 0.8"/>
      </g>
     </g>
    </g>
    <g id="ytick_29">
     <g id="line2d_79">
      <g>
       <use xlink:href="#mf303dd238a" x="48.519375" y="109.123188" style="stroke: #000000; stroke-width: 0.8"/>
      </g>
     </g>
    </g>
    <g id="ytick_30">
     <g id="line2d_80">
      <g>
       <use xlink:href="#mf303dd238a" x="48.519375" y="99.403188" style="stroke: #000000; stroke-width: 0.8"/>
      </g>
     </g>
    </g>
    <g id="ytick_31">
     <g id="line2d_81">
      <g>
       <use xlink:href="#mf303dd238a" x="48.519375" y="89.683187" style="stroke: #000000; stroke-width: 0.8"/>
      </g>
     </g>
    </g>
    <g id="ytick_32">
     <g id="line2d_82">
      <g>
       <use xlink:href="#mf303dd238a" x="48.519375" y="70.243187" style="stroke: #000000; stroke-width: 0.8"/>
      </g>
     </g>
    </g>
    <g id="ytick_33">
     <g id="line2d_83">
      <g>
       <use xlink:href="#mf303dd238a" x="48.519375" y="60.523188" style="stroke: #000000; stroke-width: 0.8"/>
      </g>
     </g>
    </g>
    <g id="ytick_34">
     <g id="line2d_84">
      <g>
       <use xlink:href="#mf303dd238a" x="48.519375" y="50.803187" style="stroke: #000000; stroke-width: 0.8"/>
      </g>
     </g>
    </g>
    <g id="ytick_35">
     <g id="line2d_85">
      <g>
       <use xlink:href="#mf303dd238a" x="48.519375" y="41.083188" style="stroke: #000000; stroke-width: 0.8"/>
      </g>
     </g>
    </g>
    <g id="text_16">
     <!-- Y [mm] -->
     <g transform="translate(17.837813 224.146406) rotate(-90) scale(0.14 -0.14)">
      <defs>
       <path id="DejaVuSans-59" d="M -13 4666 
L 666 4666 
L 1959 2747 
L 3244 4666 
L 3922 4666 
L 2272 2222 
L 2272 0 
L 1638 0 
L 1638 2222 
L -13 4666 
z
" transform="scale(0.015625)"/>
      </defs>
      <use xlink:href="#DejaVuSans-59"/>
      <use xlink:href="#DejaVuSans-20" transform="translate(61.083984 0)"/>
      <use xlink:href="#DejaVuSans-5b" transform="translate(92.871094 0)"/>
      <use xlink:href="#DejaVuSans-6d" transform="translate(131.884766 0)"/>
      <use xlink:href="#DejaVuSans-6d" transform="translate(229.296875 0)"/>
      <use xlink:href="#DejaVuSans-5d" transform="translate(326.708984 0)"/>
     </g>
    </g>
   </g>
   <g id="patch_3">
    <path d="M 64.678875 313.243187 
L 67.172073 313.24287 
L 69.665272 313.242552 
L 72.15847 313.242157 
L 74.651668 313.241134 
L 77.144867 313.240111 
L 79.638064 313.238571 
L 82.131262 313.236763 
L 84.62446 313.234471 
L 87.117656 313.231795 
L 89.610853 313.228419 
L 92.104048 313.224646 
L 94.597242 313.219963 
L 97.090434 313.214453 
L 99.583624 313.208042 
L 102.076811 313.2005 
L 104.569994 313.191579 
L 107.06317 313.181015 
L 109.556337 313.168522 
L 112.04949 313.153559 
L 114.542622 313.135481 
L 117.035723 313.11344 
L 119.528773 313.086344 
L 122.021738 313.052321 
L 124.514554 313.0088 
L 127.007053 312.950115 
L 129.498849 312.866919 
L 131.989065 312.745848 
L 132.920322 310.99071 
L 133.021991 308.499624 
L 133.092063 306.007418 
L 133.144652 303.514777 
L 133.188311 301.021961 
L 133.225738 298.529044 
L 133.258618 296.036063 
L 133.287964 293.543038 
L 133.314566 291.049981 
L 133.338876 288.556901 
L 133.361333 286.063804 
L 133.382196 283.570693 
L 133.401759 281.077572 
L 133.420146 278.584441 
L 133.437556 276.091303 
L 133.454096 273.59816 
L 133.469866 271.105011 
L 133.484954 268.611859 
L 133.499438 266.118702 
L 133.51339 263.625543 
L 133.52687 261.132381 
L 133.539896 258.639217 
L 133.55254 256.14605 
L 133.564847 253.652882 
L 133.576816 251.159713 
L 133.588523 248.666542 
L 133.599953 246.173369 
L 133.611168 243.680196 
L 133.622171 241.187022 
L 133.632989 238.693847 
L 133.643656 236.200672 
L 133.654164 233.707495 
L 133.664556 231.214319 
L 133.674847 228.721141 
L 133.685042 226.227964 
L 133.686616 223.734786 
L 133.676622 221.241607 
L 133.666665 218.748429 
L 133.656728 216.25525 
L 133.6468 213.762072 
L 133.636898 211.268893 
L 133.627058 208.775714 
L 133.617308 206.282535 
L 133.607676 203.789355 
L 133.598207 201.296174 
L 133.588949 198.802993 
L 133.579919 196.309811 
L 133.571183 193.816628 
L 133.562806 191.323444 
L 133.554799 188.830258 
L 133.5473 186.337071 
L 133.540314 183.843882 
L 133.533976 181.350692 
L 133.528347 178.8575 
L 133.523584 176.364306 
L 133.519732 173.871111 
L 133.5171 171.377914 
L 133.515735 168.884716 
L 133.515868 166.391517 
L 133.517813 163.89832 
L 133.521915 161.405125 
L 133.528512 158.911935 
L 133.538087 156.418756 
L 133.551355 153.925593 
L 133.569078 151.432458 
L 133.592116 148.939367 
L 133.622209 146.446351 
L 133.660937 143.953455 
L 133.711036 141.460764 
L 133.774117 138.968367 
L 133.855904 136.47652 
L 133.965478 133.98575 
L 134.116544 131.497179 
L 134.320494 129.012419 
L 134.613475 126.53666 
L 135.038537 124.080407 
L 135.65754 121.666206 
L 136.539393 119.335933 
L 137.731191 117.148788 
L 139.247992 115.173483 
L 141.072665 113.478911 
L 143.146758 112.100877 
L 145.40662 111.053528 
L 147.785232 110.311497 
L 150.228719 109.819846 
L 152.702072 109.508532 
L 155.187732 109.316425 
L 157.67846 109.208566 
L 160.171175 109.161542 
L 162.664316 109.147125 
L 165.157494 109.152378 
L 167.650533 109.178342 
L 170.143103 109.232993 
L 172.634395 109.328156 
L 175.122013 109.492918 
L 177.600518 109.76025 
L 180.056126 110.187394 
L 182.460207 110.842981 
L 184.763842 111.79072 
L 186.902522 113.066442 
L 188.809959 114.667237 
L 190.421993 116.565371 
L 191.710014 118.696881 
L 192.680431 120.991263 
L 193.368384 123.386436 
L 193.84368 125.83333 
L 194.169126 128.30496 
L 194.394695 130.7878 
L 194.55985 133.27548 
L 194.679474 135.765784 
L 194.76815 138.257394 
L 194.835516 140.749677 
L 194.889424 143.242289 
L 194.931056 145.735137 
L 194.963329 148.228125 
L 194.988304 150.721198 
L 195.007402 153.214322 
L 195.021777 155.707479 
L 195.032351 158.200655 
L 195.039755 160.693842 
L 195.04451 163.187036 
L 195.047049 165.680233 
L 195.047727 168.173431 
L 195.046779 170.666629 
L 195.044423 173.159826 
L 195.040944 175.653022 
L 195.036418 178.146217 
L 195.031025 180.639409 
L 195.024879 183.1326 
L 195.018074 185.625789 
L 195.010697 188.118977 
L 195.002854 190.612163 
L 194.994554 193.105347 
L 194.985923 195.598531 
L 194.976979 198.091713 
L 194.967769 200.584894 
L 194.95836 203.078075 
L 194.948777 205.571255 
L 194.939051 208.064434 
L 194.929232 210.557614 
L 194.934434 213.050792 
L 194.944467 215.54397 
L 194.954489 218.037148 
L 194.964561 220.530326 
L 194.974749 223.023504 
L 194.985134 225.516681 
L 194.99576 228.009856 
L 195.006687 230.503031 
L 195.018055 232.996203 
L 195.029877 235.489374 
L 195.042218 237.982542 
L 195.055286 240.475706 
L 195.06905 242.968866 
L 195.083677 245.462022 
L 195.099307 247.955171 
L 195.115997 250.448314 
L 195.134021 252.941447 
L 195.153423 255.43457 
L 195.174483 257.927679 
L 195.197434 260.420772 
L 195.222431 262.913845 
L 195.249892 265.406892 
L 195.280221 267.899905 
L 195.31376 270.392878 
L 195.351053 272.885797 
L 195.392747 275.378646 
L 195.439607 277.871404 
L 195.492797 280.364034 
L 195.554246 282.856473 
L 195.626067 285.348634 
L 195.709799 287.840423 
L 195.808663 290.331654 
L 195.927139 292.822027 
L 196.072674 295.310958 
L 196.26028 297.797027 
L 196.510132 300.277578 
L 196.880458 302.742594 
L 199.026615 303.333077 
L 201.517471 303.438905 
L 204.010005 303.495776 
L 206.50297 303.528145 
L 208.996131 303.538539 
L 211.489295 303.529543 
L 213.982216 303.494422 
L 216.473678 303.403763 
L 218.95929 303.215265 
L 219.543106 300.939484 
L 219.816983 298.461552 
L 220.019749 295.976674 
L 220.17392 293.488266 
L 220.298706 290.998203 
L 220.402364 288.507168 
L 220.489732 286.015505 
L 220.564472 283.523429 
L 220.628724 281.031061 
L 220.683676 278.538469 
L 220.732192 276.045744 
L 220.775243 273.552918 
L 220.813647 271.060015 
L 220.848097 268.567055 
L 220.879173 266.074051 
L 220.907365 263.581012 
L 220.933086 261.087946 
L 220.956514 258.594858 
L 220.978028 256.101753 
L 220.997929 253.608634 
L 221.016223 251.115503 
L 221.033329 248.622363 
L 221.049168 246.129215 
L 221.064078 243.636061 
L 221.078058 241.142902 
L 221.091268 238.649738 
L 221.103848 236.156572 
L 221.115774 233.663402 
L 221.127239 231.17023 
L 221.138307 228.677056 
L 221.148996 226.18388 
L 221.159429 223.690704 
L 221.16967 221.197527 
L 221.16203 218.704348 
L 221.152104 216.211169 
L 221.142177 213.717991 
L 221.132275 211.224812 
L 221.122437 208.731633 
L 221.112689 206.238454 
L 221.103058 203.745274 
L 221.093594 201.252093 
L 221.084339 198.758912 
L 221.075313 196.26573 
L 221.066585 193.772547 
L 221.058213 191.279363 
L 221.050211 188.786177 
L 221.042725 186.29299 
L 221.035746 183.799801 
L 221.029424 181.306611 
L 221.023803 178.813419 
L 221.019061 176.320225 
L 221.015225 173.827029 
L 221.012614 171.333832 
L 221.011278 168.840634 
L 221.011445 166.347436 
L 221.013409 163.854238 
L 221.017552 161.361044 
L 221.024196 158.867854 
L 221.033826 156.374675 
L 221.047189 153.881512 
L 221.064988 151.388378 
L 221.088112 148.895287 
L 221.118358 146.402273 
L 221.157271 143.909381 
L 221.207597 141.416694 
L 221.270959 138.924304 
L 221.353091 136.432468 
L 221.463253 133.941724 
L 221.615327 131.453215 
L 221.820406 128.968551 
L 222.115372 126.49303 
L 222.54345 124.037307 
L 223.166732 121.62421 
L 224.0541 119.296002 
L 225.252654 117.112478 
L 226.777806 115.143709 
L 228.608115 113.455359 
L 230.687056 112.084588 
L 232.950791 111.045438 
L 235.331933 110.311559 
L 237.776483 109.825387 
L 240.250215 109.517046 
L 242.736085 109.327385 
L 245.226675 109.214718 
L 247.719055 109.152162 
L 250.212131 109.131548 
L 252.705307 109.137294 
L 255.198339 109.163874 
L 257.690894 109.219235 
L 260.182118 109.316117 
L 262.669586 109.483058 
L 265.147809 109.753071 
L 267.602347 110.18633 
L 270.004765 110.847934 
L 272.304929 111.804062 
L 274.439118 113.087285 
L 276.340567 114.695237 
L 277.945181 116.599693 
L 279.22667 118.735123 
L 280.190493 121.032251 
L 280.873813 123.428715 
L 281.3465 125.876117 
L 281.669662 128.348064 
L 281.893476 130.831069 
L 282.057835 133.3188 
L 282.176766 135.809137 
L 282.265078 138.30076 
L 282.332133 140.793051 
L 282.385815 143.285668 
L 282.427252 145.77852 
L 282.459365 148.27151 
L 282.48425 150.764584 
L 282.503232 153.257709 
L 282.517542 155.750866 
L 282.528059 158.244042 
L 282.535413 160.73723 
L 282.540125 163.230424 
L 282.542626 165.723621 
L 282.54327 168.216819 
L 282.542308 170.710017 
L 282.539924 173.203214 
L 282.536423 175.69641 
L 282.531886 178.189604 
L 282.526475 180.682797 
L 282.52032 183.175988 
L 282.5135 185.669177 
L 282.506117 188.162364 
L 282.498263 190.65555 
L 282.489959 193.148735 
L 282.481323 195.641918 
L 282.472371 198.135101 
L 282.463159 200.628282 
L 282.453747 203.121463 
L 282.44416 205.614643 
L 282.434433 208.107822 
L 282.424613 210.601001 
L 282.414728 213.09418 
L 282.408963 215.587359 
L 282.418986 218.080537 
L 282.42906 220.573715 
L 282.439251 223.066892 
L 282.449639 225.560069 
L 282.460269 228.053245 
L 282.471202 230.546419 
L 282.48258 233.039592 
L 282.494409 235.532762 
L 282.506763 238.02593 
L 282.519842 240.519094 
L 282.533617 243.012254 
L 282.548266 245.50541 
L 282.563909 247.998559 
L 282.580627 250.491701 
L 282.598666 252.984834 
L 282.618103 255.477957 
L 282.639181 257.971066 
L 282.662174 260.464159 
L 282.687218 262.957231 
L 282.714705 265.450278 
L 282.74509 267.943291 
L 282.778692 270.436263 
L 282.816056 272.929181 
L 282.85783 275.422028 
L 282.904778 277.914784 
L 282.958123 280.407411 
L 283.019752 282.899845 
L 283.091711 285.392003 
L 283.175682 287.883784 
L 283.274832 290.375004 
L 283.393777 292.865354 
L 283.539746 295.354259 
L 283.728274 297.840258 
L 283.979389 300.320681 
L 284.352798 302.785218 
L 286.522413 303.349608 
L 289.013286 303.455016 
L 291.506008 303.501361 
L 293.999148 303.51762 
L 296.492337 303.522856 
L 298.9855 303.513736 
L 301.478416 303.478301 
L 303.96986 303.387213 
L 306.455402 303.197822 
L 307.013042 300.896077 
L 307.285233 298.417957 
L 307.487011 295.933 
L 307.640578 293.444556 
L 307.764999 290.954475 
L 307.868351 288.463426 
L 307.955463 285.971754 
L 308.029988 283.479672 
L 308.094058 280.987299 
L 308.148904 278.494705 
L 308.197325 276.001978 
L 308.240291 273.50915 
L 308.27862 271.016247 
L 308.313002 268.523286 
L 308.344018 266.030281 
L 308.372157 263.537241 
L 308.39783 261.044175 
L 308.421237 258.551087 
L 308.442711 256.057981 
L 308.462594 253.564862 
L 308.480856 251.07173 
L 308.497946 248.57859 
L 308.51376 246.085442 
L 308.528658 243.592288 
L 308.542616 241.099129 
L 308.555817 238.605966 
L 308.568382 236.112799 
L 308.580301 233.619629 
L 308.591759 231.126457 
L 308.602823 228.633283 
L 308.613504 226.140107 
L 308.623933 223.646931 
L 308.634171 221.153753 
L 308.644268 218.660576 
L 308.647482 216.167397 
L 308.637575 213.674218 
L 308.627783 211.181039 
L 308.618289 208.687859 
L 308.609191 206.194677 
L 308.600617 203.701493 
L 308.592787 201.208307 
L 308.585855 198.715119 
L 308.579914 196.221927 
L 308.575274 193.728733 
L 308.572122 191.235537 
L 308.570532 188.742339 
L 308.571123 186.249141 
L 308.573791 183.755944 
L 308.57919 181.262752 
L 308.587413 178.769567 
L 308.599224 176.276397 
L 308.614677 173.783247 
L 308.634949 171.290131 
L 308.660297 168.797063 
L 308.691525 166.304061 
L 308.729681 163.811155 
L 308.776216 161.318392 
L 308.832308 158.825827 
L 308.897988 156.333496 
L 308.976385 153.841535 
L 309.070763 151.350129 
L 309.184852 148.859552 
L 309.322507 146.370171 
L 309.490254 143.882641 
L 309.689799 141.397472 
L 309.936528 138.916571 
L 310.240527 136.442036 
L 310.619554 133.977981 
L 311.092576 131.53034 
L 311.688399 129.1098 
L 312.436551 126.732105 
L 313.373486 124.4225 
L 314.526371 122.213103 
L 315.912369 120.142423 
L 317.532621 118.249661 
L 319.36989 116.566755 
L 321.398452 115.119934 
L 323.576863 113.910116 
L 325.867455 112.928425 
L 328.234074 112.146632 
L 330.650641 111.535141 
L 333.097655 111.059187 
L 335.562181 110.683497 
L 338.03796 110.389771 
L 340.520261 110.157707 
L 343.006319 109.969468 
L 345.494882 109.817889 
L 347.984946 109.69331 
L 350.47604 109.591208 
L 352.967824 109.507485 
L 355.460059 109.438451 
L 357.952543 109.379107 
L 360.44518 109.326222 
L 362.937645 109.265755 
L 365.430424 109.223528 
L 367.923493 109.198058 
L 370.416614 109.178837 
L 372.909756 109.162019 
L 375.402921 109.149746 
L 377.896102 109.140449 
L 380.389285 109.131635 
L 382.882481 109.128819 
L 385.375678 109.126003 
L 387.868875 109.123188 
L 387.868875 128.563187 
L 385.371039 128.566009 
L 382.873204 128.56883 
L 380.375368 128.571651 
L 377.877547 128.580518 
L 375.379727 128.589832 
L 372.881923 128.602207 
L 370.384142 128.619056 
L 367.886383 128.638437 
L 365.388676 128.663954 
L 362.890915 128.681883 
L 360.393099 128.692116 
L 357.895581 128.731503 
L 355.398213 128.779574 
L 352.901089 128.838932 
L 350.404381 128.913646 
L 347.908246 129.005513 
L 345.413049 129.11995 
L 342.919482 129.265516 
L 340.428933 129.45513 
L 337.943808 129.705946 
L 335.471244 130.058658 
L 333.031956 130.591282 
L 330.779222 131.617663 
L 329.652185 133.828692 
L 328.983399 136.234106 
L 328.504813 138.685335 
L 328.139396 141.156179 
L 327.849444 143.637037 
L 327.612098 146.12354 
L 327.414374 148.613514 
L 327.250873 151.105981 
L 327.11103 153.599892 
L 326.99092 156.094833 
L 326.886773 158.590494 
L 326.796145 161.086682 
L 326.716983 163.583262 
L 326.647564 166.080132 
L 326.587435 168.577244 
L 326.534737 171.074524 
L 326.488313 173.571929 
L 326.447303 176.069429 
L 326.410657 178.566998 
L 326.378505 181.064628 
L 326.349564 183.562297 
L 326.32408 186.060004 
L 326.301077 188.557735 
L 326.280662 191.055489 
L 326.262249 193.553259 
L 326.245582 196.05104 
L 326.230607 198.548833 
L 326.216859 201.046632 
L 326.204186 203.544437 
L 326.192497 206.042247 
L 326.181468 208.54006 
L 326.170941 211.037875 
L 326.160789 213.535692 
L 326.150802 216.033509 
L 326.152942 218.531327 
L 326.162939 221.029144 
L 326.172871 223.526961 
L 326.182712 226.024779 
L 326.192435 228.522598 
L 326.201978 231.020417 
L 326.211321 233.518237 
L 326.220433 236.016057 
L 326.229225 238.513879 
L 326.237677 241.011702 
L 326.245741 243.509526 
L 326.253288 246.007352 
L 326.260336 248.50518 
L 326.266684 251.003009 
L 326.272365 253.50084 
L 326.277109 255.998673 
L 326.280926 258.496507 
L 326.283575 260.994343 
L 326.284859 263.49218 
L 326.284612 265.990017 
L 326.282548 268.487853 
L 326.278315 270.985687 
L 326.271489 273.483515 
L 326.261554 275.981332 
L 326.247884 278.479132 
L 326.229726 280.976903 
L 326.205875 283.474625 
L 326.175044 285.972271 
L 326.135013 288.469786 
L 326.083268 290.967084 
L 326.018068 293.464066 
L 325.933055 295.960445 
L 325.818581 298.455635 
L 325.660327 300.948404 
L 325.446036 303.43692 
L 325.136762 305.915347 
L 324.683425 308.371124 
L 324.027251 310.779932 
L 323.100754 313.097561 
L 321.853069 315.258643 
L 320.277755 317.193141 
L 318.408018 318.844865 
L 316.290885 320.165339 
L 314.00092 321.157547 
L 311.602135 321.848904 
L 309.146848 322.303961 
L 306.665667 322.588921 
L 304.174149 322.764597 
L 301.678546 322.868182 
L 299.181411 322.926288 
L 296.683766 322.955179 
L 294.185965 322.9583 
L 291.688322 322.931114 
L 289.191228 322.871036 
L 286.695816 322.762636 
L 284.204718 322.580838 
L 281.724944 322.283917 
L 279.272518 321.81399 
L 276.879578 321.102759 
L 274.598975 320.088781 
L 272.500764 318.738549 
L 270.649035 317.066954 
L 269.096406 315.114129 
L 267.873258 312.938961 
L 266.967151 310.613155 
L 266.327867 308.199677 
L 265.887237 305.741537 
L 265.585598 303.262143 
L 265.376829 300.773138 
L 265.221873 298.28016 
L 265.109868 295.784855 
L 265.026728 293.288411 
L 264.962634 290.7914 
L 264.911792 288.294084 
L 264.872501 285.796558 
L 264.842087 283.298907 
L 264.818768 280.801179 
L 264.80091 278.303406 
L 264.787504 275.805605 
L 264.777824 273.307787 
L 264.7712 270.809958 
L 264.767118 268.312124 
L 264.765208 265.814288 
L 264.765096 263.31645 
L 264.766497 260.818614 
L 264.769197 258.320778 
L 264.773109 255.822944 
L 264.777933 253.325111 
L 264.78365 250.82728 
L 264.790061 248.329451 
L 264.797138 245.831624 
L 264.804717 243.333798 
L 264.812819 240.835974 
L 264.82129 238.338151 
L 264.830115 235.840329 
L 264.839241 233.342509 
L 264.848596 230.844689 
L 264.858159 228.34687 
L 264.867888 225.849051 
L 264.877736 223.351233 
L 264.887673 220.853416 
L 264.897674 218.355599 
L 264.9077 215.857781 
L 264.904058 213.359964 
L 264.894018 210.862147 
L 264.883838 208.36433 
L 264.873464 205.866515 
L 264.86283 203.3687 
L 264.851818 200.870887 
L 264.840408 198.373076 
L 264.828527 195.875267 
L 264.815998 193.377461 
L 264.802837 190.879658 
L 264.788888 188.38186 
L 264.774021 185.884067 
L 264.758198 183.386279 
L 264.741127 180.888501 
L 264.722832 178.39073 
L 264.702956 175.892972 
L 264.681418 173.395228 
L 264.658002 170.8975 
L 264.63223 168.399796 
L 264.603965 165.902119 
L 264.572792 163.404476 
L 264.538218 160.906879 
L 264.499657 158.409339 
L 264.456413 155.911877 
L 264.407661 153.414516 
L 264.352425 150.917291 
L 264.287649 148.420295 
L 264.212212 145.9236 
L 264.123969 143.427326 
L 264.019216 140.931693 
L 263.892622 138.437077 
L 263.736447 135.944148 
L 263.529216 133.454981 
L 263.247852 130.973253 
L 262.503275 128.859138 
L 260.012257 128.680247 
L 257.515932 128.595666 
L 255.018331 128.563134 
L 252.520522 128.555683 
L 250.022727 128.567612 
L 247.52504 128.594493 
L 245.027767 128.646018 
L 242.532635 128.759971 
L 240.572836 129.568005 
L 240.218669 132.040186 
L 239.975692 134.526095 
L 239.793298 137.017207 
L 239.650926 139.510967 
L 239.534468 142.006078 
L 239.437312 144.50202 
L 239.355055 146.998499 
L 239.284365 149.495334 
L 239.22394 151.992438 
L 239.17168 154.489728 
L 239.125439 156.987136 
L 239.084314 159.484635 
L 239.047543 161.982201 
L 239.014485 164.479819 
L 238.984598 166.977477 
L 238.957427 169.475167 
L 238.932767 171.972882 
L 238.910174 174.470617 
L 238.889316 176.968367 
L 238.870224 179.466132 
L 238.85242 181.963906 
L 238.835962 184.461689 
L 238.820493 186.959478 
L 238.8061 189.457274 
L 238.792475 191.955074 
L 238.779608 194.452878 
L 238.767391 196.950686 
L 238.755686 199.448495 
L 238.744473 201.946308 
L 238.733646 204.444121 
L 238.723114 206.941937 
L 238.712829 209.439753 
L 238.702728 211.93757 
L 238.692727 214.435387 
L 238.682769 216.933204 
L 238.672785 219.431022 
L 238.670845 221.928839 
L 238.680753 224.426657 
L 238.690556 226.924475 
L 238.700209 229.422293 
L 238.709693 231.920113 
L 238.718965 234.417933 
L 238.727949 236.915754 
L 238.736639 239.413576 
L 238.744957 241.9114 
L 238.752827 244.409225 
L 238.760237 246.907051 
L 238.767004 249.404879 
L 238.77317 251.902709 
L 238.778475 254.40054 
L 238.782947 256.898374 
L 238.786335 259.396209 
L 238.788509 261.894045 
L 238.789309 264.391882 
L 238.788469 266.889719 
L 238.785616 269.387555 
L 238.780481 271.885387 
L 238.772621 274.383212 
L 238.761502 276.881024 
L 238.74625 279.378814 
L 238.726153 281.87657 
L 238.699985 284.374269 
L 238.666143 286.871876 
L 238.62226 289.369326 
L 238.565559 291.866516 
L 238.494649 294.36334 
L 238.400161 296.859376 
L 238.272166 299.353904 
L 238.096415 301.845514 
L 237.849703 304.330962 
L 237.495578 306.803189 
L 236.980619 309.24662 
L 236.231051 311.627894 
L 235.191199 313.896604 
L 233.823115 315.983084 
L 232.136513 317.8213 
L 230.167505 319.353246 
L 227.979512 320.552682 
L 225.642716 321.429704 
L 223.218384 322.026885 
L 220.750316 322.407721 
L 218.264368 322.647808 
L 215.771007 322.795493 
L 213.274545 322.877007 
L 210.777203 322.925416 
L 208.279462 322.945911 
L 205.781631 322.94673 
L 203.283957 322.921695 
L 200.787151 322.852464 
L 198.293018 322.719044 
L 195.804755 322.503096 
L 193.332826 322.147861 
L 190.897774 321.596799 
L 188.538427 320.782078 
L 186.317231 319.6447 
L 184.301717 318.174482 
L 182.552542 316.395701 
L 181.119522 314.353036 
L 180.014308 312.115309 
L 179.213361 309.750934 
L 178.653013 307.317645 
L 178.272203 304.849405 
L 178.005639 302.366006 
L 177.818901 299.8752 
L 177.681964 297.381154 
L 177.58155 294.885352 
L 177.506213 292.388659 
L 177.447101 289.891524 
L 177.400796 287.394119 
L 177.364965 284.896541 
L 177.337294 282.398858 
L 177.316058 279.901111 
L 177.299971 277.403326 
L 177.288011 274.905518 
L 177.279488 272.407695 
L 177.273832 269.909864 
L 177.270569 267.412029 
L 177.269312 264.914192 
L 177.26974 262.416355 
L 177.271638 259.918519 
L 177.274834 257.420683 
L 177.279048 254.92285 
L 177.284237 252.425018 
L 177.290198 249.927188 
L 177.296874 247.429359 
L 177.304124 244.931532 
L 177.311925 242.433707 
L 177.320136 239.935883 
L 177.328761 237.438061 
L 177.337699 234.94024 
L 177.346895 232.442419 
L 177.356347 229.9446 
L 177.365974 227.446781 
L 177.375742 224.948963 
L 177.385631 222.451145 
L 177.395597 219.953328 
L 177.405608 217.45551 
L 177.415637 214.957693 
L 177.425652 212.459876 
L 177.425919 209.962059 
L 177.415689 207.464243 
L 177.405215 204.966427 
L 177.394443 202.468613 
L 177.383322 199.970801 
L 177.371741 197.47299 
L 177.359613 194.975182 
L 177.346912 192.477377 
L 177.33345 189.979576 
L 177.319186 187.48178 
L 177.304009 184.983989 
L 177.287713 182.486204 
L 177.270271 179.988428 
L 177.251379 177.490662 
L 177.230963 174.992908 
L 177.208786 172.49517 
L 177.184484 169.997451 
L 177.157914 167.499755 
L 177.128702 165.002088 
L 177.096403 162.50446 
L 177.06045 160.006882 
L 177.020312 157.509367 
L 176.975141 155.011939 
L 176.92408 152.514624 
L 176.86573 150.017471 
L 176.797347 147.520571 
L 176.717639 145.024009 
L 176.623936 142.527935 
L 176.512158 140.032607 
L 176.375714 137.538514 
L 176.203935 135.046635 
L 175.974944 132.559386 
L 175.651555 130.082893 
L 174.15429 128.763027 
L 171.660262 128.628703 
L 169.163311 128.565287 
L 166.665612 128.540733 
L 164.167778 128.540834 
L 161.670027 128.560449 
L 159.172707 128.609691 
L 156.67632 128.694192 
L 154.183101 128.841524 
L 152.963908 130.455671 
L 152.658787 132.934514 
L 152.438826 135.422584 
L 152.273864 137.914937 
L 152.142003 140.409279 
L 152.033044 142.904731 
L 151.941701 145.400893 
L 151.863975 147.897518 
L 151.796914 150.394453 
L 151.739879 152.891638 
L 151.689871 155.388973 
L 151.645615 157.886418 
L 151.606151 160.383943 
L 151.570772 162.88153 
L 151.538882 165.379163 
L 151.510022 167.876834 
L 151.483885 170.374534 
L 151.459967 172.872257 
L 151.437966 175.369997 
L 151.417868 177.867754 
L 151.399185 180.365521 
L 151.38194 182.863299 
L 151.365802 185.361084 
L 151.350795 187.858876 
L 151.336624 190.356673 
L 151.323327 192.854475 
L 151.310698 195.35228 
L 151.298645 197.850089 
L 151.287164 200.3479 
L 151.276089 202.845712 
L 151.265356 205.343527 
L 151.254942 207.841342 
L 151.244733 210.339159 
L 151.234667 212.836976 
L 151.22469 215.334793 
L 151.214736 217.832611 
L 151.20477 220.330428 
L 151.194776 222.828245 
L 151.189038 225.326062 
L 151.199228 227.823879 
L 151.209496 230.321695 
L 151.21987 232.819511 
L 151.230362 235.317326 
L 151.240981 237.815141 
L 151.251767 240.312955 
L 151.262726 242.810768 
L 151.273876 245.308581 
L 151.285264 247.806392 
L 151.296877 250.304202 
L 151.308792 252.802011 
L 151.32099 255.299819 
L 151.333544 257.797624 
L 151.34647 260.295428 
L 151.3598 262.79323 
L 151.373616 265.291029 
L 151.387953 267.788825 
L 151.402867 270.286618 
L 151.418435 272.784407 
L 151.43474 275.282191 
L 151.451876 277.77997 
L 151.469971 280.277741 
L 151.489184 282.775505 
L 151.509649 285.273258 
L 151.531604 287.770999 
L 151.555341 290.268723 
L 151.581234 292.766426 
L 151.609697 295.264101 
L 151.641442 297.761737 
L 151.677433 300.259314 
L 151.719023 302.756805 
L 151.768606 305.254148 
L 151.832391 307.751164 
L 151.921824 310.247379 
L 152.113522 312.736227 
L 152.123744 315.23316 
L 151.951672 317.724424 
L 151.548337 320.187993 
L 150.823217 322.575439 
L 149.720745 324.812953 
L 148.231107 326.813517 
L 146.393148 328.499599 
L 144.27924 329.823637 
L 141.97426 330.778867 
L 139.559913 331.413229 
L 137.093486 331.803894 
L 134.607947 332.048436 
L 132.115297 332.208211 
L 129.61975 332.314474 
L 127.123041 332.389197 
L 124.625865 332.44653 
L 122.12842 332.490648 
L 119.630822 332.52514 
L 117.133136 332.552504 
L 114.635398 332.574766 
L 112.137627 332.592956 
L 109.639836 332.60808 
L 107.14203 332.620652 
L 104.644216 332.631284 
L 102.146395 332.640264 
L 99.648569 332.647857 
L 97.15074 332.654312 
L 94.652909 332.659858 
L 92.155076 332.66455 
L 89.657242 332.668351 
L 87.159407 332.67175 
L 84.661571 332.674432 
L 82.163735 332.676739 
L 79.665898 332.67855 
L 77.168061 332.680102 
L 74.670224 332.681127 
L 72.172387 332.682152 
L 69.67455 332.682551 
L 67.176712 332.682869 
L 64.678875 332.683188 
z
" clip-path="url(#p30e38cdb1d)" style="fill: #145da0; opacity: 0.15"/>
   </g>
   <g id="line2d_86">
    <path d="M 64.678875 322.963188 
L 114.840939 322.853183 
L 128.394819 322.631334 
L 134.048875 322.34484 
L 137.053833 321.99388 
L 138.832614 321.582666 
L 139.927598 321.134225 
L 140.709422 320.602762 
L 141.265139 319.992169 
L 141.737811 319.128078 
L 142.052009 318.127367 
L 142.295523 316.629885 
L 142.431529 314.144021 
L 142.438875 299.962875 
L 142.547714 162.513668 
L 142.793071 145.165709 
L 143.121491 136.140158 
L 143.532721 130.638257 
L 143.992588 127.27332 
L 144.534596 124.937966 
L 145.150683 123.312175 
L 145.819671 122.183768 
L 146.50046 121.41155 
L 147.365608 120.744039 
L 148.498674 120.173017 
L 150.043248 119.693027 
L 152.268543 119.303092 
L 155.745106 119.011482 
L 159.972607 118.875363 
L 168.645143 118.875363 
L 173.91273 119.074061 
L 176.992466 119.39192 
L 179.010786 119.804647 
L 180.433873 120.307083 
L 181.489552 120.90159 
L 182.30234 121.594418 
L 182.946019 122.394351 
L 183.582011 123.561488 
L 184.083154 124.937966 
L 184.556939 126.907613 
L 184.982875 129.719258 
L 185.349655 133.745754 
L 185.651505 139.54225 
L 185.903801 148.881311 
L 186.088812 165.173966 
L 186.174556 195.929499 
L 186.332408 274.552855 
L 186.601527 289.461573 
L 186.9321 297.177822 
L 187.32284 301.914494 
L 187.800811 305.178762 
L 188.366006 307.441796 
L 189.011328 309.015367 
L 189.715805 310.106009 
L 190.436887 310.851159 
L 191.359489 311.493869 
L 192.578634 312.041755 
L 194.260793 312.49938 
L 196.726493 312.866066 
L 200.681987 313.129573 
L 205.67 313.23453 
L 214.023853 313.175393 
L 218.564875 312.942534 
L 221.312062 312.599777 
L 223.150897 312.164534 
L 224.466169 311.63949 
L 225.452012 311.021101 
L 226.216947 310.302404 
L 226.959672 309.248594 
L 227.536253 308.000961 
L 228.074869 306.210035 
L 228.554379 303.645917 
L 228.964661 299.962875 
L 229.301845 294.642473 
L 229.585716 286.027738 
L 229.78892 272.119075 
L 229.902382 246.866337 
L 230.159205 150.887144 
L 230.446245 139.54225 
L 230.829882 132.648519 
L 231.283371 128.440458 
L 231.762881 125.87634 
L 232.301497 124.085414 
L 232.878078 122.837781 
L 233.620803 121.783971 
L 234.385738 121.065274 
L 235.371581 120.446885 
L 236.686853 119.921841 
L 238.525688 119.486598 
L 241.272875 119.143841 
L 244.421987 118.956802 
L 249.41 118.851845 
L 257.763853 118.910982 
L 262.304875 119.143841 
L 265.052062 119.486598 
L 266.890897 119.921841 
L 268.206169 120.446885 
L 269.192012 121.065274 
L 269.956947 121.783971 
L 270.699672 122.837781 
L 271.276253 124.085414 
L 271.814869 125.87634 
L 272.294379 128.440458 
L 272.704661 132.1235 
L 273.041845 137.443902 
L 273.325716 146.058637 
L 273.52892 159.9673 
L 273.642382 185.220038 
L 273.899205 281.199231 
L 274.186245 292.544125 
L 274.569882 299.437856 
L 275.023371 303.645917 
L 275.502881 306.210035 
L 276.041497 308.000961 
L 276.618078 309.248594 
L 277.360803 310.302404 
L 278.125738 311.021101 
L 279.111581 311.63949 
L 280.426853 312.164534 
L 282.265688 312.599777 
L 285.012875 312.942534 
L 288.161987 313.129573 
L 293.15 313.23453 
L 301.503853 313.175393 
L 306.044875 312.942534 
L 308.792062 312.599777 
L 310.630897 312.164534 
L 311.946169 311.63949 
L 312.932012 311.021101 
L 313.696947 310.302404 
L 314.439672 309.248594 
L 315.016253 308.000961 
L 315.554869 306.210035 
L 316.034379 303.645917 
L 316.444661 299.962875 
L 316.781845 294.642473 
L 317.065716 286.027738 
L 317.26892 272.119075 
L 317.382382 246.866337 
L 317.611594 169.37947 
L 317.934681 156.35829 
L 318.344983 147.916017 
L 318.840291 141.822333 
L 319.387082 137.443902 
L 320.070807 133.745754 
L 320.767916 131.118743 
L 321.607649 128.853884 
L 322.405285 127.27332 
L 323.340673 125.87634 
L 324.446297 124.644579 
L 325.766547 123.561488 
L 327.363618 122.612293 
L 329.32731 121.783971 
L 331.7921 121.065274 
L 334.968705 120.446885 
L 339.206804 119.921841 
L 345.131938 119.486598 
L 353.983987 119.143841 
L 364.131125 118.956802 
L 380.20361 118.851845 
L 387.868875 118.843187 
L 387.868875 118.843187 
" clip-path="url(#p30e38cdb1d)" style="fill: none; stroke-dasharray: 7.2,4.8; stroke-dashoffset: 0; stroke: #777777; stroke-width: 1.2"/>
   </g>
   <g id="line2d_87">
    <path d="M 64.678875 313.243187 
L 114.542622 313.135481 
L 127.007053 312.950115 
L 131.989065 312.745848 
L 132.920322 310.99071 
L 133.144652 303.514777 
L 133.361333 286.063804 
L 133.611168 243.680196 
L 133.6468 213.762072 
L 133.528512 158.911935 
L 133.660937 143.953455 
L 133.965478 133.98575 
L 134.320494 129.012419 
L 134.613475 126.53666 
L 135.038537 124.080407 
L 135.65754 121.666206 
L 136.539393 119.335933 
L 137.731191 117.148788 
L 139.247992 115.173483 
L 141.072665 113.478911 
L 143.146758 112.100877 
L 145.40662 111.053528 
L 147.785232 110.311497 
L 150.228719 109.819846 
L 152.702072 109.508532 
L 157.67846 109.208566 
L 165.157494 109.152378 
L 172.634395 109.328156 
L 177.600518 109.76025 
L 180.056126 110.187394 
L 182.460207 110.842981 
L 184.763842 111.79072 
L 186.902522 113.066442 
L 188.809959 114.667237 
L 190.421993 116.565371 
L 191.710014 118.696881 
L 192.680431 120.991263 
L 193.368384 123.386436 
L 193.84368 125.83333 
L 194.394695 130.7878 
L 194.679474 135.765784 
L 194.931056 145.735137 
L 195.039755 160.693842 
L 194.994554 193.105347 
L 194.985134 225.516681 
L 195.249892 265.406892 
L 195.554246 282.856473 
L 195.927139 292.822027 
L 196.26028 297.797027 
L 196.510132 300.277578 
L 196.880458 302.742594 
L 199.026615 303.333077 
L 204.010005 303.495776 
L 211.489295 303.529543 
L 216.473678 303.403763 
L 218.95929 303.215265 
L 219.543106 300.939484 
L 220.019749 295.976674 
L 220.402364 288.507168 
L 220.732192 276.045744 
L 220.978028 256.101753 
L 221.16967 221.197527 
L 221.064988 151.388378 
L 221.270959 138.924304 
L 221.615327 131.453215 
L 222.115372 126.49303 
L 222.54345 124.037307 
L 223.166732 121.62421 
L 224.0541 119.296002 
L 225.252654 117.112478 
L 226.777806 115.143709 
L 228.608115 113.455359 
L 230.687056 112.084588 
L 232.950791 111.045438 
L 235.331933 110.311559 
L 237.776483 109.825387 
L 240.250215 109.517046 
L 245.226675 109.214718 
L 252.705307 109.137294 
L 260.182118 109.316117 
L 265.147809 109.753071 
L 267.602347 110.18633 
L 270.004765 110.847934 
L 272.304929 111.804062 
L 274.439118 113.087285 
L 276.340567 114.695237 
L 277.945181 116.599693 
L 279.22667 118.735123 
L 280.190493 121.032251 
L 280.873813 123.428715 
L 281.3465 125.876117 
L 281.893476 130.831069 
L 282.176766 135.809137 
L 282.427252 145.77852 
L 282.535413 160.73723 
L 282.489959 193.148735 
L 282.471202 230.546419 
L 282.74509 267.943291 
L 283.019752 282.899845 
L 283.393777 292.865354 
L 283.728274 297.840258 
L 283.979389 300.320681 
L 284.352798 302.785218 
L 286.522413 303.349608 
L 291.506008 303.501361 
L 301.478416 303.478301 
L 306.455402 303.197822 
L 307.013042 300.896077 
L 307.487011 295.933 
L 307.868351 288.463426 
L 308.197325 276.001978 
L 308.442711 256.057981 
L 308.644268 218.660576 
L 308.572122 191.235537 
L 308.660297 168.797063 
L 308.897988 156.333496 
L 309.322507 146.370171 
L 309.689799 141.397472 
L 310.240527 136.442036 
L 311.092576 131.53034 
L 311.688399 129.1098 
L 312.436551 126.732105 
L 313.373486 124.4225 
L 314.526371 122.213103 
L 315.912369 120.142423 
L 317.532621 118.249661 
L 319.36989 116.566755 
L 321.398452 115.119934 
L 323.576863 113.910116 
L 325.867455 112.928425 
L 328.234074 112.146632 
L 330.650641 111.535141 
L 335.562181 110.683497 
L 340.520261 110.157707 
L 347.984946 109.69331 
L 357.952543 109.379107 
L 372.909756 109.162019 
L 387.868875 109.123188 
L 387.868875 128.563187 
L 360.393099 128.692116 
L 350.404381 128.913646 
L 342.919482 129.265516 
L 337.943808 129.705946 
L 335.471244 130.058658 
L 333.031956 130.591282 
L 330.779222 131.617663 
L 329.652185 133.828692 
L 328.983399 136.234106 
L 328.504813 138.685335 
L 327.849444 143.637037 
L 327.414374 148.613514 
L 326.99092 156.094833 
L 326.647564 166.080132 
L 326.378505 181.064628 
L 326.192497 206.042247 
L 326.192435 228.522598 
L 326.271489 273.483515 
L 326.135013 288.469786 
L 325.818581 298.455635 
L 325.446036 303.43692 
L 325.136762 305.915347 
L 324.683425 308.371124 
L 324.027251 310.779932 
L 323.100754 313.097561 
L 321.853069 315.258643 
L 320.277755 317.193141 
L 318.408018 318.844865 
L 316.290885 320.165339 
L 314.00092 321.157547 
L 311.602135 321.848904 
L 309.146848 322.303961 
L 304.174149 322.764597 
L 299.181411 322.926288 
L 291.688322 322.931114 
L 286.695816 322.762636 
L 284.204718 322.580838 
L 281.724944 322.283917 
L 279.272518 321.81399 
L 276.879578 321.102759 
L 274.598975 320.088781 
L 272.500764 318.738549 
L 270.649035 317.066954 
L 269.096406 315.114129 
L 267.873258 312.938961 
L 266.967151 310.613155 
L 266.327867 308.199677 
L 265.887237 305.741537 
L 265.376829 300.773138 
L 265.109868 295.784855 
L 264.872501 285.796558 
L 264.767118 268.312124 
L 264.848596 230.844689 
L 264.86283 203.3687 
L 264.603965 165.902119 
L 264.287649 148.420295 
L 263.892622 138.437077 
L 263.529216 133.454981 
L 263.247852 130.973253 
L 262.503275 128.859138 
L 257.515932 128.595666 
L 250.022727 128.567612 
L 245.027767 128.646018 
L 242.532635 128.759971 
L 240.572836 129.568005 
L 240.218669 132.040186 
L 239.793298 137.017207 
L 239.437312 144.50202 
L 239.125439 156.987136 
L 238.889316 176.968367 
L 238.672785 219.431022 
L 238.760237 246.907051 
L 238.74625 279.378814 
L 238.565559 291.866516 
L 238.272166 299.353904 
L 237.849703 304.330962 
L 237.495578 306.803189 
L 236.980619 309.24662 
L 236.231051 311.627894 
L 235.191199 313.896604 
L 233.823115 315.983084 
L 232.136513 317.8213 
L 230.167505 319.353246 
L 227.979512 320.552682 
L 225.642716 321.429704 
L 223.218384 322.026885 
L 220.750316 322.407721 
L 215.771007 322.795493 
L 208.279462 322.945911 
L 200.787151 322.852464 
L 195.804755 322.503096 
L 193.332826 322.147861 
L 190.897774 321.596799 
L 188.538427 320.782078 
L 186.317231 319.6447 
L 184.301717 318.174482 
L 182.552542 316.395701 
L 181.119522 314.353036 
L 180.014308 312.115309 
L 179.213361 309.750934 
L 178.653013 307.317645 
L 178.272203 304.849405 
L 177.818901 299.8752 
L 177.506213 292.388659 
L 177.316058 279.901111 
L 177.274834 257.420683 
L 177.304009 184.983989 
L 177.020312 157.509367 
L 176.717639 145.024009 
L 176.375714 137.538514 
L 175.974944 132.559386 
L 175.651555 130.082893 
L 174.15429 128.763027 
L 169.163311 128.565287 
L 161.670027 128.560449 
L 156.67632 128.694192 
L 154.183101 128.841524 
L 152.963908 130.455671 
L 152.438826 135.422584 
L 152.033044 142.904731 
L 151.739879 152.891638 
L 151.483885 170.374534 
L 151.276089 202.845712 
L 151.230362 235.317326 
L 151.581234 292.766426 
L 151.832391 307.751164 
L 152.123744 315.23316 
L 151.951672 317.724424 
L 151.548337 320.187993 
L 150.823217 322.575439 
L 149.720745 324.812953 
L 148.231107 326.813517 
L 146.393148 328.499599 
L 144.27924 329.823637 
L 141.97426 330.778867 
L 139.559913 331.413229 
L 137.093486 331.803894 
L 132.115297 332.208211 
L 124.625865 332.44653 
L 109.639836 332.60808 
L 74.670224 332.681127 
L 64.678875 332.683188 
L 64.678875 313.243187 
L 64.678875 313.243187 
" clip-path="url(#p30e38cdb1d)" style="fill: none; stroke: #145da0; stroke-width: 2.16; stroke-linecap: square"/>
   </g>
   <g id="patch_4">
    <path d="M 48.519375 366.217188 
L 48.519375 30.877187 
" style="fill: none; stroke: #333333; stroke-width: 1.2; stroke-linejoin: miter; stroke-linecap: square"/>
   </g>
   <g id="patch_5">
    <path d="M 404.028375 366.217188 
L 404.028375 30.877187 
" style="fill: none; stroke: #333333; stroke-width: 1.2; stroke-linejoin: miter; stroke-linecap: square"/>
   </g>
   <g id="patch_6">
    <path d="M 48.519375 366.217188 
L 404.028375 366.217188 
" style="fill: none; stroke: #333333; stroke-width: 1.2; stroke-linejoin: miter; stroke-linecap: square"/>
   </g>
   <g id="patch_7">
    <path d="M 48.519375 30.877187 
L 404.028375 30.877187 
" style="fill: none; stroke: #333333; stroke-width: 1.2; stroke-linejoin: miter; stroke-linecap: square"/>
   </g>
   <g id="text_17">
    <!-- B: 2D Thickness Offset -->
    <g transform="translate(48.519375 20.877187) scale(0.18 -0.18)">
     <defs>
      <path id="DejaVuSans-Bold-42" d="M 2456 2859 
Q 2741 2859 2887 2984 
Q 3034 3109 3034 3353 
Q 3034 3594 2887 3720 
Q 2741 3847 2456 3847 
L 1791 3847 
L 1791 2859 
L 2456 2859 
z
M 2497 819 
Q 2859 819 3042 972 
Q 3225 1125 3225 1434 
Q 3225 1738 3044 1889 
Q 2863 2041 2497 2041 
L 1791 2041 
L 1791 819 
L 2497 819 
z
M 3616 2497 
Q 4003 2384 4215 2081 
Q 4428 1778 4428 1338 
Q 4428 663 3972 331 
Q 3516 0 2584 0 
L 588 0 
L 588 4666 
L 2394 4666 
Q 3366 4666 3802 4372 
Q 4238 4078 4238 3431 
Q 4238 3091 4078 2852 
Q 3919 2613 3616 2497 
z
" transform="scale(0.015625)"/>
      <path id="DejaVuSans-Bold-3a" d="M 716 3500 
L 1844 3500 
L 1844 2291 
L 716 2291 
L 716 3500 
z
M 716 1209 
L 1844 1209 
L 1844 0 
L 716 0 
L 716 1209 
z
" transform="scale(0.015625)"/>
      <path id="DejaVuSans-Bold-20" transform="scale(0.015625)"/>
      <path id="DejaVuSans-Bold-32" d="M 1844 884 
L 3897 884 
L 3897 0 
L 506 0 
L 506 884 
L 2209 2388 
Q 2438 2594 2547 2791 
Q 2656 2988 2656 3200 
Q 2656 3528 2436 3728 
Q 2216 3928 1850 3928 
Q 1569 3928 1234 3808 
Q 900 3688 519 3450 
L 519 4475 
Q 925 4609 1322 4679 
Q 1719 4750 2100 4750 
Q 2938 4750 3402 4381 
Q 3866 4013 3866 3353 
Q 3866 2972 3669 2642 
Q 3472 2313 2841 1759 
L 1844 884 
z
" transform="scale(0.015625)"/>
      <path id="DejaVuSans-Bold-44" d="M 1791 3756 
L 1791 909 
L 2222 909 
Q 2959 909 3348 1275 
Q 3738 1641 3738 2338 
Q 3738 3031 3350 3393 
Q 2963 3756 2222 3756 
L 1791 3756 
z
M 588 4666 
L 1856 4666 
Q 2919 4666 3439 4514 
Q 3959 4363 4331 4000 
Q 4659 3684 4818 3271 
Q 4978 2859 4978 2338 
Q 4978 1809 4818 1395 
Q 4659 981 4331 666 
Q 3956 303 3431 151 
Q 2906 0 1856 0 
L 588 0 
L 588 4666 
z
" transform="scale(0.015625)"/>
      <path id="DejaVuSans-Bold-54" d="M 31 4666 
L 4331 4666 
L 4331 3756 
L 2784 3756 
L 2784 0 
L 1581 0 
L 1581 3756 
L 31 3756 
L 31 4666 
z
" transform="scale(0.015625)"/>
      <path id="DejaVuSans-Bold-68" d="M 4056 2131 
L 4056 0 
L 2931 0 
L 2931 347 
L 2931 1625 
Q 2931 2084 2911 2256 
Q 2891 2428 2841 2509 
Q 2775 2619 2662 2680 
Q 2550 2741 2406 2741 
Q 2056 2741 1856 2470 
Q 1656 2200 1656 1722 
L 1656 0 
L 538 0 
L 538 4863 
L 1656 4863 
L 1656 2988 
Q 1909 3294 2193 3439 
Q 2478 3584 2822 3584 
Q 3428 3584 3742 3212 
Q 4056 2841 4056 2131 
z
" transform="scale(0.015625)"/>
      <path id="DejaVuSans-Bold-69" d="M 538 3500 
L 1656 3500 
L 1656 0 
L 538 0 
L 538 3500 
z
M 538 4863 
L 1656 4863 
L 1656 3950 
L 538 3950 
L 538 4863 
z
" transform="scale(0.015625)"/>
      <path id="DejaVuSans-Bold-63" d="M 3366 3391 
L 3366 2478 
Q 3138 2634 2908 2709 
Q 2678 2784 2431 2784 
Q 1963 2784 1702 2511 
Q 1441 2238 1441 1747 
Q 1441 1256 1702 982 
Q 1963 709 2431 709 
Q 2694 709 2930 787 
Q 3166 866 3366 1019 
L 3366 103 
Q 3103 6 2833 -42 
Q 2563 -91 2291 -91 
Q 1344 -91 809 395 
Q 275 881 275 1747 
Q 275 2613 809 3098 
Q 1344 3584 2291 3584 
Q 2566 3584 2833 3536 
Q 3100 3488 3366 3391 
z
" transform="scale(0.015625)"/>
      <path id="DejaVuSans-Bold-6b" d="M 538 4863 
L 1656 4863 
L 1656 2216 
L 2944 3500 
L 4244 3500 
L 2534 1894 
L 4378 0 
L 3022 0 
L 1656 1459 
L 1656 0 
L 538 0 
L 538 4863 
z
" transform="scale(0.015625)"/>
      <path id="DejaVuSans-Bold-6e" d="M 4056 2131 
L 4056 0 
L 2931 0 
L 2931 347 
L 2931 1631 
Q 2931 2084 2911 2256 
Q 2891 2428 2841 2509 
Q 2775 2619 2662 2680 
Q 2550 2741 2406 2741 
Q 2056 2741 1856 2470 
Q 1656 2200 1656 1722 
L 1656 0 
L 538 0 
L 538 3500 
L 1656 3500 
L 1656 2988 
Q 1909 3294 2193 3439 
Q 2478 3584 2822 3584 
Q 3428 3584 3742 3212 
Q 4056 2841 4056 2131 
z
" transform="scale(0.015625)"/>
      <path id="DejaVuSans-Bold-65" d="M 4031 1759 
L 4031 1441 
L 1416 1441 
Q 1456 1047 1700 850 
Q 1944 653 2381 653 
Q 2734 653 3104 758 
Q 3475 863 3866 1075 
L 3866 213 
Q 3469 63 3072 -14 
Q 2675 -91 2278 -91 
Q 1328 -91 801 392 
Q 275 875 275 1747 
Q 275 2603 792 3093 
Q 1309 3584 2216 3584 
Q 3041 3584 3536 3087 
Q 4031 2591 4031 1759 
z
M 2881 2131 
Q 2881 2450 2695 2645 
Q 2509 2841 2209 2841 
Q 1884 2841 1681 2658 
Q 1478 2475 1428 2131 
L 2881 2131 
z
" transform="scale(0.015625)"/>
      <path id="DejaVuSans-Bold-73" d="M 3272 3391 
L 3272 2541 
Q 2913 2691 2578 2766 
Q 2244 2841 1947 2841 
Q 1628 2841 1473 2761 
Q 1319 2681 1319 2516 
Q 1319 2381 1436 2309 
Q 1553 2238 1856 2203 
L 2053 2175 
Q 2913 2066 3209 1816 
Q 3506 1566 3506 1031 
Q 3506 472 3093 190 
Q 2681 -91 1863 -91 
Q 1516 -91 1145 -36 
Q 775 19 384 128 
L 384 978 
Q 719 816 1070 734 
Q 1422 653 1784 653 
Q 2113 653 2278 743 
Q 2444 834 2444 1013 
Q 2444 1163 2330 1236 
Q 2216 1309 1875 1350 
L 1678 1375 
Q 931 1469 631 1722 
Q 331 1975 331 2491 
Q 331 3047 712 3315 
Q 1094 3584 1881 3584 
Q 2191 3584 2531 3537 
Q 2872 3491 3272 3391 
z
" transform="scale(0.015625)"/>
      <path id="DejaVuSans-Bold-4f" d="M 2719 3878 
Q 2169 3878 1866 3472 
Q 1563 3066 1563 2328 
Q 1563 1594 1866 1187 
Q 2169 781 2719 781 
Q 3272 781 3575 1187 
Q 3878 1594 3878 2328 
Q 3878 3066 3575 3472 
Q 3272 3878 2719 3878 
z
M 2719 4750 
Q 3844 4750 4481 4106 
Q 5119 3463 5119 2328 
Q 5119 1197 4481 553 
Q 3844 -91 2719 -91 
Q 1597 -91 958 553 
Q 319 1197 319 2328 
Q 319 3463 958 4106 
Q 1597 4750 2719 4750 
z
" transform="scale(0.015625)"/>
      <path id="DejaVuSans-Bold-66" d="M 2841 4863 
L 2841 4128 
L 2222 4128 
Q 1984 4128 1890 4042 
Q 1797 3956 1797 3744 
L 1797 3500 
L 2753 3500 
L 2753 2700 
L 1797 2700 
L 1797 0 
L 678 0 
L 678 2700 
L 122 2700 
L 122 3500 
L 678 3500 
L 678 3744 
Q 678 4316 997 4589 
Q 1316 4863 1984 4863 
L 2841 4863 
z
" transform="scale(0.015625)"/>
      <path id="DejaVuSans-Bold-74" d="M 1759 4494 
L 1759 3500 
L 2913 3500 
L 2913 2700 
L 1759 2700 
L 1759 1216 
Q 1759 972 1856 886 
Q 1953 800 2241 800 
L 2816 800 
L 2816 0 
L 1856 0 
Q 1194 0 917 276 
Q 641 553 641 1216 
L 641 2700 
L 84 2700 
L 84 3500 
L 641 3500 
L 641 4494 
L 1759 4494 
z
" transform="scale(0.015625)"/>
     </defs>
     <use xlink:href="#DejaVuSans-Bold-42"/>
     <use xlink:href="#DejaVuSans-Bold-3a" transform="translate(76.220703 0)"/>
     <use xlink:href="#DejaVuSans-Bold-20" transform="translate(116.210938 0)"/>
     <use xlink:href="#DejaVuSans-Bold-32" transform="translate(151.025391 0)"/>
     <use xlink:href="#DejaVuSans-Bold-44" transform="translate(220.605469 0)"/>
     <use xlink:href="#DejaVuSans-Bold-20" transform="translate(303.613281 0)"/>
     <use xlink:href="#DejaVuSans-Bold-54" transform="translate(338.427734 0)"/>
     <use xlink:href="#DejaVuSans-Bold-68" transform="translate(406.640625 0)"/>
     <use xlink:href="#DejaVuSans-Bold-69" transform="translate(477.832031 0)"/>
     <use xlink:href="#DejaVuSans-Bold-63" transform="translate(512.109375 0)"/>
     <use xlink:href="#DejaVuSans-Bold-6b" transform="translate(571.386719 0)"/>
     <use xlink:href="#DejaVuSans-Bold-6e" transform="translate(637.890625 0)"/>
     <use xlink:href="#DejaVuSans-Bold-65" transform="translate(709.082031 0)"/>
     <use xlink:href="#DejaVuSans-Bold-73" transform="translate(776.904297 0)"/>
     <use xlink:href="#DejaVuSans-Bold-73" transform="translate(836.425781 0)"/>
     <use xlink:href="#DejaVuSans-Bold-20" transform="translate(895.947266 0)"/>
     <use xlink:href="#DejaVuSans-Bold-4f" transform="translate(930.761719 0)"/>
     <use xlink:href="#DejaVuSans-Bold-66" transform="translate(1015.771484 0)"/>
     <use xlink:href="#DejaVuSans-Bold-66" transform="translate(1059.277344 0)"/>
     <use xlink:href="#DejaVuSans-Bold-73" transform="translate(1102.783203 0)"/>
     <use xlink:href="#DejaVuSans-Bold-65" transform="translate(1162.304688 0)"/>
     <use xlink:href="#DejaVuSans-Bold-74" transform="translate(1230.126953 0)"/>
    </g>
   </g>
   <g id="legend_1">
    <g id="patch_8">
     <path d="M 207.379313 77.469063 
L 395.228375 77.469063 
Q 397.428375 77.469063 397.428375 75.269063 
L 397.428375 39.677187 
Q 397.428375 37.477187 395.228375 37.477187 
L 207.379313 37.477187 
Q 205.179313 37.477187 205.179313 39.677187 
L 205.179313 75.269063 
Q 205.179313 77.469063 207.379313 77.469063 
z
" style="fill: #ffffff; opacity: 0.95; stroke: #808080; stroke-width: 0.8; stroke-linejoin: miter"/>
    </g>
    <g id="line2d_88">
     <path d="M 211.779313 48.585469 
L 222.779313 48.585469 
L 233.779313 48.585469 
" style="fill: none; stroke-dasharray: 7.2,4.8; stroke-dashoffset: 0; stroke: #777777; stroke-width: 1.2"/>
    </g>
    <g id="text_18">
     <!-- Baseline - 1D Curve -->
     <g transform="translate(239.279313 52.435469) scale(0.11 -0.11)">
      <defs>
       <path id="DejaVuSans-42" d="M 1259 2228 
L 1259 519 
L 2272 519 
Q 2781 519 3026 730 
Q 3272 941 3272 1375 
Q 3272 1813 3026 2020 
Q 2781 2228 2272 2228 
L 1259 2228 
z
M 1259 4147 
L 1259 2741 
L 2194 2741 
Q 2656 2741 2882 2914 
Q 3109 3088 3109 3444 
Q 3109 3797 2882 3972 
Q 2656 4147 2194 4147 
L 1259 4147 
z
M 628 4666 
L 2241 4666 
Q 2963 4666 3353 4366 
Q 3744 4066 3744 3513 
Q 3744 3084 3544 2831 
Q 3344 2578 2956 2516 
Q 3422 2416 3680 2098 
Q 3938 1781 3938 1306 
Q 3938 681 3513 340 
Q 3088 0 2303 0 
L 628 0 
L 628 4666 
z
" transform="scale(0.015625)"/>
       <path id="DejaVuSans-61" d="M 2194 1759 
Q 1497 1759 1228 1600 
Q 959 1441 959 1056 
Q 959 750 1161 570 
Q 1363 391 1709 391 
Q 2188 391 2477 730 
Q 2766 1069 2766 1631 
L 2766 1759 
L 2194 1759 
z
M 3341 1997 
L 3341 0 
L 2766 0 
L 2766 531 
Q 2569 213 2275 61 
Q 1981 -91 1556 -91 
Q 1019 -91 701 211 
Q 384 513 384 1019 
Q 384 1609 779 1909 
Q 1175 2209 1959 2209 
L 2766 2209 
L 2766 2266 
Q 2766 2663 2505 2880 
Q 2244 3097 1772 3097 
Q 1472 3097 1187 3025 
Q 903 2953 641 2809 
L 641 3341 
Q 956 3463 1253 3523 
Q 1550 3584 1831 3584 
Q 2591 3584 2966 3190 
Q 3341 2797 3341 1997 
z
" transform="scale(0.015625)"/>
       <path id="DejaVuSans-73" d="M 2834 3397 
L 2834 2853 
Q 2591 2978 2328 3040 
Q 2066 3103 1784 3103 
Q 1356 3103 1142 2972 
Q 928 2841 928 2578 
Q 928 2378 1081 2264 
Q 1234 2150 1697 2047 
L 1894 2003 
Q 2506 1872 2764 1633 
Q 3022 1394 3022 966 
Q 3022 478 2636 193 
Q 2250 -91 1575 -91 
Q 1294 -91 989 -36 
Q 684 19 347 128 
L 347 722 
Q 666 556 975 473 
Q 1284 391 1588 391 
Q 1994 391 2212 530 
Q 2431 669 2431 922 
Q 2431 1156 2273 1281 
Q 2116 1406 1581 1522 
L 1381 1569 
Q 847 1681 609 1914 
Q 372 2147 372 2553 
Q 372 3047 722 3315 
Q 1072 3584 1716 3584 
Q 2034 3584 2315 3537 
Q 2597 3491 2834 3397 
z
" transform="scale(0.015625)"/>
       <path id="DejaVuSans-65" d="M 3597 1894 
L 3597 1613 
L 953 1613 
Q 991 1019 1311 708 
Q 1631 397 2203 397 
Q 2534 397 2845 478 
Q 3156 559 3463 722 
L 3463 178 
Q 3153 47 2828 -22 
Q 2503 -91 2169 -91 
Q 1331 -91 842 396 
Q 353 884 353 1716 
Q 353 2575 817 3079 
Q 1281 3584 2069 3584 
Q 2775 3584 3186 3129 
Q 3597 2675 3597 1894 
z
M 3022 2063 
Q 3016 2534 2758 2815 
Q 2500 3097 2075 3097 
Q 1594 3097 1305 2825 
Q 1016 2553 972 2059 
L 3022 2063 
z
" transform="scale(0.015625)"/>
       <path id="DejaVuSans-6c" d="M 603 4863 
L 1178 4863 
L 1178 0 
L 603 0 
L 603 4863 
z
" transform="scale(0.015625)"/>
       <path id="DejaVuSans-69" d="M 603 3500 
L 1178 3500 
L 1178 0 
L 603 0 
L 603 3500 
z
M 603 4863 
L 1178 4863 
L 1178 4134 
L 603 4134 
L 603 4863 
z
" transform="scale(0.015625)"/>
       <path id="DejaVuSans-6e" d="M 3513 2113 
L 3513 0 
L 2938 0 
L 2938 2094 
Q 2938 2591 2744 2837 
Q 2550 3084 2163 3084 
Q 1697 3084 1428 2787 
Q 1159 2491 1159 1978 
L 1159 0 
L 581 0 
L 581 3500 
L 1159 3500 
L 1159 2956 
Q 1366 3272 1645 3428 
Q 1925 3584 2291 3584 
Q 2894 3584 3203 3211 
Q 3513 2838 3513 2113 
z
" transform="scale(0.015625)"/>
       <path id="DejaVuSans-2d" d="M 313 2009 
L 1997 2009 
L 1997 1497 
L 313 1497 
L 313 2009 
z
" transform="scale(0.015625)"/>
       <path id="DejaVuSans-44" d="M 1259 4147 
L 1259 519 
L 2022 519 
Q 2988 519 3436 956 
Q 3884 1394 3884 2338 
Q 3884 3275 3436 3711 
Q 2988 4147 2022 4147 
L 1259 4147 
z
M 628 4666 
L 1925 4666 
Q 3281 4666 3915 4102 
Q 4550 3538 4550 2338 
Q 4550 1131 3912 565 
Q 3275 0 1925 0 
L 628 0 
L 628 4666 
z
" transform="scale(0.015625)"/>
       <path id="DejaVuSans-43" d="M 4122 4306 
L 4122 3641 
Q 3803 3938 3442 4084 
Q 3081 4231 2675 4231 
Q 1875 4231 1450 3742 
Q 1025 3253 1025 2328 
Q 1025 1406 1450 917 
Q 1875 428 2675 428 
Q 3081 428 3442 575 
Q 3803 722 4122 1019 
L 4122 359 
Q 3791 134 3420 21 
Q 3050 -91 2638 -91 
Q 1578 -91 968 557 
Q 359 1206 359 2328 
Q 359 3453 968 4101 
Q 1578 4750 2638 4750 
Q 3056 4750 3426 4639 
Q 3797 4528 4122 4306 
z
" transform="scale(0.015625)"/>
       <path id="DejaVuSans-75" d="M 544 1381 
L 544 3500 
L 1119 3500 
L 1119 1403 
Q 1119 906 1312 657 
Q 1506 409 1894 409 
Q 2359 409 2629 706 
Q 2900 1003 2900 1516 
L 2900 3500 
L 3475 3500 
L 3475 0 
L 2900 0 
L 2900 538 
Q 2691 219 2414 64 
Q 2138 -91 1772 -91 
Q 1169 -91 856 284 
Q 544 659 544 1381 
z
M 1991 3584 
L 1991 3584 
z
" transform="scale(0.015625)"/>
       <path id="DejaVuSans-72" d="M 2631 2963 
Q 2534 3019 2420 3045 
Q 2306 3072 2169 3072 
Q 1681 3072 1420 2755 
Q 1159 2438 1159 1844 
L 1159 0 
L 581 0 
L 581 3500 
L 1159 3500 
L 1159 2956 
Q 1341 3275 1631 3429 
Q 1922 3584 2338 3584 
Q 2397 3584 2469 3576 
Q 2541 3569 2628 3553 
L 2631 2963 
z
" transform="scale(0.015625)"/>
       <path id="DejaVuSans-76" d="M 191 3500 
L 800 3500 
L 1894 563 
L 2988 3500 
L 3597 3500 
L 2284 0 
L 1503 0 
L 191 3500 
z
" transform="scale(0.015625)"/>
      </defs>
      <use xlink:href="#DejaVuSans-42"/>
      <use xlink:href="#DejaVuSans-61" transform="translate(68.603516 0)"/>
      <use xlink:href="#DejaVuSans-73" transform="translate(129.882812 0)"/>
      <use xlink:href="#DejaVuSans-65" transform="translate(181.982422 0)"/>
      <use xlink:href="#DejaVuSans-6c" transform="translate(243.505859 0)"/>
      <use xlink:href="#DejaVuSans-69" transform="translate(271.289062 0)"/>
      <use xlink:href="#DejaVuSans-6e" transform="translate(299.072266 0)"/>
      <use xlink:href="#DejaVuSans-65" transform="translate(362.451172 0)"/>
      <use xlink:href="#DejaVuSans-20" transform="translate(423.974609 0)"/>
      <use xlink:href="#DejaVuSans-2d" transform="translate(455.761719 0)"/>
      <use xlink:href="#DejaVuSans-20" transform="translate(491.845703 0)"/>
      <use xlink:href="#DejaVuSans-31" transform="translate(523.632812 0)"/>
      <use xlink:href="#DejaVuSans-44" transform="translate(587.255859 0)"/>
      <use xlink:href="#DejaVuSans-20" transform="translate(664.257812 0)"/>
      <use xlink:href="#DejaVuSans-43" transform="translate(696.044922 0)"/>
      <use xlink:href="#DejaVuSans-75" transform="translate(765.869141 0)"/>
      <use xlink:href="#DejaVuSans-72" transform="translate(829.248047 0)"/>
      <use xlink:href="#DejaVuSans-76" transform="translate(870.361328 0)"/>
      <use xlink:href="#DejaVuSans-65" transform="translate(929.541016 0)"/>
     </g>
    </g>
    <g id="line2d_89">
     <path d="M 211.779313 64.731406 
L 222.779313 64.731406 
L 233.779313 64.731406 
" style="fill: none; stroke: #145da0; stroke-width: 2.16; stroke-linecap: square"/>
    </g>
    <g id="text_19">
     <!-- Baseline - 2D Cross-Section -->
     <g transform="translate(239.279313 68.581406) scale(0.11 -0.11)">
      <defs>
       <path id="DejaVuSans-6f" d="M 1959 3097 
Q 1497 3097 1228 2736 
Q 959 2375 959 1747 
Q 959 1119 1226 758 
Q 1494 397 1959 397 
Q 2419 397 2687 759 
Q 2956 1122 2956 1747 
Q 2956 2369 2687 2733 
Q 2419 3097 1959 3097 
z
M 1959 3584 
Q 2709 3584 3137 3096 
Q 3566 2609 3566 1747 
Q 3566 888 3137 398 
Q 2709 -91 1959 -91 
Q 1206 -91 779 398 
Q 353 888 353 1747 
Q 353 2609 779 3096 
Q 1206 3584 1959 3584 
z
" transform="scale(0.015625)"/>
       <path id="DejaVuSans-53" d="M 3425 4513 
L 3425 3897 
Q 3066 4069 2747 4153 
Q 2428 4238 2131 4238 
Q 1616 4238 1336 4038 
Q 1056 3838 1056 3469 
Q 1056 3159 1242 3001 
Q 1428 2844 1947 2747 
L 2328 2669 
Q 3034 2534 3370 2195 
Q 3706 1856 3706 1288 
Q 3706 609 3251 259 
Q 2797 -91 1919 -91 
Q 1588 -91 1214 -16 
Q 841 59 441 206 
L 441 856 
Q 825 641 1194 531 
Q 1563 422 1919 422 
Q 2459 422 2753 634 
Q 3047 847 3047 1241 
Q 3047 1584 2836 1778 
Q 2625 1972 2144 2069 
L 1759 2144 
Q 1053 2284 737 2584 
Q 422 2884 422 3419 
Q 422 4038 858 4394 
Q 1294 4750 2059 4750 
Q 2388 4750 2728 4690 
Q 3069 4631 3425 4513 
z
" transform="scale(0.015625)"/>
       <path id="DejaVuSans-63" d="M 3122 3366 
L 3122 2828 
Q 2878 2963 2633 3030 
Q 2388 3097 2138 3097 
Q 1578 3097 1268 2742 
Q 959 2388 959 1747 
Q 959 1106 1268 751 
Q 1578 397 2138 397 
Q 2388 397 2633 464 
Q 2878 531 3122 666 
L 3122 134 
Q 2881 22 2623 -34 
Q 2366 -91 2075 -91 
Q 1284 -91 818 406 
Q 353 903 353 1747 
Q 353 2603 823 3093 
Q 1294 3584 2113 3584 
Q 2378 3584 2631 3529 
Q 2884 3475 3122 3366 
z
" transform="scale(0.015625)"/>
       <path id="DejaVuSans-74" d="M 1172 4494 
L 1172 3500 
L 2356 3500 
L 2356 3053 
L 1172 3053 
L 1172 1153 
Q 1172 725 1289 603 
Q 1406 481 1766 481 
L 2356 481 
L 2356 0 
L 1766 0 
Q 1100 0 847 248 
Q 594 497 594 1153 
L 594 3053 
L 172 3053 
L 172 3500 
L 594 3500 
L 594 4494 
L 1172 4494 
z
" transform="scale(0.015625)"/>
      </defs>
      <use xlink:href="#DejaVuSans-42"/>
      <use xlink:href="#DejaVuSans-61" transform="translate(68.603516 0)"/>
      <use xlink:href="#DejaVuSans-73" transform="translate(129.882812 0)"/>
      <use xlink:href="#DejaVuSans-65" transform="translate(181.982422 0)"/>
      <use xlink:href="#DejaVuSans-6c" transform="translate(243.505859 0)"/>
      <use xlink:href="#DejaVuSans-69" transform="translate(271.289062 0)"/>
      <use xlink:href="#DejaVuSans-6e" transform="translate(299.072266 0)"/>
      <use xlink:href="#DejaVuSans-65" transform="translate(362.451172 0)"/>
      <use xlink:href="#DejaVuSans-20" transform="translate(423.974609 0)"/>
      <use xlink:href="#DejaVuSans-2d" transform="translate(455.761719 0)"/>
      <use xlink:href="#DejaVuSans-20" transform="translate(491.845703 0)"/>
      <use xlink:href="#DejaVuSans-32" transform="translate(523.632812 0)"/>
      <use xlink:href="#DejaVuSans-44" transform="translate(587.255859 0)"/>
      <use xlink:href="#DejaVuSans-20" transform="translate(664.257812 0)"/>
      <use xlink:href="#DejaVuSans-43" transform="translate(696.044922 0)"/>
      <use xlink:href="#DejaVuSans-72" transform="translate(765.869141 0)"/>
      <use xlink:href="#DejaVuSans-6f" transform="translate(804.732422 0)"/>
      <use xlink:href="#DejaVuSans-73" transform="translate(865.914062 0)"/>
      <use xlink:href="#DejaVuSans-73" transform="translate(918.013672 0)"/>
      <use xlink:href="#DejaVuSans-2d" transform="translate(970.113281 0)"/>
      <use xlink:href="#DejaVuSans-53" transform="translate(1006.197266 0)"/>
      <use xlink:href="#DejaVuSans-65" transform="translate(1069.673828 0)"/>
      <use xlink:href="#DejaVuSans-63" transform="translate(1131.197266 0)"/>
      <use xlink:href="#DejaVuSans-74" transform="translate(1186.177734 0)"/>
      <use xlink:href="#DejaVuSans-69" transform="translate(1225.386719 0)"/>
      <use xlink:href="#DejaVuSans-6f" transform="translate(1253.169922 0)"/>
      <use xlink:href="#DejaVuSans-6e" transform="translate(1314.351562 0)"/>
     </g>
    </g>
   </g>
  </g>
 </g>
 <defs>
  <clipPath id="p30e38cdb1d">
   <rect x="48.519375" y="30.877187" width="355.509" height="335.34"/>
  </clipPath>
 </defs>
</svg>
